<svg width="360" height="249" viewBox="0 0 360 249" fill="none" xmlns="http://www.w3.org/2000/svg">
<path d="M98.1977 145.35C99.5323 145.35 100.648 145.537 101.544 145.91C102.449 146.274 103.135 146.825 103.602 147.562C104.068 148.29 104.302 149.2 104.302 150.292C104.302 151.337 104.087 152.219 103.658 152.938C103.238 153.647 102.696 154.189 102.034 154.562C101.38 154.935 100.708 155.145 100.018 155.192C100.764 155.211 101.502 155.388 102.23 155.724C102.967 156.051 103.574 156.583 104.05 157.32C104.526 158.048 104.764 159.023 104.764 160.246C104.764 161.422 104.526 162.444 104.05 163.312C103.583 164.171 102.86 164.833 101.88 165.3C100.9 165.767 99.6397 166 98.0997 166H90.9037V145.35H98.1977ZM93.8297 154.982L92.8077 154.03H97.0077C98.3703 154.03 99.4203 153.75 100.158 153.19C100.895 152.63 101.264 151.827 101.264 150.782C101.264 150.073 101.11 149.508 100.802 149.088C100.494 148.659 100.05 148.351 99.4717 148.164C98.9023 147.968 98.2257 147.87 97.4417 147.87H92.4577L93.8297 146.274V154.982ZM97.5117 163.48C98.8183 163.48 99.8357 163.191 100.564 162.612C101.301 162.024 101.67 161.179 101.67 160.078C101.67 159.415 101.548 158.86 101.306 158.412C101.072 157.955 100.75 157.591 100.34 157.32C99.929 157.049 99.453 156.853 98.9117 156.732C98.3703 156.601 97.7917 156.536 97.1757 156.536H92.8077L93.8297 155.584V165.076L92.4577 163.48H97.5117ZM108.352 166V151.132H111.348V166H108.352ZM109.864 148.052C109.342 148.052 108.889 147.912 108.506 147.632C108.133 147.343 107.946 146.946 107.946 146.442C107.946 145.947 108.133 145.56 108.506 145.28C108.889 144.991 109.342 144.846 109.864 144.846C110.378 144.846 110.821 144.991 111.194 145.28C111.577 145.56 111.768 145.947 111.768 146.442C111.768 146.946 111.577 147.343 111.194 147.632C110.821 147.912 110.378 148.052 109.864 148.052ZM118.598 144.118V166H115.602V144.118H118.598ZM125.872 144.118V166H122.876V144.118H125.872ZM135.791 166.294C134.905 166.294 134.069 166.196 133.285 166C132.501 165.804 131.811 165.519 131.213 165.146C130.625 164.763 130.163 164.292 129.827 163.732C129.501 163.172 129.337 162.523 129.337 161.786C129.337 161.721 129.337 161.655 129.337 161.59C129.337 161.515 129.337 161.455 129.337 161.408H132.361C132.361 161.455 132.361 161.497 132.361 161.534C132.361 161.571 132.361 161.623 132.361 161.688C132.361 162.369 132.674 162.887 133.299 163.242C133.934 163.587 134.793 163.76 135.875 163.76C136.51 163.76 137.089 163.695 137.611 163.564C138.143 163.433 138.563 163.233 138.871 162.962C139.189 162.691 139.347 162.346 139.347 161.926C139.347 161.245 139.011 160.759 138.339 160.47C137.677 160.181 136.669 159.924 135.315 159.7C134.578 159.569 133.864 159.401 133.173 159.196C132.492 158.991 131.876 158.72 131.325 158.384C130.784 158.039 130.35 157.614 130.023 157.11C129.706 156.597 129.547 155.981 129.547 155.262C129.547 154.329 129.827 153.535 130.387 152.882C130.947 152.229 131.703 151.734 132.655 151.398C133.607 151.062 134.657 150.894 135.805 150.894C136.916 150.894 137.943 151.076 138.885 151.44C139.837 151.795 140.603 152.313 141.181 152.994C141.76 153.666 142.049 154.492 142.049 155.472C142.049 155.509 142.049 155.551 142.049 155.598C142.049 155.645 142.049 155.687 142.049 155.724H139.039C139.039 155.687 139.039 155.654 139.039 155.626C139.039 155.598 139.039 155.565 139.039 155.528C139.039 155.043 138.885 154.646 138.577 154.338C138.269 154.03 137.868 153.801 137.373 153.652C136.888 153.493 136.37 153.414 135.819 153.414C135.315 153.414 134.807 153.47 134.293 153.582C133.789 153.685 133.369 153.867 133.033 154.128C132.697 154.38 132.529 154.725 132.529 155.164C132.529 155.612 132.693 155.971 133.019 156.242C133.346 156.503 133.808 156.723 134.405 156.9C135.003 157.068 135.698 157.222 136.491 157.362C137.219 157.493 137.929 157.661 138.619 157.866C139.31 158.062 139.931 158.323 140.481 158.65C141.041 158.977 141.485 159.397 141.811 159.91C142.147 160.423 142.315 161.053 142.315 161.8C142.315 162.575 142.138 163.242 141.783 163.802C141.429 164.362 140.943 164.829 140.327 165.202C139.721 165.566 139.025 165.837 138.241 166.014C137.467 166.201 136.65 166.294 135.791 166.294ZM152.62 166V145.35H155.616V166H152.62ZM170.136 166V159.14C170.136 158.739 170.136 158.398 170.136 158.118C170.136 157.838 170.136 157.577 170.136 157.334C170.136 156.606 170.024 155.967 169.8 155.416C169.576 154.856 169.208 154.422 168.694 154.114C168.181 153.797 167.495 153.638 166.636 153.638C165.88 153.638 165.194 153.825 164.578 154.198C163.972 154.571 163.486 155.08 163.122 155.724C162.768 156.359 162.59 157.082 162.59 157.894L161.288 157.25C161.288 156.046 161.573 154.968 162.142 154.016C162.712 153.055 163.472 152.294 164.424 151.734C165.386 151.174 166.436 150.894 167.574 150.894C168.75 150.894 169.754 151.123 170.584 151.58C171.424 152.028 172.064 152.672 172.502 153.512C172.95 154.343 173.174 155.337 173.174 156.494C173.174 156.923 173.174 157.399 173.174 157.922C173.174 158.445 173.174 158.949 173.174 159.434V166H170.136ZM159.552 166V151.132H162.59V166H159.552ZM184.208 166.294C182.714 166.294 181.375 165.981 180.19 165.356C179.014 164.721 178.085 163.821 177.404 162.654C176.732 161.487 176.396 160.115 176.396 158.538C176.396 156.961 176.732 155.603 177.404 154.464C178.085 153.316 179.014 152.434 180.19 151.818C181.375 151.202 182.714 150.894 184.208 150.894C185.337 150.894 186.34 151.067 187.218 151.412C188.095 151.748 188.837 152.196 189.444 152.756C190.05 153.316 190.512 153.932 190.83 154.604C191.147 155.276 191.306 155.948 191.306 156.62C191.306 156.629 191.306 156.643 191.306 156.662C191.306 156.681 191.306 156.699 191.306 156.718H188.296C188.296 156.671 188.291 156.62 188.282 156.564C188.272 156.499 188.263 156.438 188.254 156.382C188.179 155.831 187.964 155.341 187.61 154.912C187.255 154.483 186.788 154.142 186.21 153.89C185.631 153.638 184.954 153.512 184.18 153.512C183.33 153.512 182.546 153.699 181.828 154.072C181.118 154.436 180.549 154.991 180.12 155.738C179.69 156.485 179.476 157.418 179.476 158.538C179.476 159.658 179.686 160.601 180.106 161.366C180.535 162.122 181.104 162.696 181.814 163.088C182.532 163.48 183.321 163.676 184.18 163.676C185.104 163.676 185.86 163.536 186.448 163.256C187.036 162.967 187.479 162.584 187.778 162.108C188.076 161.623 188.249 161.1 188.296 160.54H191.306C191.306 161.212 191.152 161.893 190.844 162.584C190.536 163.265 190.083 163.886 189.486 164.446C188.888 165.006 188.146 165.454 187.26 165.79C186.382 166.126 185.365 166.294 184.208 166.294ZM197.868 144.118V166H194.872V144.118H197.868ZM207.353 166.266C206.299 166.266 205.421 166.089 204.721 165.734C204.021 165.37 203.466 164.899 203.055 164.32C202.645 163.732 202.355 163.093 202.187 162.402C202.019 161.702 201.935 161.021 201.935 160.358C201.935 160.013 201.935 159.653 201.935 159.28C201.935 158.897 201.935 158.515 201.935 158.132V151.132H204.987V157.698C204.987 158.034 204.987 158.365 204.987 158.692C204.987 159.009 204.987 159.308 204.987 159.588C204.987 160.307 205.081 160.969 205.267 161.576C205.454 162.173 205.781 162.659 206.247 163.032C206.723 163.396 207.386 163.578 208.235 163.578C209.029 163.578 209.719 163.345 210.307 162.878C210.895 162.402 211.353 161.805 211.679 161.086C212.006 160.358 212.169 159.63 212.169 158.902L213.499 159.616C213.499 160.475 213.355 161.301 213.065 162.094C212.785 162.887 212.379 163.601 211.847 164.236C211.315 164.861 210.667 165.356 209.901 165.72C209.145 166.084 208.296 166.266 207.353 166.266ZM212.169 166V151.132H215.207V166H212.169ZM225.212 166.294C223.99 166.294 222.865 166 221.838 165.412C220.812 164.815 219.99 163.937 219.374 162.78C218.758 161.623 218.45 160.209 218.45 158.538C218.45 156.905 218.763 155.519 219.388 154.38C220.014 153.241 220.84 152.378 221.866 151.79C222.893 151.193 224.008 150.894 225.212 150.894C226.37 150.894 227.443 151.174 228.432 151.734C229.431 152.294 230.234 153.073 230.84 154.072C231.447 155.061 231.75 156.205 231.75 157.502C231.75 157.539 231.75 157.577 231.75 157.614C231.75 157.642 231.75 157.67 231.75 157.698L229.986 157.754C229.986 157.726 229.986 157.698 229.986 157.67C229.986 157.633 229.986 157.6 229.986 157.572C229.986 156.797 229.79 156.111 229.398 155.514C229.006 154.907 228.488 154.431 227.844 154.086C227.21 153.731 226.533 153.554 225.814 153.554C224.61 153.554 223.602 153.96 222.79 154.772C221.978 155.575 221.572 156.83 221.572 158.538C221.572 160.237 221.978 161.497 222.79 162.318C223.612 163.13 224.62 163.536 225.814 163.536C226.561 163.536 227.252 163.359 227.886 163.004C228.521 162.64 229.03 162.145 229.412 161.52C229.795 160.895 229.986 160.181 229.986 159.378L231.75 159.448C231.75 160.736 231.456 161.898 230.868 162.934C230.29 163.97 229.506 164.791 228.516 165.398C227.536 165.995 226.435 166.294 225.212 166.294ZM229.986 166V144.118H233.038V166H229.986ZM238.013 159.63V157.264H248.961L248.541 157.964C248.541 157.908 248.541 157.852 248.541 157.796C248.541 157.731 248.541 157.675 248.541 157.628C248.541 156.872 248.378 156.177 248.051 155.542C247.725 154.898 247.235 154.385 246.581 154.002C245.937 153.61 245.13 153.414 244.159 153.414C243.189 153.414 242.335 153.624 241.597 154.044C240.869 154.455 240.3 155.043 239.889 155.808C239.488 156.564 239.287 157.474 239.287 158.538C239.287 159.621 239.483 160.554 239.875 161.338C240.267 162.113 240.832 162.71 241.569 163.13C242.307 163.55 243.189 163.76 244.215 163.76C244.934 163.76 245.555 163.69 246.077 163.55C246.609 163.401 247.043 163.205 247.379 162.962C247.725 162.719 247.986 162.458 248.163 162.178C248.341 161.889 248.443 161.604 248.471 161.324H251.495C251.439 161.931 251.239 162.533 250.893 163.13C250.557 163.718 250.077 164.255 249.451 164.74C248.835 165.216 248.079 165.599 247.183 165.888C246.297 166.168 245.275 166.308 244.117 166.308C242.568 166.308 241.21 165.981 240.043 165.328C238.877 164.675 237.967 163.769 237.313 162.612C236.66 161.445 236.333 160.111 236.333 158.608C236.333 157.077 236.665 155.733 237.327 154.576C237.99 153.419 238.909 152.518 240.085 151.874C241.261 151.221 242.61 150.894 244.131 150.894C245.681 150.894 247.02 151.221 248.149 151.874C249.288 152.527 250.165 153.428 250.781 154.576C251.397 155.724 251.705 157.045 251.705 158.538C251.705 158.715 251.701 158.921 251.691 159.154C251.682 159.387 251.668 159.546 251.649 159.63H238.013ZM261.252 166.294C260.029 166.294 258.904 166 257.878 165.412C256.851 164.815 256.03 163.937 255.414 162.78C254.798 161.623 254.49 160.209 254.49 158.538C254.49 156.905 254.802 155.519 255.428 154.38C256.053 153.241 256.879 152.378 257.906 151.79C258.932 151.193 260.048 150.894 261.252 150.894C262.409 150.894 263.482 151.174 264.472 151.734C265.47 152.294 266.273 153.073 266.88 154.072C267.486 155.061 267.79 156.205 267.79 157.502C267.79 157.539 267.79 157.577 267.79 157.614C267.79 157.642 267.79 157.67 267.79 157.698L266.026 157.754C266.026 157.726 266.026 157.698 266.026 157.67C266.026 157.633 266.026 157.6 266.026 157.572C266.026 156.797 265.83 156.111 265.438 155.514C265.046 154.907 264.528 154.431 263.884 154.086C263.249 153.731 262.572 153.554 261.854 153.554C260.65 153.554 259.642 153.96 258.83 154.772C258.018 155.575 257.612 156.83 257.612 158.538C257.612 160.237 258.018 161.497 258.83 162.318C259.651 163.13 260.659 163.536 261.854 163.536C262.6 163.536 263.291 163.359 263.926 163.004C264.56 162.64 265.069 162.145 265.452 161.52C265.834 160.895 266.026 160.181 266.026 159.378L267.79 159.448C267.79 160.736 267.496 161.898 266.908 162.934C266.329 163.97 265.545 164.791 264.556 165.398C263.576 165.995 262.474 166.294 261.252 166.294ZM266.026 166V144.118H269.078V166H266.026Z" fill="black"/>
<path d="M19.1811 192.25C20.0944 192.25 20.8678 192.377 21.5011 192.63C22.1411 192.877 22.6278 193.26 22.9611 193.78C23.3011 194.3 23.4711 194.96 23.4711 195.76C23.4711 196.52 23.3144 197.157 23.0011 197.67C22.6944 198.177 22.2978 198.563 21.8111 198.83C21.3311 199.09 20.8311 199.233 20.3111 199.26C20.8778 199.273 21.4278 199.403 21.9611 199.65C22.4944 199.89 22.9311 200.277 23.2711 200.81C23.6178 201.337 23.7911 202.04 23.7911 202.92C23.7911 203.78 23.6178 204.517 23.2711 205.13C22.9311 205.737 22.4144 206.2 21.7211 206.52C21.0278 206.84 20.1544 207 19.1011 207H14.2811V192.25H19.1811ZM15.9311 199.15L15.3511 198.57H18.3811C19.4478 198.57 20.2778 198.357 20.8711 197.93C21.4644 197.497 21.7611 196.86 21.7611 196.02C21.7611 195.46 21.6378 195.017 21.3911 194.69C21.1444 194.357 20.7944 194.117 20.3411 193.97C19.8944 193.823 19.3711 193.75 18.7711 193.75H15.1611L15.9311 192.78V199.15ZM18.7711 205.5C19.7844 205.5 20.5844 205.277 21.1711 204.83C21.7578 204.383 22.0511 203.717 22.0511 202.83C22.0511 202.29 21.9544 201.843 21.7611 201.49C21.5678 201.13 21.3044 200.847 20.9711 200.64C20.6378 200.433 20.2544 200.287 19.8211 200.2C19.3944 200.107 18.9444 200.06 18.4711 200.06H15.3511L15.9311 199.48V206.47L15.1611 205.5H18.7711ZM26.6495 207V196.38H28.3295V207H26.6495ZM27.4995 193.94C27.1862 193.94 26.9129 193.853 26.6795 193.68C26.4529 193.5 26.3395 193.257 26.3395 192.95C26.3395 192.65 26.4529 192.413 26.6795 192.24C26.9129 192.06 27.1862 191.97 27.4995 191.97C27.8129 191.97 28.0829 192.06 28.3095 192.24C28.5362 192.413 28.6495 192.65 28.6495 192.95C28.6495 193.257 28.5362 193.5 28.3095 193.68C28.0829 193.853 27.8129 193.94 27.4995 193.94ZM33.3209 191.37V207H31.6409V191.37H33.3209ZM38.2623 191.37V207H36.5823V191.37H38.2623ZM45.4338 207.2C44.7938 207.2 44.2004 207.133 43.6538 207C43.1138 206.86 42.6404 206.66 42.2338 206.4C41.8338 206.133 41.5204 205.807 41.2938 205.42C41.0738 205.033 40.9638 204.59 40.9638 204.09C40.9638 204.037 40.9638 203.983 40.9638 203.93C40.9638 203.87 40.9638 203.82 40.9638 203.78H42.6738C42.6738 203.82 42.6738 203.853 42.6738 203.88C42.6738 203.907 42.6738 203.947 42.6738 204C42.6738 204.54 42.9238 204.953 43.4238 205.24C43.9238 205.52 44.6071 205.66 45.4738 205.66C46.0071 205.66 46.4838 205.607 46.9038 205.5C47.3238 205.393 47.6538 205.23 47.8938 205.01C48.1404 204.79 48.2638 204.513 48.2638 204.18C48.2638 203.627 48.0038 203.233 47.4838 203C46.9704 202.76 46.2004 202.553 45.1738 202.38C44.6338 202.287 44.1204 202.167 43.6338 202.02C43.1471 201.867 42.7138 201.67 42.3338 201.43C41.9604 201.19 41.6638 200.893 41.4438 200.54C41.2304 200.18 41.1238 199.75 41.1238 199.25C41.1238 198.603 41.3138 198.057 41.6938 197.61C42.0804 197.157 42.6004 196.813 43.2538 196.58C43.9071 196.34 44.6338 196.22 45.4338 196.22C46.2071 196.22 46.9204 196.343 47.5738 196.59C48.2271 196.837 48.7504 197.197 49.1438 197.67C49.5438 198.137 49.7438 198.713 49.7438 199.4C49.7438 199.427 49.7438 199.46 49.7438 199.5C49.7438 199.533 49.7438 199.567 49.7438 199.6H48.0438C48.0438 199.567 48.0438 199.54 48.0438 199.52C48.0438 199.5 48.0438 199.477 48.0438 199.45C48.0438 199.063 47.9204 198.747 47.6738 198.5C47.4271 198.247 47.1071 198.06 46.7138 197.94C46.3204 197.813 45.9004 197.75 45.4538 197.75C45.0338 197.75 44.6204 197.797 44.2138 197.89C43.8071 197.977 43.4704 198.123 43.2038 198.33C42.9371 198.537 42.8038 198.82 42.8038 199.18C42.8038 199.54 42.9271 199.83 43.1738 200.05C43.4271 200.263 43.7804 200.44 44.2338 200.58C44.6938 200.713 45.2338 200.837 45.8538 200.95C46.4071 201.05 46.9304 201.177 47.4238 201.33C47.9171 201.477 48.3504 201.667 48.7238 201.9C49.1038 202.133 49.4004 202.43 49.6138 202.79C49.8338 203.143 49.9437 203.577 49.9437 204.09C49.9437 204.61 49.8238 205.063 49.5838 205.45C49.3504 205.837 49.0238 206.16 48.6038 206.42C48.1904 206.68 47.7104 206.873 47.1638 207C46.6238 207.133 46.0471 207.2 45.4338 207.2ZM61.2947 207.2C60.488 207.2 59.7814 207.073 59.1747 206.82C58.5747 206.567 58.108 206.203 57.7747 205.73C57.4414 205.25 57.2747 204.677 57.2747 204.01C57.2747 203.317 57.4547 202.74 57.8147 202.28C58.1747 201.813 58.6814 201.45 59.3347 201.19C59.988 200.93 60.748 200.757 61.6147 200.67C62.9214 200.537 63.8514 200.407 64.4047 200.28C64.958 200.147 65.2347 199.933 65.2347 199.64C65.2347 199.633 65.2347 199.63 65.2347 199.63C65.2347 199.623 65.2347 199.617 65.2347 199.61C65.2347 198.997 64.9847 198.54 64.4847 198.24C63.9847 197.933 63.2614 197.78 62.3147 197.78C61.328 197.78 60.5614 197.953 60.0147 198.3C59.468 198.64 59.1947 199.193 59.1947 199.96H57.5147C57.5147 199.167 57.718 198.493 58.1247 197.94C58.5314 197.38 59.0947 196.953 59.8147 196.66C60.5414 196.367 61.378 196.22 62.3247 196.22C63.1914 196.22 63.9714 196.353 64.6647 196.62C65.3647 196.88 65.918 197.27 66.3247 197.79C66.738 198.303 66.9447 198.94 66.9447 199.7C66.9447 199.84 66.9447 199.98 66.9447 200.12C66.9447 200.253 66.9447 200.39 66.9447 200.53V205C66.9447 205.233 66.9547 205.46 66.9747 205.68C66.9947 205.9 67.028 206.093 67.0747 206.26C67.1347 206.46 67.2014 206.623 67.2747 206.75C67.348 206.87 67.408 206.953 67.4547 207H65.7447C65.7114 206.967 65.6614 206.89 65.5947 206.77C65.528 206.643 65.4647 206.497 65.4047 206.33C65.358 206.197 65.3214 206.03 65.2947 205.83C65.268 205.623 65.2547 205.41 65.2547 205.19L65.5347 205.38C65.328 205.74 65.0247 206.057 64.6247 206.33C64.2314 206.603 63.7547 206.817 63.1947 206.97C62.6347 207.123 62.0014 207.2 61.2947 207.2ZM61.5647 205.67C62.2514 205.67 62.8714 205.567 63.4247 205.36C63.978 205.147 64.418 204.833 64.7447 204.42C65.0714 204.007 65.2347 203.493 65.2347 202.88V200.77L65.6147 201.41C65.188 201.577 64.6547 201.713 64.0147 201.82C63.3814 201.92 62.718 202.003 62.0247 202.07C61.018 202.163 60.258 202.34 59.7447 202.6C59.238 202.86 58.9847 203.297 58.9847 203.91C58.9847 204.49 59.1947 204.93 59.6147 205.23C60.0347 205.523 60.6847 205.67 61.5647 205.67ZM69.7722 207V196.38H71.4722V199.64L70.9122 199.44C70.9522 199.047 71.0522 198.66 71.2122 198.28C71.3722 197.893 71.5922 197.547 71.8722 197.24C72.1589 196.927 72.5155 196.68 72.9422 196.5C73.3689 196.313 73.8689 196.22 74.4422 196.22C74.8689 196.22 75.2155 196.257 75.4822 196.33C75.7555 196.397 75.9255 196.45 75.9922 196.49L75.5522 198.16C75.4855 198.113 75.3489 198.053 75.1422 197.98C74.9422 197.907 74.6555 197.87 74.2822 197.87C73.7289 197.87 73.2689 197.97 72.9022 198.17C72.5422 198.37 72.2555 198.637 72.0422 198.97C71.8355 199.297 71.6889 199.653 71.6022 200.04C71.5155 200.427 71.4722 200.81 71.4722 201.19V207H69.7722ZM78.1738 202.37V200.85H86.3838L86.0838 201.35C86.0838 201.31 86.0838 201.273 86.0838 201.24C86.0838 201.2 86.0838 201.163 86.0838 201.13C86.0838 200.517 85.9538 199.957 85.6938 199.45C85.4404 198.937 85.0604 198.527 84.5538 198.22C84.0471 197.913 83.4204 197.76 82.6738 197.76C81.9204 197.76 81.2571 197.92 80.6838 198.24C80.1104 198.56 79.6638 199.013 79.3438 199.6C79.0238 200.18 78.8638 200.873 78.8638 201.68C78.8638 202.5 79.0171 203.207 79.3238 203.8C79.6371 204.393 80.0804 204.85 80.6538 205.17C81.2271 205.49 81.9071 205.65 82.6938 205.65C83.2538 205.65 83.7404 205.593 84.1538 205.48C84.5671 205.36 84.9071 205.203 85.1738 205.01C85.4471 204.81 85.6538 204.593 85.7938 204.36C85.9338 204.127 86.0171 203.893 86.0438 203.66H87.7438C87.7104 204.087 87.5771 204.51 87.3438 204.93C87.1104 205.35 86.7804 205.733 86.3538 206.08C85.9271 206.42 85.4038 206.693 84.7838 206.9C84.1638 207.107 83.4504 207.21 82.6438 207.21C81.5771 207.21 80.6371 206.977 79.8238 206.51C79.0104 206.043 78.3704 205.397 77.9038 204.57C77.4438 203.743 77.2138 202.793 77.2138 201.72C77.2138 200.633 77.4471 199.68 77.9138 198.86C78.3804 198.033 79.0238 197.387 79.8438 196.92C80.6638 196.453 81.6004 196.22 82.6538 196.22C83.7271 196.22 84.6571 196.453 85.4438 196.92C86.2304 197.387 86.8371 198.027 87.2638 198.84C87.6904 199.647 87.9038 200.567 87.9038 201.6C87.9038 201.707 87.9004 201.847 87.8938 202.02C87.8871 202.193 87.8771 202.31 87.8638 202.37H78.1738ZM95.6534 207V196.38H97.3334V207H95.6534ZM96.5034 193.94C96.1901 193.94 95.9168 193.853 95.6834 193.68C95.4568 193.5 95.3434 193.257 95.3434 192.95C95.3434 192.65 95.4568 192.413 95.6834 192.24C95.9168 192.06 96.1901 191.97 96.5034 191.97C96.8168 191.97 97.0868 192.06 97.3134 192.24C97.5401 192.413 97.6534 192.65 97.6534 192.95C97.6534 193.257 97.5401 193.5 97.3134 193.68C97.0868 193.853 96.8168 193.94 96.5034 193.94ZM108.095 207V201.91C108.095 201.603 108.095 201.353 108.095 201.16C108.095 200.96 108.095 200.77 108.095 200.59C108.095 200.037 108.002 199.553 107.815 199.14C107.628 198.727 107.335 198.407 106.935 198.18C106.535 197.953 106.012 197.84 105.365 197.84C104.798 197.84 104.272 197.987 103.785 198.28C103.305 198.567 102.918 198.957 102.625 199.45C102.338 199.937 102.195 200.483 102.195 201.09L101.225 200.72C101.225 199.887 101.428 199.13 101.835 198.45C102.248 197.77 102.795 197.23 103.475 196.83C104.162 196.423 104.908 196.22 105.715 196.22C106.535 196.22 107.252 196.377 107.865 196.69C108.478 197.003 108.952 197.453 109.285 198.04C109.625 198.62 109.795 199.32 109.795 200.14C109.795 200.433 109.795 200.753 109.795 201.1C109.795 201.447 109.795 201.77 109.795 202.07V207H108.095ZM100.495 207V196.38H102.195V207H100.495ZM117.8 207.2C116.787 207.2 115.867 206.98 115.04 206.54C114.214 206.093 113.557 205.457 113.07 204.63C112.59 203.803 112.35 202.82 112.35 201.68C112.35 200.54 112.59 199.563 113.07 198.75C113.557 197.93 114.214 197.303 115.04 196.87C115.867 196.437 116.787 196.22 117.8 196.22C118.574 196.22 119.264 196.34 119.87 196.58C120.477 196.813 120.99 197.127 121.41 197.52C121.83 197.913 122.15 198.347 122.37 198.82C122.597 199.287 122.71 199.753 122.71 200.22C122.71 200.227 122.71 200.237 122.71 200.25C122.71 200.263 122.71 200.277 122.71 200.29H121.02C121.02 200.257 121.017 200.22 121.01 200.18C121.004 200.133 120.997 200.087 120.99 200.04C120.937 199.593 120.767 199.203 120.48 198.87C120.194 198.53 119.82 198.263 119.36 198.07C118.9 197.877 118.377 197.78 117.79 197.78C117.13 197.78 116.517 197.923 115.95 198.21C115.39 198.49 114.937 198.92 114.59 199.5C114.25 200.073 114.08 200.8 114.08 201.68C114.08 202.553 114.25 203.283 114.59 203.87C114.93 204.457 115.38 204.9 115.94 205.2C116.507 205.493 117.124 205.64 117.79 205.64C118.51 205.64 119.104 205.527 119.57 205.3C120.037 205.073 120.387 204.773 120.62 204.4C120.86 204.02 120.994 203.613 121.02 203.18H122.71C122.71 203.66 122.604 204.14 122.39 204.62C122.177 205.093 121.864 205.527 121.45 205.92C121.037 206.307 120.524 206.617 119.91 206.85C119.304 207.083 118.6 207.2 117.8 207.2ZM127.188 191.37V207H125.508V191.37H127.188ZM134.22 207.19C133.46 207.19 132.826 207.06 132.32 206.8C131.813 206.533 131.41 206.19 131.11 205.77C130.816 205.35 130.606 204.897 130.48 204.41C130.36 203.917 130.3 203.443 130.3 202.99C130.3 202.737 130.3 202.477 130.3 202.21C130.3 201.937 130.3 201.663 130.3 201.39V196.38H132.01V201.17C132.01 201.417 132.01 201.66 132.01 201.9C132.01 202.14 132.01 202.367 132.01 202.58C132.01 203.12 132.083 203.62 132.23 204.08C132.383 204.54 132.646 204.913 133.02 205.2C133.393 205.48 133.906 205.62 134.56 205.62C135.173 205.62 135.71 205.437 136.17 205.07C136.63 204.697 136.99 204.233 137.25 203.68C137.51 203.12 137.64 202.563 137.64 202.01L138.63 202.42C138.63 203.007 138.526 203.583 138.32 204.15C138.113 204.71 137.816 205.22 137.43 205.68C137.05 206.14 136.586 206.507 136.04 206.78C135.5 207.053 134.893 207.19 134.22 207.19ZM137.64 207V196.38H139.34V207H137.64ZM146.672 207.2C145.798 207.2 144.998 206.99 144.272 206.57C143.545 206.143 142.965 205.52 142.532 204.7C142.098 203.873 141.882 202.867 141.882 201.68C141.882 200.513 142.102 199.523 142.542 198.71C142.982 197.897 143.565 197.28 144.292 196.86C145.018 196.433 145.812 196.22 146.672 196.22C147.492 196.22 148.258 196.417 148.972 196.81C149.692 197.197 150.272 197.737 150.712 198.43C151.152 199.123 151.372 199.927 151.372 200.84C151.372 200.86 151.372 200.88 151.372 200.9C151.372 200.92 151.372 200.94 151.372 200.96L150.152 201.01C150.152 200.99 150.152 200.97 150.152 200.95C150.152 200.923 150.152 200.9 150.152 200.88C150.152 200.3 149.998 199.777 149.692 199.31C149.392 198.843 148.995 198.473 148.502 198.2C148.008 197.92 147.478 197.78 146.912 197.78C145.965 197.78 145.182 198.1 144.562 198.74C143.942 199.373 143.632 200.353 143.632 201.68C143.632 203 143.942 203.983 144.562 204.63C145.188 205.27 145.972 205.59 146.912 205.59C147.505 205.59 148.045 205.447 148.532 205.16C149.025 204.873 149.418 204.49 149.712 204.01C150.005 203.523 150.152 202.98 150.152 202.38L151.372 202.41C151.372 203.317 151.162 204.133 150.742 204.86C150.322 205.58 149.755 206.15 149.042 206.57C148.335 206.99 147.545 207.2 146.672 207.2ZM150.152 207V191.37H151.862V207H150.152ZM155.4 202.37V200.85H163.61L163.31 201.35C163.31 201.31 163.31 201.273 163.31 201.24C163.31 201.2 163.31 201.163 163.31 201.13C163.31 200.517 163.18 199.957 162.92 199.45C162.667 198.937 162.287 198.527 161.78 198.22C161.274 197.913 160.647 197.76 159.9 197.76C159.147 197.76 158.484 197.92 157.91 198.24C157.337 198.56 156.89 199.013 156.57 199.6C156.25 200.18 156.09 200.873 156.09 201.68C156.09 202.5 156.244 203.207 156.55 203.8C156.864 204.393 157.307 204.85 157.88 205.17C158.454 205.49 159.134 205.65 159.92 205.65C160.48 205.65 160.967 205.593 161.38 205.48C161.794 205.36 162.134 205.203 162.4 205.01C162.674 204.81 162.88 204.593 163.02 204.36C163.16 204.127 163.244 203.893 163.27 203.66H164.97C164.937 204.087 164.804 204.51 164.57 204.93C164.337 205.35 164.007 205.733 163.58 206.08C163.154 206.42 162.63 206.693 162.01 206.9C161.39 207.107 160.677 207.21 159.87 207.21C158.804 207.21 157.864 206.977 157.05 206.51C156.237 206.043 155.597 205.397 155.13 204.57C154.67 203.743 154.44 202.793 154.44 201.72C154.44 200.633 154.674 199.68 155.14 198.86C155.607 198.033 156.25 197.387 157.07 196.92C157.89 196.453 158.827 196.22 159.88 196.22C160.954 196.22 161.884 196.453 162.67 196.92C163.457 197.387 164.064 198.027 164.49 198.84C164.917 199.647 165.13 200.567 165.13 201.6C165.13 201.707 165.127 201.847 165.12 202.02C165.114 202.193 165.104 202.31 165.09 202.37H155.4ZM172.16 207.2C171.287 207.2 170.487 206.99 169.76 206.57C169.033 206.143 168.453 205.52 168.02 204.7C167.587 203.873 167.37 202.867 167.37 201.68C167.37 200.513 167.59 199.523 168.03 198.71C168.47 197.897 169.053 197.28 169.78 196.86C170.507 196.433 171.3 196.22 172.16 196.22C172.98 196.22 173.747 196.417 174.46 196.81C175.18 197.197 175.76 197.737 176.2 198.43C176.64 199.123 176.86 199.927 176.86 200.84C176.86 200.86 176.86 200.88 176.86 200.9C176.86 200.92 176.86 200.94 176.86 200.96L175.64 201.01C175.64 200.99 175.64 200.97 175.64 200.95C175.64 200.923 175.64 200.9 175.64 200.88C175.64 200.3 175.487 199.777 175.18 199.31C174.88 198.843 174.483 198.473 173.99 198.2C173.497 197.92 172.967 197.78 172.4 197.78C171.453 197.78 170.67 198.1 170.05 198.74C169.43 199.373 169.12 200.353 169.12 201.68C169.12 203 169.43 203.983 170.05 204.63C170.677 205.27 171.46 205.59 172.4 205.59C172.993 205.59 173.533 205.447 174.02 205.16C174.513 204.873 174.907 204.49 175.2 204.01C175.493 203.523 175.64 202.98 175.64 202.38L176.86 202.41C176.86 203.317 176.65 204.133 176.23 204.86C175.81 205.58 175.243 206.15 174.53 206.57C173.823 206.99 173.033 207.2 172.16 207.2ZM175.64 207V191.37H177.35V207H175.64ZM185.439 207V196.38H187.119V207H185.439ZM186.289 193.94C185.975 193.94 185.702 193.853 185.469 193.68C185.242 193.5 185.129 193.257 185.129 192.95C185.129 192.65 185.242 192.413 185.469 192.24C185.702 192.06 185.975 191.97 186.289 191.97C186.602 191.97 186.872 192.06 187.099 192.24C187.325 192.413 187.439 192.65 187.439 192.95C187.439 193.257 187.325 193.5 187.099 193.68C186.872 193.853 186.602 193.94 186.289 193.94ZM197.88 207V201.91C197.88 201.603 197.88 201.353 197.88 201.16C197.88 200.96 197.88 200.77 197.88 200.59C197.88 200.037 197.787 199.553 197.6 199.14C197.413 198.727 197.12 198.407 196.72 198.18C196.32 197.953 195.797 197.84 195.15 197.84C194.583 197.84 194.057 197.987 193.57 198.28C193.09 198.567 192.703 198.957 192.41 199.45C192.123 199.937 191.98 200.483 191.98 201.09L191.01 200.72C191.01 199.887 191.213 199.13 191.62 198.45C192.033 197.77 192.58 197.23 193.26 196.83C193.947 196.423 194.693 196.22 195.5 196.22C196.32 196.22 197.037 196.377 197.65 196.69C198.263 197.003 198.737 197.453 199.07 198.04C199.41 198.62 199.58 199.32 199.58 200.14C199.58 200.433 199.58 200.753 199.58 201.1C199.58 201.447 199.58 201.77 199.58 202.07V207H197.88ZM190.28 207V196.38H191.98V207H190.28ZM211.256 207.2C210.449 207.2 209.742 207.073 209.136 206.82C208.536 206.567 208.069 206.203 207.736 205.73C207.402 205.25 207.236 204.677 207.236 204.01C207.236 203.317 207.416 202.74 207.776 202.28C208.136 201.813 208.642 201.45 209.296 201.19C209.949 200.93 210.709 200.757 211.576 200.67C212.882 200.537 213.812 200.407 214.366 200.28C214.919 200.147 215.196 199.933 215.196 199.64C215.196 199.633 215.196 199.63 215.196 199.63C215.196 199.623 215.196 199.617 215.196 199.61C215.196 198.997 214.946 198.54 214.446 198.24C213.946 197.933 213.222 197.78 212.276 197.78C211.289 197.78 210.522 197.953 209.976 198.3C209.429 198.64 209.156 199.193 209.156 199.96H207.476C207.476 199.167 207.679 198.493 208.086 197.94C208.492 197.38 209.056 196.953 209.776 196.66C210.502 196.367 211.339 196.22 212.286 196.22C213.152 196.22 213.932 196.353 214.626 196.62C215.326 196.88 215.879 197.27 216.286 197.79C216.699 198.303 216.906 198.94 216.906 199.7C216.906 199.84 216.906 199.98 216.906 200.12C216.906 200.253 216.906 200.39 216.906 200.53V205C216.906 205.233 216.916 205.46 216.936 205.68C216.956 205.9 216.989 206.093 217.036 206.26C217.096 206.46 217.162 206.623 217.236 206.75C217.309 206.87 217.369 206.953 217.416 207H215.706C215.672 206.967 215.622 206.89 215.556 206.77C215.489 206.643 215.426 206.497 215.366 206.33C215.319 206.197 215.282 206.03 215.256 205.83C215.229 205.623 215.216 205.41 215.216 205.19L215.496 205.38C215.289 205.74 214.986 206.057 214.586 206.33C214.192 206.603 213.716 206.817 213.156 206.97C212.596 207.123 211.962 207.2 211.256 207.2ZM211.526 205.67C212.212 205.67 212.832 205.567 213.386 205.36C213.939 205.147 214.379 204.833 214.706 204.42C215.032 204.007 215.196 203.493 215.196 202.88V200.77L215.576 201.41C215.149 201.577 214.616 201.713 213.976 201.82C213.342 201.92 212.679 202.003 211.986 202.07C210.979 202.163 210.219 202.34 209.706 202.6C209.199 202.86 208.946 203.297 208.946 203.91C208.946 204.49 209.156 204.93 209.576 205.23C209.996 205.523 210.646 205.67 211.526 205.67ZM221.563 191.37V207H219.883V191.37H221.563ZM226.505 191.37V207H224.825V191.37H226.505ZM234.616 207V196.38H236.316V199.64L235.756 199.44C235.796 199.047 235.896 198.66 236.056 198.28C236.216 197.893 236.436 197.547 236.716 197.24C237.003 196.927 237.359 196.68 237.786 196.5C238.213 196.313 238.713 196.22 239.286 196.22C239.713 196.22 240.059 196.257 240.326 196.33C240.599 196.397 240.769 196.45 240.836 196.49L240.396 198.16C240.329 198.113 240.193 198.053 239.986 197.98C239.786 197.907 239.499 197.87 239.126 197.87C238.573 197.87 238.113 197.97 237.746 198.17C237.386 198.37 237.099 198.637 236.886 198.97C236.679 199.297 236.533 199.653 236.446 200.04C236.359 200.427 236.316 200.81 236.316 201.19V207H234.616ZM243.018 202.37V200.85H251.228L250.928 201.35C250.928 201.31 250.928 201.273 250.928 201.24C250.928 201.2 250.928 201.163 250.928 201.13C250.928 200.517 250.798 199.957 250.538 199.45C250.284 198.937 249.904 198.527 249.398 198.22C248.891 197.913 248.264 197.76 247.518 197.76C246.764 197.76 246.101 197.92 245.528 198.24C244.954 198.56 244.508 199.013 244.188 199.6C243.868 200.18 243.708 200.873 243.708 201.68C243.708 202.5 243.861 203.207 244.168 203.8C244.481 204.393 244.924 204.85 245.498 205.17C246.071 205.49 246.751 205.65 247.538 205.65C248.098 205.65 248.584 205.593 248.998 205.48C249.411 205.36 249.751 205.203 250.018 205.01C250.291 204.81 250.498 204.593 250.638 204.36C250.778 204.127 250.861 203.893 250.888 203.66H252.588C252.554 204.087 252.421 204.51 252.188 204.93C251.954 205.35 251.624 205.733 251.198 206.08C250.771 206.42 250.248 206.693 249.628 206.9C249.008 207.107 248.294 207.21 247.488 207.21C246.421 207.21 245.481 206.977 244.668 206.51C243.854 206.043 243.214 205.397 242.748 204.57C242.288 203.743 242.058 202.793 242.058 201.72C242.058 200.633 242.291 199.68 242.758 198.86C243.224 198.033 243.868 197.387 244.688 196.92C245.508 196.453 246.444 196.22 247.498 196.22C248.571 196.22 249.501 196.453 250.288 196.92C251.074 197.387 251.681 198.027 252.108 198.84C252.534 199.647 252.748 200.567 252.748 201.6C252.748 201.707 252.744 201.847 252.738 202.02C252.731 202.193 252.721 202.31 252.708 202.37H243.018ZM262.997 207V201.91C262.997 201.603 262.997 201.353 262.997 201.16C262.997 200.96 262.997 200.77 262.997 200.59C262.997 200.037 262.904 199.553 262.717 199.14C262.531 198.727 262.237 198.407 261.837 198.18C261.437 197.953 260.914 197.84 260.267 197.84C259.701 197.84 259.174 197.987 258.687 198.28C258.207 198.567 257.821 198.957 257.527 199.45C257.241 199.937 257.097 200.483 257.097 201.09L256.127 200.72C256.127 199.887 256.331 199.13 256.737 198.45C257.151 197.77 257.697 197.23 258.377 196.83C259.064 196.423 259.811 196.22 260.617 196.22C261.437 196.22 262.154 196.377 262.767 196.69C263.381 197.003 263.854 197.453 264.187 198.04C264.527 198.62 264.697 199.32 264.697 200.14C264.697 200.433 264.697 200.753 264.697 201.1C264.697 201.447 264.697 201.77 264.697 202.07V207H262.997ZM255.397 207V196.38H257.097V207H255.397ZM271.57 207.16C271.243 207.16 270.923 207.123 270.61 207.05C270.297 206.977 270.013 206.847 269.76 206.66C269.513 206.467 269.317 206.197 269.17 205.85C269.023 205.497 268.95 205.043 268.95 204.49C268.95 204.35 268.95 204.207 268.95 204.06C268.95 203.907 268.95 203.747 268.95 203.58V197.88H266.36V196.38H268.02C268.247 196.38 268.423 196.373 268.55 196.36C268.677 196.34 268.767 196.297 268.82 196.23C268.88 196.157 268.917 196.047 268.93 195.9C268.943 195.747 268.95 195.537 268.95 195.27V192.86H270.66V196.38H273.98V197.88H270.66V203.03C270.66 203.177 270.66 203.32 270.66 203.46C270.66 203.6 270.66 203.73 270.66 203.85C270.66 204.417 270.727 204.86 270.86 205.18C271 205.5 271.31 205.66 271.79 205.66C271.983 205.66 272.167 205.643 272.34 205.61C272.513 205.577 272.643 205.543 272.73 205.51V206.99C272.617 207.03 272.457 207.067 272.25 207.1C272.05 207.14 271.823 207.16 271.57 207.16ZM281.159 211.37V196.38H282.859V211.37H281.159ZM286.349 207.2C285.529 207.2 284.762 207 284.049 206.6C283.336 206.193 282.756 205.637 282.309 204.93C281.869 204.223 281.649 203.417 281.649 202.51C281.649 202.49 281.649 202.473 281.649 202.46C281.649 202.447 281.649 202.43 281.649 202.41L282.869 202.38C282.869 202.393 282.869 202.41 282.869 202.43C282.869 202.443 282.869 202.457 282.869 202.47C282.869 203.043 283.019 203.567 283.319 204.04C283.626 204.513 284.026 204.89 284.519 205.17C285.012 205.45 285.542 205.59 286.109 205.59C287.049 205.59 287.829 205.27 288.449 204.63C289.076 203.983 289.389 203 289.389 201.68C289.389 200.353 289.079 199.373 288.459 198.74C287.839 198.1 287.056 197.78 286.109 197.78C285.542 197.78 285.012 197.92 284.519 198.2C284.026 198.473 283.626 198.843 283.319 199.31C283.019 199.777 282.869 200.3 282.869 200.88L281.649 200.84C281.649 199.927 281.869 199.123 282.309 198.43C282.756 197.737 283.336 197.197 284.049 196.81C284.762 196.417 285.529 196.22 286.349 196.22C287.209 196.22 288.002 196.433 288.729 196.86C289.456 197.28 290.039 197.897 290.479 198.71C290.919 199.523 291.139 200.513 291.139 201.68C291.139 202.867 290.922 203.873 290.489 204.7C290.056 205.52 289.476 206.143 288.749 206.57C288.022 206.99 287.222 207.2 286.349 207.2ZM293.796 207V196.38H295.496V199.64L294.936 199.44C294.976 199.047 295.076 198.66 295.236 198.28C295.396 197.893 295.616 197.547 295.896 197.24C296.182 196.927 296.539 196.68 296.966 196.5C297.392 196.313 297.892 196.22 298.466 196.22C298.892 196.22 299.239 196.257 299.506 196.33C299.779 196.397 299.949 196.45 300.016 196.49L299.576 198.16C299.509 198.113 299.372 198.053 299.166 197.98C298.966 197.907 298.679 197.87 298.306 197.87C297.752 197.87 297.292 197.97 296.926 198.17C296.566 198.37 296.279 198.637 296.066 198.97C295.859 199.297 295.712 199.653 295.626 200.04C295.539 200.427 295.496 200.81 295.496 201.19V207H293.796ZM301.943 207V196.38H303.623V207H301.943ZM302.793 193.94C302.479 193.94 302.206 193.853 301.973 193.68C301.746 193.5 301.632 193.257 301.632 192.95C301.632 192.65 301.746 192.413 301.973 192.24C302.206 192.06 302.479 191.97 302.793 191.97C303.106 191.97 303.376 192.06 303.603 192.24C303.829 192.413 303.943 192.65 303.943 192.95C303.943 193.257 303.829 193.5 303.603 193.68C303.376 193.853 303.106 193.94 302.793 193.94ZM311.824 207.2C310.811 207.2 309.891 206.98 309.064 206.54C308.237 206.093 307.581 205.457 307.094 204.63C306.614 203.803 306.374 202.82 306.374 201.68C306.374 200.54 306.614 199.563 307.094 198.75C307.581 197.93 308.237 197.303 309.064 196.87C309.891 196.437 310.811 196.22 311.824 196.22C312.597 196.22 313.287 196.34 313.894 196.58C314.501 196.813 315.014 197.127 315.434 197.52C315.854 197.913 316.174 198.347 316.394 198.82C316.621 199.287 316.734 199.753 316.734 200.22C316.734 200.227 316.734 200.237 316.734 200.25C316.734 200.263 316.734 200.277 316.734 200.29H315.044C315.044 200.257 315.041 200.22 315.034 200.18C315.027 200.133 315.021 200.087 315.014 200.04C314.961 199.593 314.791 199.203 314.504 198.87C314.217 198.53 313.844 198.263 313.384 198.07C312.924 197.877 312.401 197.78 311.814 197.78C311.154 197.78 310.541 197.923 309.974 198.21C309.414 198.49 308.961 198.92 308.614 199.5C308.274 200.073 308.104 200.8 308.104 201.68C308.104 202.553 308.274 203.283 308.614 203.87C308.954 204.457 309.404 204.9 309.964 205.2C310.531 205.493 311.147 205.64 311.814 205.64C312.534 205.64 313.127 205.527 313.594 205.3C314.061 205.073 314.411 204.773 314.644 204.4C314.884 204.02 315.017 203.613 315.044 203.18H316.734C316.734 203.66 316.627 204.14 316.414 204.62C316.201 205.093 315.887 205.527 315.474 205.92C315.061 206.307 314.547 206.617 313.934 206.85C313.327 207.083 312.624 207.2 311.824 207.2ZM319.932 202.37V200.85H328.142L327.842 201.35C327.842 201.31 327.842 201.273 327.842 201.24C327.842 201.2 327.842 201.163 327.842 201.13C327.842 200.517 327.712 199.957 327.452 199.45C327.198 198.937 326.818 198.527 326.312 198.22C325.805 197.913 325.178 197.76 324.432 197.76C323.678 197.76 323.015 197.92 322.442 198.24C321.868 198.56 321.422 199.013 321.102 199.6C320.782 200.18 320.622 200.873 320.622 201.68C320.622 202.5 320.775 203.207 321.082 203.8C321.395 204.393 321.838 204.85 322.412 205.17C322.985 205.49 323.665 205.65 324.452 205.65C325.012 205.65 325.498 205.593 325.912 205.48C326.325 205.36 326.665 205.203 326.932 205.01C327.205 204.81 327.412 204.593 327.552 204.36C327.692 204.127 327.775 203.893 327.802 203.66H329.502C329.468 204.087 329.335 204.51 329.102 204.93C328.868 205.35 328.538 205.733 328.112 206.08C327.685 206.42 327.162 206.693 326.542 206.9C325.922 207.107 325.208 207.21 324.402 207.21C323.335 207.21 322.395 206.977 321.582 206.51C320.768 206.043 320.128 205.397 319.662 204.57C319.202 203.743 318.972 202.793 318.972 201.72C318.972 200.633 319.205 199.68 319.672 198.86C320.138 198.033 320.782 197.387 321.602 196.92C322.422 196.453 323.358 196.22 324.412 196.22C325.485 196.22 326.415 196.453 327.202 196.92C327.988 197.387 328.595 198.027 329.022 198.84C329.448 199.647 329.662 200.567 329.662 201.6C329.662 201.707 329.658 201.847 329.652 202.02C329.645 202.193 329.635 202.31 329.622 202.37H319.932ZM336.371 207.2C335.731 207.2 335.138 207.133 334.591 207C334.051 206.86 333.578 206.66 333.171 206.4C332.771 206.133 332.458 205.807 332.231 205.42C332.011 205.033 331.901 204.59 331.901 204.09C331.901 204.037 331.901 203.983 331.901 203.93C331.901 203.87 331.901 203.82 331.901 203.78H333.611C333.611 203.82 333.611 203.853 333.611 203.88C333.611 203.907 333.611 203.947 333.611 204C333.611 204.54 333.861 204.953 334.361 205.24C334.861 205.52 335.545 205.66 336.411 205.66C336.945 205.66 337.421 205.607 337.841 205.5C338.261 205.393 338.591 205.23 338.831 205.01C339.078 204.79 339.201 204.513 339.201 204.18C339.201 203.627 338.941 203.233 338.421 203C337.908 202.76 337.138 202.553 336.111 202.38C335.571 202.287 335.058 202.167 334.571 202.02C334.085 201.867 333.651 201.67 333.271 201.43C332.898 201.19 332.601 200.893 332.381 200.54C332.168 200.18 332.061 199.75 332.061 199.25C332.061 198.603 332.251 198.057 332.631 197.61C333.018 197.157 333.538 196.813 334.191 196.58C334.845 196.34 335.571 196.22 336.371 196.22C337.145 196.22 337.858 196.343 338.511 196.59C339.165 196.837 339.688 197.197 340.081 197.67C340.481 198.137 340.681 198.713 340.681 199.4C340.681 199.427 340.681 199.46 340.681 199.5C340.681 199.533 340.681 199.567 340.681 199.6H338.981C338.981 199.567 338.981 199.54 338.981 199.52C338.981 199.5 338.981 199.477 338.981 199.45C338.981 199.063 338.858 198.747 338.611 198.5C338.365 198.247 338.045 198.06 337.651 197.94C337.258 197.813 336.838 197.75 336.391 197.75C335.971 197.75 335.558 197.797 335.151 197.89C334.745 197.977 334.408 198.123 334.141 198.33C333.875 198.537 333.741 198.82 333.741 199.18C333.741 199.54 333.865 199.83 334.111 200.05C334.365 200.263 334.718 200.44 335.171 200.58C335.631 200.713 336.171 200.837 336.791 200.95C337.345 201.05 337.868 201.177 338.361 201.33C338.855 201.477 339.288 201.667 339.661 201.9C340.041 202.133 340.338 202.43 340.551 202.79C340.771 203.143 340.881 203.577 340.881 204.09C340.881 204.61 340.761 205.063 340.521 205.45C340.288 205.837 339.961 206.16 339.541 206.42C339.128 206.68 338.648 206.873 338.101 207C337.561 207.133 336.985 207.2 336.371 207.2ZM344.562 207.26C344.236 207.26 343.959 207.15 343.732 206.93C343.512 206.703 343.402 206.427 343.402 206.1C343.402 205.78 343.512 205.507 343.732 205.28C343.959 205.053 344.236 204.94 344.562 204.94C344.882 204.94 345.156 205.053 345.382 205.28C345.609 205.507 345.722 205.78 345.722 206.1C345.722 206.427 345.609 206.703 345.382 206.93C345.156 207.15 344.882 207.26 344.562 207.26ZM106.175 239H104.515V224.25H107.305L113.565 238.02L113.435 238.1V224.25H115.095V239H112.265L106.025 225.25L106.175 225.18V239ZM123.064 239.19C121.997 239.19 121.054 238.953 120.234 238.48C119.421 238 118.781 237.347 118.314 236.52C117.854 235.687 117.624 234.74 117.624 233.68C117.624 232.62 117.854 231.68 118.314 230.86C118.781 230.04 119.421 229.397 120.234 228.93C121.054 228.463 121.997 228.23 123.064 228.23C124.131 228.23 125.071 228.463 125.884 228.93C126.704 229.397 127.344 230.04 127.804 230.86C128.271 231.68 128.504 232.62 128.504 233.68C128.504 234.74 128.271 235.687 127.804 236.52C127.344 237.347 126.704 238 125.884 238.48C125.071 238.953 124.131 239.19 123.064 239.19ZM123.064 237.63C123.797 237.63 124.444 237.467 125.004 237.14C125.564 236.813 126.001 236.353 126.314 235.76C126.634 235.167 126.794 234.473 126.794 233.68C126.794 232.887 126.634 232.2 126.314 231.62C126.001 231.033 125.564 230.583 125.004 230.27C124.444 229.95 123.797 229.79 123.064 229.79C122.337 229.79 121.691 229.95 121.124 230.27C120.564 230.583 120.124 231.033 119.804 231.62C119.491 232.2 119.334 232.887 119.334 233.68C119.334 234.473 119.491 235.167 119.804 235.76C120.124 236.353 120.564 236.813 121.124 237.14C121.691 237.467 122.337 237.63 123.064 237.63ZM143.769 239V235.05C143.769 234.863 143.769 234.643 143.769 234.39C143.769 234.13 143.769 233.87 143.769 233.61C143.769 233.343 143.769 233.117 143.769 232.93C143.769 231.91 143.549 231.14 143.109 230.62C142.676 230.1 141.986 229.84 141.039 229.84C140.406 229.84 139.849 229.963 139.369 230.21C138.896 230.457 138.526 230.793 138.259 231.22C137.992 231.647 137.859 232.13 137.859 232.67L136.779 232.34C136.779 231.58 136.976 230.89 137.369 230.27C137.769 229.643 138.312 229.147 138.999 228.78C139.692 228.407 140.476 228.22 141.349 228.22C142.622 228.22 143.626 228.603 144.359 229.37C145.099 230.137 145.469 231.197 145.469 232.55C145.469 232.903 145.469 233.31 145.469 233.77C145.469 234.23 145.469 234.713 145.469 235.22V239H143.769ZM136.159 239V223.37H137.859V239H136.159ZM148.525 239V228.38H150.205V239H148.525ZM149.375 225.94C149.061 225.94 148.788 225.853 148.555 225.68C148.328 225.5 148.215 225.257 148.215 224.95C148.215 224.65 148.328 224.413 148.555 224.24C148.788 224.06 149.061 223.97 149.375 223.97C149.688 223.97 149.958 224.06 150.185 224.24C150.411 224.413 150.525 224.65 150.525 224.95C150.525 225.257 150.411 225.5 150.185 225.68C149.958 225.853 149.688 225.94 149.375 225.94ZM157.746 239.2C156.873 239.2 156.073 238.99 155.346 238.57C154.619 238.143 154.039 237.52 153.606 236.7C153.173 235.873 152.956 234.867 152.956 233.68C152.956 232.513 153.176 231.523 153.616 230.71C154.056 229.897 154.639 229.28 155.366 228.86C156.093 228.433 156.886 228.22 157.746 228.22C158.566 228.22 159.333 228.417 160.046 228.81C160.766 229.197 161.346 229.737 161.786 230.43C162.226 231.123 162.446 231.927 162.446 232.84C162.446 232.86 162.446 232.88 162.446 232.9C162.446 232.92 162.446 232.94 162.446 232.96L161.226 233.01C161.226 232.99 161.226 232.97 161.226 232.95C161.226 232.923 161.226 232.9 161.226 232.88C161.226 232.3 161.073 231.777 160.766 231.31C160.466 230.843 160.069 230.473 159.576 230.2C159.083 229.92 158.553 229.78 157.986 229.78C157.039 229.78 156.256 230.1 155.636 230.74C155.016 231.373 154.706 232.353 154.706 233.68C154.706 235 155.016 235.983 155.636 236.63C156.263 237.27 157.046 237.59 157.986 237.59C158.579 237.59 159.119 237.447 159.606 237.16C160.099 236.873 160.493 236.49 160.786 236.01C161.079 235.523 161.226 234.98 161.226 234.38L162.446 234.41C162.446 235.317 162.236 236.133 161.816 236.86C161.396 237.58 160.829 238.15 160.116 238.57C159.409 238.99 158.619 239.2 157.746 239.2ZM161.226 239V223.37H162.936V239H161.226ZM170.305 239.2C169.431 239.2 168.631 238.99 167.905 238.57C167.178 238.143 166.598 237.52 166.165 236.7C165.731 235.873 165.515 234.867 165.515 233.68C165.515 232.513 165.735 231.523 166.175 230.71C166.615 229.897 167.198 229.28 167.925 228.86C168.651 228.433 169.445 228.22 170.305 228.22C171.125 228.22 171.891 228.417 172.605 228.81C173.325 229.197 173.905 229.737 174.345 230.43C174.785 231.123 175.005 231.927 175.005 232.84C175.005 232.86 175.005 232.88 175.005 232.9C175.005 232.92 175.005 232.94 175.005 232.96L173.785 233.01C173.785 232.99 173.785 232.97 173.785 232.95C173.785 232.923 173.785 232.9 173.785 232.88C173.785 232.3 173.631 231.777 173.325 231.31C173.025 230.843 172.628 230.473 172.135 230.2C171.641 229.92 171.111 229.78 170.545 229.78C169.598 229.78 168.815 230.1 168.195 230.74C167.575 231.373 167.265 232.353 167.265 233.68C167.265 235 167.575 235.983 168.195 236.63C168.821 237.27 169.605 237.59 170.545 237.59C171.138 237.59 171.678 237.447 172.165 237.16C172.658 236.873 173.051 236.49 173.345 236.01C173.638 235.523 173.785 234.98 173.785 234.38L175.005 234.41C175.005 235.317 174.795 236.133 174.375 236.86C173.955 237.58 173.388 238.15 172.675 238.57C171.968 238.99 171.178 239.2 170.305 239.2ZM173.785 239V223.37H175.495V239H173.785ZM179.033 234.37V232.85H187.243L186.943 233.35C186.943 233.31 186.943 233.273 186.943 233.24C186.943 233.2 186.943 233.163 186.943 233.13C186.943 232.517 186.813 231.957 186.553 231.45C186.3 230.937 185.92 230.527 185.413 230.22C184.906 229.913 184.28 229.76 183.533 229.76C182.78 229.76 182.116 229.92 181.543 230.24C180.97 230.56 180.523 231.013 180.203 231.6C179.883 232.18 179.723 232.873 179.723 233.68C179.723 234.5 179.876 235.207 180.183 235.8C180.496 236.393 180.94 236.85 181.513 237.17C182.086 237.49 182.766 237.65 183.553 237.65C184.113 237.65 184.6 237.593 185.013 237.48C185.426 237.36 185.766 237.203 186.033 237.01C186.306 236.81 186.513 236.593 186.653 236.36C186.793 236.127 186.876 235.893 186.903 235.66H188.603C188.57 236.087 188.436 236.51 188.203 236.93C187.97 237.35 187.64 237.733 187.213 238.08C186.786 238.42 186.263 238.693 185.643 238.9C185.023 239.107 184.31 239.21 183.503 239.21C182.436 239.21 181.496 238.977 180.683 238.51C179.87 238.043 179.23 237.397 178.763 236.57C178.303 235.743 178.073 234.793 178.073 233.72C178.073 232.633 178.306 231.68 178.773 230.86C179.24 230.033 179.883 229.387 180.703 228.92C181.523 228.453 182.46 228.22 183.513 228.22C184.586 228.22 185.516 228.453 186.303 228.92C187.09 229.387 187.696 230.027 188.123 230.84C188.55 231.647 188.763 232.567 188.763 233.6C188.763 233.707 188.76 233.847 188.753 234.02C188.746 234.193 188.736 234.31 188.723 234.37H179.033ZM199.013 239V233.91C199.013 233.603 199.013 233.353 199.013 233.16C199.013 232.96 199.013 232.77 199.013 232.59C199.013 232.037 198.919 231.553 198.733 231.14C198.546 230.727 198.253 230.407 197.853 230.18C197.453 229.953 196.929 229.84 196.283 229.84C195.716 229.84 195.189 229.987 194.703 230.28C194.223 230.567 193.836 230.957 193.543 231.45C193.256 231.937 193.113 232.483 193.113 233.09L192.143 232.72C192.143 231.887 192.346 231.13 192.753 230.45C193.166 229.77 193.713 229.23 194.393 228.83C195.079 228.423 195.826 228.22 196.633 228.22C197.453 228.22 198.169 228.377 198.783 228.69C199.396 229.003 199.869 229.453 200.203 230.04C200.543 230.62 200.713 231.32 200.713 232.14C200.713 232.433 200.713 232.753 200.713 233.1C200.713 233.447 200.713 233.77 200.713 234.07V239H199.013ZM191.413 239V228.38H193.113V239H191.413ZM209.988 239V229.88H207.668V228.38H209.988V227.01C209.988 226.537 210.042 226.103 210.148 225.71C210.262 225.31 210.422 224.957 210.628 224.65C210.842 224.343 211.098 224.083 211.398 223.87C211.698 223.657 212.038 223.497 212.418 223.39C212.805 223.277 213.225 223.22 213.678 223.22C214.005 223.22 214.265 223.24 214.458 223.28C214.652 223.32 214.782 223.357 214.848 223.39V224.89C214.768 224.863 214.635 224.833 214.448 224.8C214.262 224.767 214.062 224.75 213.848 224.75C213.395 224.75 213.025 224.82 212.738 224.96C212.458 225.1 212.242 225.293 212.088 225.54C211.935 225.78 211.828 226.053 211.768 226.36C211.715 226.667 211.688 226.987 211.688 227.32V228.38H214.788V229.88H211.688V239H209.988ZM216.768 234.37V232.85H224.978L224.678 233.35C224.678 233.31 224.678 233.273 224.678 233.24C224.678 233.2 224.678 233.163 224.678 233.13C224.678 232.517 224.548 231.957 224.288 231.45C224.034 230.937 223.654 230.527 223.148 230.22C222.641 229.913 222.014 229.76 221.268 229.76C220.514 229.76 219.851 229.92 219.278 230.24C218.704 230.56 218.258 231.013 217.938 231.6C217.618 232.18 217.458 232.873 217.458 233.68C217.458 234.5 217.611 235.207 217.918 235.8C218.231 236.393 218.674 236.85 219.248 237.17C219.821 237.49 220.501 237.65 221.288 237.65C221.848 237.65 222.334 237.593 222.748 237.48C223.161 237.36 223.501 237.203 223.768 237.01C224.041 236.81 224.248 236.593 224.388 236.36C224.528 236.127 224.611 235.893 224.638 235.66H226.338C226.304 236.087 226.171 236.51 225.938 236.93C225.704 237.35 225.374 237.733 224.948 238.08C224.521 238.42 223.998 238.693 223.378 238.9C222.758 239.107 222.044 239.21 221.238 239.21C220.171 239.21 219.231 238.977 218.418 238.51C217.604 238.043 216.964 237.397 216.498 236.57C216.038 235.743 215.808 234.793 215.808 233.72C215.808 232.633 216.041 231.68 216.508 230.86C216.974 230.033 217.618 229.387 218.438 228.92C219.258 228.453 220.194 228.22 221.248 228.22C222.321 228.22 223.251 228.453 224.038 228.92C224.824 229.387 225.431 230.027 225.858 230.84C226.284 231.647 226.498 232.567 226.498 233.6C226.498 233.707 226.494 233.847 226.488 234.02C226.481 234.193 226.471 234.31 226.458 234.37H216.768ZM229.697 234.37V232.85H237.907L237.607 233.35C237.607 233.31 237.607 233.273 237.607 233.24C237.607 233.2 237.607 233.163 237.607 233.13C237.607 232.517 237.477 231.957 237.217 231.45C236.964 230.937 236.584 230.527 236.077 230.22C235.571 229.913 234.944 229.76 234.197 229.76C233.444 229.76 232.781 229.92 232.207 230.24C231.634 230.56 231.187 231.013 230.867 231.6C230.547 232.18 230.387 232.873 230.387 233.68C230.387 234.5 230.541 235.207 230.847 235.8C231.161 236.393 231.604 236.85 232.177 237.17C232.751 237.49 233.431 237.65 234.217 237.65C234.777 237.65 235.264 237.593 235.677 237.48C236.091 237.36 236.431 237.203 236.697 237.01C236.971 236.81 237.177 236.593 237.317 236.36C237.457 236.127 237.541 235.893 237.567 235.66H239.267C239.234 236.087 239.101 236.51 238.867 236.93C238.634 237.35 238.304 237.733 237.877 238.08C237.451 238.42 236.927 238.693 236.307 238.9C235.687 239.107 234.974 239.21 234.167 239.21C233.101 239.21 232.161 238.977 231.347 238.51C230.534 238.043 229.894 237.397 229.427 236.57C228.967 235.743 228.737 234.793 228.737 233.72C228.737 232.633 228.971 231.68 229.437 230.86C229.904 230.033 230.547 229.387 231.367 228.92C232.187 228.453 233.124 228.22 234.177 228.22C235.251 228.22 236.181 228.453 236.967 228.92C237.754 229.387 238.361 230.027 238.787 230.84C239.214 231.647 239.427 232.567 239.427 233.6C239.427 233.707 239.424 233.847 239.417 234.02C239.411 234.193 239.401 234.31 239.387 234.37H229.697ZM246.137 239.2C245.497 239.2 244.904 239.133 244.357 239C243.817 238.86 243.344 238.66 242.937 238.4C242.537 238.133 242.224 237.807 241.997 237.42C241.777 237.033 241.667 236.59 241.667 236.09C241.667 236.037 241.667 235.983 241.667 235.93C241.667 235.87 241.667 235.82 241.667 235.78H243.377C243.377 235.82 243.377 235.853 243.377 235.88C243.377 235.907 243.377 235.947 243.377 236C243.377 236.54 243.627 236.953 244.127 237.24C244.627 237.52 245.31 237.66 246.177 237.66C246.71 237.66 247.187 237.607 247.607 237.5C248.027 237.393 248.357 237.23 248.597 237.01C248.844 236.79 248.967 236.513 248.967 236.18C248.967 235.627 248.707 235.233 248.187 235C247.674 234.76 246.904 234.553 245.877 234.38C245.337 234.287 244.824 234.167 244.337 234.02C243.85 233.867 243.417 233.67 243.037 233.43C242.664 233.19 242.367 232.893 242.147 232.54C241.934 232.18 241.827 231.75 241.827 231.25C241.827 230.603 242.017 230.057 242.397 229.61C242.784 229.157 243.304 228.813 243.957 228.58C244.61 228.34 245.337 228.22 246.137 228.22C246.91 228.22 247.624 228.343 248.277 228.59C248.93 228.837 249.454 229.197 249.847 229.67C250.247 230.137 250.447 230.713 250.447 231.4C250.447 231.427 250.447 231.46 250.447 231.5C250.447 231.533 250.447 231.567 250.447 231.6H248.747C248.747 231.567 248.747 231.54 248.747 231.52C248.747 231.5 248.747 231.477 248.747 231.45C248.747 231.063 248.624 230.747 248.377 230.5C248.13 230.247 247.81 230.06 247.417 229.94C247.024 229.813 246.604 229.75 246.157 229.75C245.737 229.75 245.324 229.797 244.917 229.89C244.51 229.977 244.174 230.123 243.907 230.33C243.64 230.537 243.507 230.82 243.507 231.18C243.507 231.54 243.63 231.83 243.877 232.05C244.13 232.263 244.484 232.44 244.937 232.58C245.397 232.713 245.937 232.837 246.557 232.95C247.11 233.05 247.634 233.177 248.127 233.33C248.62 233.477 249.054 233.667 249.427 233.9C249.807 234.133 250.104 234.43 250.317 234.79C250.537 235.143 250.647 235.577 250.647 236.09C250.647 236.61 250.527 237.063 250.287 237.45C250.054 237.837 249.727 238.16 249.307 238.42C248.894 238.68 248.414 238.873 247.867 239C247.327 239.133 246.75 239.2 246.137 239.2ZM254.328 239.26C254.001 239.26 253.724 239.15 253.498 238.93C253.278 238.703 253.168 238.427 253.168 238.1C253.168 237.78 253.278 237.507 253.498 237.28C253.724 237.053 254.001 236.94 254.328 236.94C254.648 236.94 254.921 237.053 255.148 237.28C255.374 237.507 255.488 237.78 255.488 238.1C255.488 238.427 255.374 238.703 255.148 238.93C254.921 239.15 254.648 239.26 254.328 239.26Z" fill="#383838"/>
<path d="M148.375 107.5C145.292 107.5 142.667 106.417 140.5 104.25C138.333 102.083 137.25 99.4583 137.25 96.375V87C137.25 86 137.583 85.1458 138.25 84.4375C138.917 83.7292 139.792 83.375 140.875 83.375H152.875V16.75C152.875 15.8333 153.229 15.3333 153.938 15.25C154.646 15.1667 155.333 15.4167 156 16L159.75 19.75L165.5 14.25C165.833 13.8333 166.271 13.625 166.813 13.625C167.354 13.625 167.792 13.8333 168.125 14.25L173.75 19.75L179.5 14.25C179.833 13.8333 180.25 13.625 180.75 13.625C181.25 13.625 181.708 13.8333 182.125 14.25L187.75 19.75L193.5 14.25C193.833 13.8333 194.271 13.625 194.812 13.625C195.354 13.625 195.792 13.8333 196.125 14.25L201.875 19.75L207.5 14.25C207.833 13.8333 208.271 13.625 208.813 13.625C209.354 13.625 209.792 13.8333 210.125 14.25L215.875 19.75L219.625 16C220.292 15.3333 220.979 15.0833 221.687 15.25C222.396 15.4167 222.75 15.9167 222.75 16.75V96.375C222.75 99.4583 221.667 102.083 219.5 104.25C217.333 106.417 214.708 107.5 211.625 107.5H148.375ZM211.625 101.875C213.208 101.875 214.521 101.354 215.562 100.312C216.604 99.2708 217.125 97.9583 217.125 96.375V23.125H158.5V83.375H202.625C203.625 83.375 204.479 83.7292 205.188 84.4375C205.896 85.1458 206.25 86 206.25 87V96.375C206.25 97.9583 206.75 99.2708 207.75 100.312C208.75 101.354 210.042 101.875 211.625 101.875ZM168.375 41.75C167.625 41.75 166.979 41.4583 166.438 40.875C165.896 40.2917 165.625 39.625 165.625 38.875C165.625 38.0417 165.917 37.3542 166.5 36.8125C167.083 36.2708 167.75 36 168.5 36H191.25C192 36 192.646 36.2917 193.188 36.875C193.729 37.4583 194 38.125 194 38.875C194 39.7083 193.729 40.3958 193.188 40.9375C192.646 41.4792 192 41.75 191.25 41.75H168.375ZM168.375 58C167.625 58 166.979 57.7083 166.438 57.125C165.896 56.5417 165.625 55.875 165.625 55.125C165.625 54.375 165.917 53.7292 166.5 53.1875C167.083 52.6458 167.75 52.375 168.5 52.375H191.25C192 52.375 192.646 52.6458 193.188 53.1875C193.729 53.7292 194 54.4167 194 55.25C194 56.0833 193.729 56.75 193.188 57.25C192.646 57.75 192 58 191.25 58H168.375ZM205.625 42.375C204.708 42.375 203.896 42.0208 203.188 41.3125C202.479 40.6042 202.125 39.7917 202.125 38.875C202.125 37.9583 202.479 37.1458 203.188 36.4375C203.896 35.7292 204.708 35.375 205.625 35.375C206.542 35.375 207.354 35.7292 208.062 36.4375C208.771 37.1458 209.125 37.9583 209.125 38.875C209.125 39.7917 208.771 40.6042 208.062 41.3125C207.354 42.0208 206.542 42.375 205.625 42.375ZM205.625 58.25C204.708 58.25 203.896 57.8958 203.188 57.1875C202.479 56.4792 202.125 55.6667 202.125 54.75C202.125 53.8333 202.479 53.0208 203.188 52.3125C203.896 51.6042 204.708 51.25 205.625 51.25C206.542 51.25 207.354 51.6042 208.062 52.3125C208.771 53.0208 209.125 53.8333 209.125 54.75C209.125 55.6667 208.771 56.4792 208.062 57.1875C207.354 57.8958 206.542 58.25 205.625 58.25ZM148.25 101.875H200.5V89.125H142.875V96.375C142.875 97.9583 143.396 99.2708 144.437 100.312C145.479 101.354 146.75 101.875 148.25 101.875ZM142.875 101.875V89.125V101.875Z" fill="#3A5295"/>
</svg>
