<svg width="360" height="249" viewBox="0 0 360 249" fill="none" xmlns="http://www.w3.org/2000/svg">
<path d="M133.915 160.692C133.915 161.551 133.756 162.423 133.439 163.31C133.122 164.197 132.641 165.018 131.997 165.774C131.353 166.53 130.541 167.141 129.561 167.608C128.581 168.065 127.428 168.294 126.103 168.294C124.302 168.294 122.766 167.841 121.497 166.936C120.237 166.021 119.276 164.766 118.613 163.17C117.95 161.574 117.619 159.745 117.619 157.682C117.619 155.61 117.95 153.781 118.613 152.194C119.276 150.598 120.237 149.347 121.497 148.442C122.766 147.537 124.302 147.084 126.103 147.084C127.606 147.084 128.884 147.378 129.939 147.966C131.003 148.554 131.848 149.31 132.473 150.234C133.108 151.158 133.528 152.119 133.733 153.118C133.854 153.659 133.915 154.173 133.915 154.658H130.863C130.863 154.397 130.84 154.112 130.793 153.804C130.69 153.057 130.438 152.371 130.037 151.746C129.645 151.121 129.118 150.621 128.455 150.248C127.802 149.875 127.018 149.688 126.103 149.688C125.039 149.688 124.101 149.987 123.289 150.584C122.477 151.172 121.842 152.059 121.385 153.244C120.937 154.429 120.713 155.909 120.713 157.682C120.713 159.446 120.937 160.925 121.385 162.12C121.842 163.305 122.477 164.201 123.289 164.808C124.101 165.405 125.039 165.704 126.103 165.704C126.878 165.704 127.559 165.564 128.147 165.284C128.735 165.004 129.23 164.626 129.631 164.15C130.032 163.674 130.336 163.137 130.541 162.54C130.756 161.943 130.863 161.327 130.863 160.692H133.915ZM144.408 168.28C142.878 168.28 141.524 167.949 140.348 167.286C139.182 166.623 138.267 165.713 137.604 164.556C136.951 163.389 136.624 162.055 136.624 160.552C136.624 159.059 136.951 157.738 137.604 156.59C138.267 155.433 139.182 154.532 140.348 153.888C141.524 153.235 142.878 152.908 144.408 152.908C145.939 152.908 147.288 153.235 148.454 153.888C149.63 154.532 150.545 155.433 151.198 156.59C151.861 157.738 152.192 159.059 152.192 160.552C152.192 162.055 151.861 163.389 151.198 164.556C150.545 165.713 149.63 166.623 148.454 167.286C147.288 167.949 145.939 168.28 144.408 168.28ZM144.408 165.676C145.342 165.676 146.163 165.466 146.872 165.046C147.582 164.626 148.137 164.033 148.538 163.268C148.94 162.493 149.14 161.588 149.14 160.552C149.14 159.525 148.94 158.634 148.538 157.878C148.137 157.122 147.582 156.539 146.872 156.128C146.163 155.717 145.342 155.512 144.408 155.512C143.484 155.512 142.663 155.717 141.944 156.128C141.235 156.539 140.68 157.122 140.278 157.878C139.877 158.634 139.676 159.525 139.676 160.552C139.676 161.588 139.877 162.493 140.278 163.268C140.68 164.033 141.235 164.626 141.944 165.046C142.663 165.466 143.484 165.676 144.408 165.676ZM164.772 168V161.7C164.772 161.131 164.772 160.641 164.772 160.23C164.772 159.81 164.772 159.455 164.772 159.166C164.772 158.802 164.744 158.415 164.688 158.004C164.641 157.593 164.529 157.211 164.352 156.856C164.184 156.492 163.918 156.198 163.554 155.974C163.19 155.75 162.691 155.638 162.056 155.638C161.421 155.638 160.885 155.764 160.446 156.016C160.007 156.268 159.653 156.604 159.382 157.024C159.111 157.435 158.915 157.897 158.794 158.41C158.673 158.914 158.612 159.423 158.612 159.936L157.324 159.236C157.324 158.069 157.553 157.01 158.01 156.058C158.477 155.097 159.13 154.331 159.97 153.762C160.819 153.183 161.818 152.894 162.966 152.894C164.133 152.894 165.066 153.137 165.766 153.622C166.475 154.098 166.989 154.751 167.306 155.582C167.623 156.403 167.782 157.337 167.782 158.382C167.782 158.765 167.782 159.264 167.782 159.88C167.782 160.496 167.782 161.21 167.782 162.022V168H164.772ZM155.574 168V153.132H158.612V168H155.574ZM173.928 168V161.714C173.928 161.098 173.928 160.585 173.928 160.174C173.928 159.754 173.928 159.404 173.928 159.124C173.928 158.741 173.905 158.349 173.858 157.948C173.811 157.537 173.699 157.159 173.522 156.814C173.345 156.469 173.069 156.189 172.696 155.974C172.332 155.75 171.823 155.638 171.17 155.638C170.526 155.638 169.985 155.764 169.546 156.016C169.117 156.259 168.771 156.585 168.51 156.996C168.249 157.397 168.062 157.841 167.95 158.326C167.838 158.811 167.782 159.292 167.782 159.768L166.494 159.096C166.494 157.976 166.718 156.945 167.166 156.002C167.623 155.059 168.267 154.308 169.098 153.748C169.938 153.179 170.932 152.894 172.08 152.894C173.2 152.894 174.119 153.118 174.838 153.566C175.557 154.014 176.089 154.635 176.434 155.428C176.779 156.221 176.952 157.141 176.952 158.186C176.952 158.587 176.952 159.091 176.952 159.698C176.952 160.305 176.952 161.009 176.952 161.812V168H173.928ZM180.812 174.118V153.132H183.85V174.118H180.812ZM188.638 168.294C187.481 168.294 186.408 168.005 185.418 167.426C184.429 166.838 183.626 166.035 183.01 165.018C182.404 164.001 182.1 162.848 182.1 161.56C182.1 161.523 182.1 161.495 182.1 161.476C182.1 161.448 182.1 161.42 182.1 161.392L183.864 161.35C183.864 161.369 183.864 161.392 183.864 161.42C183.864 161.439 183.864 161.462 183.864 161.49C183.864 162.255 184.06 162.946 184.452 163.562C184.854 164.169 185.372 164.649 186.006 165.004C186.641 165.359 187.322 165.536 188.05 165.536C189.245 165.536 190.248 165.13 191.06 164.318C191.882 163.497 192.292 162.237 192.292 160.538C192.292 158.83 191.886 157.575 191.074 156.772C190.262 155.96 189.254 155.554 188.05 155.554C187.322 155.554 186.641 155.731 186.006 156.086C185.372 156.431 184.854 156.907 184.452 157.514C184.06 158.111 183.864 158.797 183.864 159.572L182.1 159.502C182.1 158.205 182.404 157.061 183.01 156.072C183.626 155.073 184.429 154.294 185.418 153.734C186.408 153.174 187.481 152.894 188.638 152.894C189.842 152.894 190.958 153.193 191.984 153.79C193.011 154.378 193.837 155.241 194.462 156.38C195.097 157.519 195.414 158.905 195.414 160.538C195.414 162.209 195.106 163.623 194.49 164.78C193.874 165.937 193.053 166.815 192.026 167.412C191 168 189.87 168.294 188.638 168.294ZM203.929 168.294C202.809 168.294 201.824 168.117 200.975 167.762C200.135 167.407 199.482 166.899 199.015 166.236C198.548 165.573 198.315 164.775 198.315 163.842C198.315 162.843 198.576 162.017 199.099 161.364C199.631 160.711 200.359 160.207 201.283 159.852C202.216 159.488 203.276 159.25 204.461 159.138C206.225 158.961 207.466 158.788 208.185 158.62C208.913 158.452 209.277 158.177 209.277 157.794C209.277 157.785 209.277 157.775 209.277 157.766C209.277 157.01 208.955 156.436 208.311 156.044C207.667 155.652 206.748 155.456 205.553 155.456C204.293 155.456 203.318 155.68 202.627 156.128C201.946 156.567 201.605 157.267 201.605 158.228H198.623C198.623 157.089 198.917 156.123 199.505 155.33C200.102 154.537 200.924 153.935 201.969 153.524C203.014 153.104 204.214 152.894 205.567 152.894C206.808 152.894 207.938 153.085 208.955 153.468C209.982 153.841 210.798 154.401 211.405 155.148C212.012 155.895 212.315 156.823 212.315 157.934C212.315 158.13 212.315 158.326 212.315 158.522C212.315 158.709 212.315 158.9 212.315 159.096V165.032C212.315 165.377 212.329 165.713 212.357 166.04C212.385 166.357 212.436 166.642 212.511 166.894C212.595 167.183 212.693 167.421 212.805 167.608C212.926 167.795 213.024 167.925 213.099 168H210.075C210.019 167.944 209.935 167.827 209.823 167.65C209.72 167.463 209.627 167.249 209.543 167.006C209.459 166.773 209.394 166.507 209.347 166.208C209.31 165.9 209.291 165.569 209.291 165.214L209.851 165.606C209.571 166.147 209.146 166.619 208.577 167.02C208.017 167.421 207.34 167.734 206.547 167.958C205.763 168.182 204.89 168.294 203.929 168.294ZM204.559 165.774C205.427 165.774 206.216 165.639 206.925 165.368C207.644 165.088 208.218 164.668 208.647 164.108C209.076 163.539 209.291 162.825 209.291 161.966V159.502L210.005 160.44C209.408 160.673 208.675 160.865 207.807 161.014C206.948 161.154 206.062 161.271 205.147 161.364C203.887 161.476 202.94 161.695 202.305 162.022C201.67 162.339 201.353 162.871 201.353 163.618C201.353 164.337 201.614 164.878 202.137 165.242C202.669 165.597 203.476 165.774 204.559 165.774ZM216.004 168V153.132H219.042V157.878L218.23 157.514C218.295 156.907 218.449 156.329 218.692 155.778C218.934 155.227 219.256 154.737 219.658 154.308C220.068 153.869 220.572 153.524 221.17 153.272C221.767 153.02 222.458 152.894 223.242 152.894C223.839 152.894 224.32 152.941 224.684 153.034C225.057 153.127 225.286 153.202 225.37 153.258L224.726 156.114C224.632 156.049 224.441 155.965 224.152 155.862C223.872 155.759 223.48 155.708 222.976 155.708C222.21 155.708 221.576 155.843 221.072 156.114C220.568 156.385 220.166 156.744 219.868 157.192C219.569 157.64 219.354 158.13 219.224 158.662C219.102 159.185 219.042 159.712 219.042 160.244V168H216.004ZM228.621 161.63V159.264H239.569L239.149 159.964C239.149 159.908 239.149 159.852 239.149 159.796C239.149 159.731 239.149 159.675 239.149 159.628C239.149 158.872 238.985 158.177 238.659 157.542C238.332 156.898 237.842 156.385 237.189 156.002C236.545 155.61 235.737 155.414 234.767 155.414C233.796 155.414 232.942 155.624 232.205 156.044C231.477 156.455 230.907 157.043 230.497 157.808C230.095 158.564 229.895 159.474 229.895 160.538C229.895 161.621 230.091 162.554 230.483 163.338C230.875 164.113 231.439 164.71 232.177 165.13C232.914 165.55 233.796 165.76 234.823 165.76C235.541 165.76 236.162 165.69 236.685 165.55C237.217 165.401 237.651 165.205 237.987 164.962C238.332 164.719 238.593 164.458 238.771 164.178C238.948 163.889 239.051 163.604 239.079 163.324H242.103C242.047 163.931 241.846 164.533 241.501 165.13C241.165 165.718 240.684 166.255 240.059 166.74C239.443 167.216 238.687 167.599 237.791 167.888C236.904 168.168 235.882 168.308 234.725 168.308C233.175 168.308 231.817 167.981 230.651 167.328C229.484 166.675 228.574 165.769 227.921 164.612C227.267 163.445 226.941 162.111 226.941 160.608C226.941 159.077 227.272 157.733 227.935 156.576C228.597 155.419 229.517 154.518 230.693 153.874C231.869 153.221 233.217 152.894 234.739 152.894C236.288 152.894 237.627 153.221 238.757 153.874C239.895 154.527 240.773 155.428 241.389 156.576C242.005 157.724 242.313 159.045 242.313 160.538C242.313 160.715 242.308 160.921 242.299 161.154C242.289 161.387 242.275 161.546 242.257 161.63H228.621Z" fill="black"/>
<path d="M22.0935 201.87C22.0935 202.463 21.9835 203.073 21.7635 203.7C21.5435 204.32 21.2102 204.897 20.7635 205.43C20.3235 205.957 19.7668 206.383 19.0935 206.71C18.4202 207.037 17.6302 207.2 16.7235 207.2C15.4768 207.2 14.4168 206.877 13.5435 206.23C12.6702 205.577 12.0035 204.68 11.5435 203.54C11.0902 202.4 10.8635 201.097 10.8635 199.63C10.8635 198.157 11.0902 196.853 11.5435 195.72C12.0035 194.58 12.6702 193.687 13.5435 193.04C14.4168 192.393 15.4768 192.07 16.7235 192.07C17.7635 192.07 18.6502 192.283 19.3835 192.71C20.1168 193.137 20.7002 193.68 21.1335 194.34C21.5668 195 21.8502 195.68 21.9835 196.38C22.0568 196.733 22.0935 197.067 22.0935 197.38H20.3835C20.3835 197.2 20.3668 196.993 20.3335 196.76C20.2535 196.2 20.0602 195.683 19.7535 195.21C19.4535 194.73 19.0502 194.347 18.5435 194.06C18.0368 193.767 17.4302 193.62 16.7235 193.62C15.8968 193.62 15.1735 193.847 14.5535 194.3C13.9402 194.753 13.4602 195.427 13.1135 196.32C12.7735 197.213 12.6035 198.317 12.6035 199.63C12.6035 200.943 12.7735 202.05 13.1135 202.95C13.4602 203.843 13.9402 204.52 14.5535 204.98C15.1735 205.433 15.8968 205.66 16.7235 205.66C17.3168 205.66 17.8402 205.553 18.2935 205.34C18.7468 205.12 19.1268 204.83 19.4335 204.47C19.7468 204.103 19.9835 203.697 20.1435 203.25C20.3035 202.797 20.3835 202.337 20.3835 201.87H22.0935ZM29.6557 207.19C28.589 207.19 27.6457 206.953 26.8257 206.48C26.0124 206 25.3724 205.347 24.9057 204.52C24.4457 203.687 24.2157 202.74 24.2157 201.68C24.2157 200.62 24.4457 199.68 24.9057 198.86C25.3724 198.04 26.0124 197.397 26.8257 196.93C27.6457 196.463 28.589 196.23 29.6557 196.23C30.7224 196.23 31.6624 196.463 32.4757 196.93C33.2957 197.397 33.9357 198.04 34.3957 198.86C34.8624 199.68 35.0957 200.62 35.0957 201.68C35.0957 202.74 34.8624 203.687 34.3957 204.52C33.9357 205.347 33.2957 206 32.4757 206.48C31.6624 206.953 30.7224 207.19 29.6557 207.19ZM29.6557 205.63C30.389 205.63 31.0357 205.467 31.5957 205.14C32.1557 204.813 32.5924 204.353 32.9057 203.76C33.2257 203.167 33.3857 202.473 33.3857 201.68C33.3857 200.887 33.2257 200.2 32.9057 199.62C32.5924 199.033 32.1557 198.583 31.5957 198.27C31.0357 197.95 30.389 197.79 29.6557 197.79C28.929 197.79 28.2824 197.95 27.7157 198.27C27.1557 198.583 26.7157 199.033 26.3957 199.62C26.0824 200.2 25.9257 200.887 25.9257 201.68C25.9257 202.473 26.0824 203.167 26.3957 203.76C26.7157 204.353 27.1557 204.813 27.7157 205.14C28.2824 205.467 28.929 205.63 29.6557 205.63ZM44.2807 207V202.31C44.2807 201.897 44.2807 201.54 44.2807 201.24C44.2807 200.933 44.2807 200.677 44.2807 200.47C44.2807 200.21 44.2607 199.93 44.2207 199.63C44.1874 199.323 44.104 199.037 43.9707 198.77C43.8374 198.497 43.6274 198.273 43.3407 198.1C43.0607 197.927 42.6707 197.84 42.1707 197.84C41.664 197.84 41.2374 197.94 40.8907 198.14C40.544 198.333 40.264 198.59 40.0507 198.91C39.8374 199.23 39.684 199.583 39.5907 199.97C39.4974 200.35 39.4507 200.727 39.4507 201.1L38.4907 200.71C38.4907 199.91 38.6574 199.17 38.9907 198.49C39.324 197.81 39.7907 197.263 40.3907 196.85C40.9974 196.43 41.7074 196.22 42.5207 196.22C43.3274 196.22 43.984 196.383 44.4907 196.71C44.9974 197.037 45.3707 197.487 45.6107 198.06C45.8507 198.633 45.9707 199.293 45.9707 200.04C45.9707 200.307 45.9707 200.65 45.9707 201.07C45.9707 201.483 45.9707 201.957 45.9707 202.49V207H44.2807ZM37.7507 207V196.38H39.4507V207H37.7507ZM50.7907 207V202.31C50.7907 201.857 50.7907 201.483 50.7907 201.19C50.7907 200.89 50.7907 200.637 50.7907 200.43C50.7907 200.17 50.774 199.89 50.7407 199.59C50.7074 199.29 50.624 199.01 50.4907 198.75C50.3574 198.483 50.144 198.267 49.8507 198.1C49.564 197.927 49.1607 197.84 48.6407 197.84C48.1274 197.84 47.6974 197.937 47.3507 198.13C47.0107 198.323 46.7374 198.577 46.5307 198.89C46.3307 199.203 46.1874 199.543 46.1007 199.91C46.014 200.27 45.9707 200.617 45.9707 200.95L45.0107 200.58C45.0107 199.82 45.1707 199.11 45.4907 198.45C45.8174 197.783 46.2774 197.247 46.8707 196.84C47.4707 196.427 48.1807 196.22 49.0007 196.22C49.7674 196.22 50.4074 196.37 50.9207 196.67C51.4407 196.97 51.8307 197.393 52.0907 197.94C52.3574 198.48 52.4907 199.123 52.4907 199.87C52.4907 200.15 52.4907 200.497 52.4907 200.91C52.4907 201.323 52.4907 201.79 52.4907 202.31V207H50.7907ZM55.446 211.37V196.38H57.146V211.37H55.446ZM60.636 207.2C59.816 207.2 59.0493 207 58.336 206.6C57.6227 206.193 57.0427 205.637 56.596 204.93C56.156 204.223 55.936 203.417 55.936 202.51C55.936 202.49 55.936 202.473 55.936 202.46C55.936 202.447 55.936 202.43 55.936 202.41L57.156 202.38C57.156 202.393 57.156 202.41 57.156 202.43C57.156 202.443 57.156 202.457 57.156 202.47C57.156 203.043 57.306 203.567 57.606 204.04C57.9127 204.513 58.3127 204.89 58.806 205.17C59.2993 205.45 59.8293 205.59 60.396 205.59C61.336 205.59 62.116 205.27 62.736 204.63C63.3627 203.983 63.676 203 63.676 201.68C63.676 200.353 63.366 199.373 62.746 198.74C62.126 198.1 61.3427 197.78 60.396 197.78C59.8293 197.78 59.2993 197.92 58.806 198.2C58.3127 198.473 57.9127 198.843 57.606 199.31C57.306 199.777 57.156 200.3 57.156 200.88L55.936 200.84C55.936 199.927 56.156 199.123 56.596 198.43C57.0427 197.737 57.6227 197.197 58.336 196.81C59.0493 196.417 59.816 196.22 60.636 196.22C61.496 196.22 62.2893 196.433 63.016 196.86C63.7427 197.28 64.326 197.897 64.766 198.71C65.206 199.523 65.426 200.513 65.426 201.68C65.426 202.867 65.2093 203.873 64.776 204.7C64.3427 205.52 63.7627 206.143 63.036 206.57C62.3093 206.99 61.5093 207.2 60.636 207.2ZM71.7927 207.2C70.9861 207.2 70.2794 207.073 69.6727 206.82C69.0727 206.567 68.6061 206.203 68.2727 205.73C67.9394 205.25 67.7727 204.677 67.7727 204.01C67.7727 203.317 67.9527 202.74 68.3127 202.28C68.6727 201.813 69.1794 201.45 69.8327 201.19C70.4861 200.93 71.2461 200.757 72.1127 200.67C73.4194 200.537 74.3494 200.407 74.9027 200.28C75.4561 200.147 75.7327 199.933 75.7327 199.64C75.7327 199.633 75.7327 199.63 75.7327 199.63C75.7327 199.623 75.7327 199.617 75.7327 199.61C75.7327 198.997 75.4827 198.54 74.9827 198.24C74.4827 197.933 73.7594 197.78 72.8127 197.78C71.8261 197.78 71.0594 197.953 70.5127 198.3C69.9661 198.64 69.6927 199.193 69.6927 199.96H68.0127C68.0127 199.167 68.2161 198.493 68.6227 197.94C69.0294 197.38 69.5927 196.953 70.3127 196.66C71.0394 196.367 71.8761 196.22 72.8227 196.22C73.6894 196.22 74.4694 196.353 75.1627 196.62C75.8627 196.88 76.4161 197.27 76.8227 197.79C77.2361 198.303 77.4427 198.94 77.4427 199.7C77.4427 199.84 77.4427 199.98 77.4427 200.12C77.4427 200.253 77.4427 200.39 77.4427 200.53V205C77.4427 205.233 77.4527 205.46 77.4727 205.68C77.4927 205.9 77.5261 206.093 77.5727 206.26C77.6327 206.46 77.6994 206.623 77.7727 206.75C77.8461 206.87 77.9061 206.953 77.9527 207H76.2427C76.2094 206.967 76.1594 206.89 76.0927 206.77C76.0261 206.643 75.9627 206.497 75.9027 206.33C75.8561 206.197 75.8194 206.03 75.7927 205.83C75.7661 205.623 75.7527 205.41 75.7527 205.19L76.0327 205.38C75.8261 205.74 75.5227 206.057 75.1227 206.33C74.7294 206.603 74.2527 206.817 73.6927 206.97C73.1327 207.123 72.4994 207.2 71.7927 207.2ZM72.0627 205.67C72.7494 205.67 73.3694 205.567 73.9227 205.36C74.4761 205.147 74.9161 204.833 75.2427 204.42C75.5694 204.007 75.7327 203.493 75.7327 202.88V200.77L76.1127 201.41C75.6861 201.577 75.1527 201.713 74.5127 201.82C73.8794 201.92 73.2161 202.003 72.5227 202.07C71.5161 202.163 70.7561 202.34 70.2427 202.6C69.7361 202.86 69.4827 203.297 69.4827 203.91C69.4827 204.49 69.6927 204.93 70.1127 205.23C70.5327 205.523 71.1827 205.67 72.0627 205.67ZM80.2702 207V196.38H81.9702V199.64L81.4102 199.44C81.4502 199.047 81.5502 198.66 81.7102 198.28C81.8702 197.893 82.0902 197.547 82.3702 197.24C82.6569 196.927 83.0136 196.68 83.4402 196.5C83.8669 196.313 84.3669 196.22 84.9402 196.22C85.3669 196.22 85.7136 196.257 85.9802 196.33C86.2536 196.397 86.4236 196.45 86.4902 196.49L86.0502 198.16C85.9836 198.113 85.8469 198.053 85.6402 197.98C85.4402 197.907 85.1536 197.87 84.7802 197.87C84.2269 197.87 83.7669 197.97 83.4002 198.17C83.0402 198.37 82.7536 198.637 82.5402 198.97C82.3336 199.297 82.1869 199.653 82.1002 200.04C82.0136 200.427 81.9702 200.81 81.9702 201.19V207H80.2702ZM88.6718 202.37V200.85H96.8818L96.5818 201.35C96.5818 201.31 96.5818 201.273 96.5818 201.24C96.5818 201.2 96.5818 201.163 96.5818 201.13C96.5818 200.517 96.4518 199.957 96.1918 199.45C95.9385 198.937 95.5585 198.527 95.0518 198.22C94.5451 197.913 93.9185 197.76 93.1718 197.76C92.4185 197.76 91.7551 197.92 91.1818 198.24C90.6085 198.56 90.1618 199.013 89.8418 199.6C89.5218 200.18 89.3618 200.873 89.3618 201.68C89.3618 202.5 89.5151 203.207 89.8218 203.8C90.1351 204.393 90.5785 204.85 91.1518 205.17C91.7251 205.49 92.4051 205.65 93.1918 205.65C93.7518 205.65 94.2385 205.593 94.6518 205.48C95.0651 205.36 95.4051 205.203 95.6718 205.01C95.9451 204.81 96.1518 204.593 96.2918 204.36C96.4318 204.127 96.5151 203.893 96.5418 203.66H98.2418C98.2085 204.087 98.0751 204.51 97.8418 204.93C97.6085 205.35 97.2785 205.733 96.8518 206.08C96.4251 206.42 95.9018 206.693 95.2818 206.9C94.6618 207.107 93.9485 207.21 93.1418 207.21C92.0751 207.21 91.1351 206.977 90.3218 206.51C89.5085 206.043 88.8685 205.397 88.4018 204.57C87.9418 203.743 87.7118 202.793 87.7118 201.72C87.7118 200.633 87.9451 199.68 88.4118 198.86C88.8785 198.033 89.5218 197.387 90.3418 196.92C91.1618 196.453 92.0985 196.22 93.1518 196.22C94.2251 196.22 95.1551 196.453 95.9418 196.92C96.7285 197.387 97.3351 198.027 97.7618 198.84C98.1885 199.647 98.4018 200.567 98.4018 201.6C98.4018 201.707 98.3985 201.847 98.3918 202.02C98.3851 202.193 98.3751 202.31 98.3618 202.37H88.6718ZM110.111 207.2C109.471 207.2 108.878 207.133 108.331 207C107.791 206.86 107.318 206.66 106.911 206.4C106.511 206.133 106.198 205.807 105.971 205.42C105.751 205.033 105.641 204.59 105.641 204.09C105.641 204.037 105.641 203.983 105.641 203.93C105.641 203.87 105.641 203.82 105.641 203.78H107.351C107.351 203.82 107.351 203.853 107.351 203.88C107.351 203.907 107.351 203.947 107.351 204C107.351 204.54 107.601 204.953 108.101 205.24C108.601 205.52 109.285 205.66 110.151 205.66C110.685 205.66 111.161 205.607 111.581 205.5C112.001 205.393 112.331 205.23 112.571 205.01C112.818 204.79 112.941 204.513 112.941 204.18C112.941 203.627 112.681 203.233 112.161 203C111.648 202.76 110.878 202.553 109.851 202.38C109.311 202.287 108.798 202.167 108.311 202.02C107.825 201.867 107.391 201.67 107.011 201.43C106.638 201.19 106.341 200.893 106.121 200.54C105.908 200.18 105.801 199.75 105.801 199.25C105.801 198.603 105.991 198.057 106.371 197.61C106.758 197.157 107.278 196.813 107.931 196.58C108.585 196.34 109.311 196.22 110.111 196.22C110.885 196.22 111.598 196.343 112.251 196.59C112.905 196.837 113.428 197.197 113.821 197.67C114.221 198.137 114.421 198.713 114.421 199.4C114.421 199.427 114.421 199.46 114.421 199.5C114.421 199.533 114.421 199.567 114.421 199.6H112.721C112.721 199.567 112.721 199.54 112.721 199.52C112.721 199.5 112.721 199.477 112.721 199.45C112.721 199.063 112.598 198.747 112.351 198.5C112.105 198.247 111.785 198.06 111.391 197.94C110.998 197.813 110.578 197.75 110.131 197.75C109.711 197.75 109.298 197.797 108.891 197.89C108.485 197.977 108.148 198.123 107.881 198.33C107.615 198.537 107.481 198.82 107.481 199.18C107.481 199.54 107.605 199.83 107.851 200.05C108.105 200.263 108.458 200.44 108.911 200.58C109.371 200.713 109.911 200.837 110.531 200.95C111.085 201.05 111.608 201.177 112.101 201.33C112.595 201.477 113.028 201.667 113.401 201.9C113.781 202.133 114.078 202.43 114.291 202.79C114.511 203.143 114.621 203.577 114.621 204.09C114.621 204.61 114.501 205.063 114.261 205.45C114.028 205.837 113.701 206.16 113.281 206.42C112.868 206.68 112.388 206.873 111.841 207C111.301 207.133 110.725 207.2 110.111 207.2ZM121.248 207.16C120.921 207.16 120.601 207.123 120.288 207.05C119.974 206.977 119.691 206.847 119.438 206.66C119.191 206.467 118.994 206.197 118.848 205.85C118.701 205.497 118.628 205.043 118.628 204.49C118.628 204.35 118.628 204.207 118.628 204.06C118.628 203.907 118.628 203.747 118.628 203.58V197.88H116.038V196.38H117.698C117.924 196.38 118.101 196.373 118.228 196.36C118.354 196.34 118.444 196.297 118.498 196.23C118.558 196.157 118.594 196.047 118.608 195.9C118.621 195.747 118.628 195.537 118.628 195.27V192.86H120.338V196.38H123.658V197.88H120.338V203.03C120.338 203.177 120.338 203.32 120.338 203.46C120.338 203.6 120.338 203.73 120.338 203.85C120.338 204.417 120.404 204.86 120.538 205.18C120.678 205.5 120.988 205.66 121.468 205.66C121.661 205.66 121.844 205.643 122.018 205.61C122.191 205.577 122.321 205.543 122.408 205.51V206.99C122.294 207.03 122.134 207.067 121.928 207.1C121.728 207.14 121.501 207.16 121.248 207.16ZM129.757 207.19C128.997 207.19 128.363 207.06 127.857 206.8C127.35 206.533 126.947 206.19 126.647 205.77C126.353 205.35 126.143 204.897 126.017 204.41C125.897 203.917 125.837 203.443 125.837 202.99C125.837 202.737 125.837 202.477 125.837 202.21C125.837 201.937 125.837 201.663 125.837 201.39V196.38H127.547V201.17C127.547 201.417 127.547 201.66 127.547 201.9C127.547 202.14 127.547 202.367 127.547 202.58C127.547 203.12 127.62 203.62 127.767 204.08C127.92 204.54 128.183 204.913 128.557 205.2C128.93 205.48 129.443 205.62 130.097 205.62C130.71 205.62 131.247 205.437 131.707 205.07C132.167 204.697 132.527 204.233 132.787 203.68C133.047 203.12 133.177 202.563 133.177 202.01L134.167 202.42C134.167 203.007 134.063 203.583 133.857 204.15C133.65 204.71 133.353 205.22 132.967 205.68C132.587 206.14 132.123 206.507 131.577 206.78C131.037 207.053 130.43 207.19 129.757 207.19ZM133.177 207V196.38H134.877V207H133.177ZM142.209 207.2C141.335 207.2 140.535 206.99 139.809 206.57C139.082 206.143 138.502 205.52 138.069 204.7C137.635 203.873 137.419 202.867 137.419 201.68C137.419 200.513 137.639 199.523 138.079 198.71C138.519 197.897 139.102 197.28 139.829 196.86C140.555 196.433 141.349 196.22 142.209 196.22C143.029 196.22 143.795 196.417 144.509 196.81C145.229 197.197 145.809 197.737 146.249 198.43C146.689 199.123 146.909 199.927 146.909 200.84C146.909 200.86 146.909 200.88 146.909 200.9C146.909 200.92 146.909 200.94 146.909 200.96L145.689 201.01C145.689 200.99 145.689 200.97 145.689 200.95C145.689 200.923 145.689 200.9 145.689 200.88C145.689 200.3 145.535 199.777 145.229 199.31C144.929 198.843 144.532 198.473 144.039 198.2C143.545 197.92 143.015 197.78 142.449 197.78C141.502 197.78 140.719 198.1 140.099 198.74C139.479 199.373 139.169 200.353 139.169 201.68C139.169 203 139.479 203.983 140.099 204.63C140.725 205.27 141.509 205.59 142.449 205.59C143.042 205.59 143.582 205.447 144.069 205.16C144.562 204.873 144.955 204.49 145.249 204.01C145.542 203.523 145.689 202.98 145.689 202.38L146.909 202.41C146.909 203.317 146.699 204.133 146.279 204.86C145.859 205.58 145.292 206.15 144.579 206.57C143.872 206.99 143.082 207.2 142.209 207.2ZM145.689 207V191.37H147.399V207H145.689ZM150.937 202.37V200.85H159.147L158.847 201.35C158.847 201.31 158.847 201.273 158.847 201.24C158.847 201.2 158.847 201.163 158.847 201.13C158.847 200.517 158.717 199.957 158.457 199.45C158.204 198.937 157.824 198.527 157.317 198.22C156.811 197.913 156.184 197.76 155.437 197.76C154.684 197.76 154.021 197.92 153.447 198.24C152.874 198.56 152.427 199.013 152.107 199.6C151.787 200.18 151.627 200.873 151.627 201.68C151.627 202.5 151.781 203.207 152.087 203.8C152.401 204.393 152.844 204.85 153.417 205.17C153.991 205.49 154.671 205.65 155.457 205.65C156.017 205.65 156.504 205.593 156.917 205.48C157.331 205.36 157.671 205.203 157.937 205.01C158.211 204.81 158.417 204.593 158.557 204.36C158.697 204.127 158.781 203.893 158.807 203.66H160.507C160.474 204.087 160.341 204.51 160.107 204.93C159.874 205.35 159.544 205.733 159.117 206.08C158.691 206.42 158.167 206.693 157.547 206.9C156.927 207.107 156.214 207.21 155.407 207.21C154.341 207.21 153.401 206.977 152.587 206.51C151.774 206.043 151.134 205.397 150.667 204.57C150.207 203.743 149.977 202.793 149.977 201.72C149.977 200.633 150.211 199.68 150.677 198.86C151.144 198.033 151.787 197.387 152.607 196.92C153.427 196.453 154.364 196.22 155.417 196.22C156.491 196.22 157.421 196.453 158.207 196.92C158.994 197.387 159.601 198.027 160.027 198.84C160.454 199.647 160.667 200.567 160.667 201.6C160.667 201.707 160.664 201.847 160.657 202.02C160.651 202.193 160.641 202.31 160.627 202.37H150.937ZM170.917 207V201.91C170.917 201.603 170.917 201.353 170.917 201.16C170.917 200.96 170.917 200.77 170.917 200.59C170.917 200.037 170.824 199.553 170.637 199.14C170.45 198.727 170.157 198.407 169.757 198.18C169.357 197.953 168.834 197.84 168.187 197.84C167.62 197.84 167.094 197.987 166.607 198.28C166.127 198.567 165.74 198.957 165.447 199.45C165.16 199.937 165.017 200.483 165.017 201.09L164.047 200.72C164.047 199.887 164.25 199.13 164.657 198.45C165.07 197.77 165.617 197.23 166.297 196.83C166.984 196.423 167.73 196.22 168.537 196.22C169.357 196.22 170.074 196.377 170.687 196.69C171.3 197.003 171.774 197.453 172.107 198.04C172.447 198.62 172.617 199.32 172.617 200.14C172.617 200.433 172.617 200.753 172.617 201.1C172.617 201.447 172.617 201.77 172.617 202.07V207H170.917ZM163.317 207V196.38H165.017V207H163.317ZM179.49 207.16C179.163 207.16 178.843 207.123 178.53 207.05C178.216 206.977 177.933 206.847 177.68 206.66C177.433 206.467 177.236 206.197 177.09 205.85C176.943 205.497 176.87 205.043 176.87 204.49C176.87 204.35 176.87 204.207 176.87 204.06C176.87 203.907 176.87 203.747 176.87 203.58V197.88H174.28V196.38H175.94C176.166 196.38 176.343 196.373 176.47 196.36C176.596 196.34 176.686 196.297 176.74 196.23C176.8 196.157 176.836 196.047 176.85 195.9C176.863 195.747 176.87 195.537 176.87 195.27V192.86H178.58V196.38H181.9V197.88H178.58V203.03C178.58 203.177 178.58 203.32 178.58 203.46C178.58 203.6 178.58 203.73 178.58 203.85C178.58 204.417 178.646 204.86 178.78 205.18C178.92 205.5 179.23 205.66 179.71 205.66C179.903 205.66 180.086 205.643 180.26 205.61C180.433 205.577 180.563 205.543 180.65 205.51V206.99C180.536 207.03 180.376 207.067 180.17 207.1C179.97 207.14 179.743 207.16 179.49 207.16ZM192.789 207.2C191.982 207.2 191.275 207.073 190.669 206.82C190.069 206.567 189.602 206.203 189.269 205.73C188.935 205.25 188.769 204.677 188.769 204.01C188.769 203.317 188.949 202.74 189.309 202.28C189.669 201.813 190.175 201.45 190.829 201.19C191.482 200.93 192.242 200.757 193.109 200.67C194.415 200.537 195.345 200.407 195.899 200.28C196.452 200.147 196.729 199.933 196.729 199.64C196.729 199.633 196.729 199.63 196.729 199.63C196.729 199.623 196.729 199.617 196.729 199.61C196.729 198.997 196.479 198.54 195.979 198.24C195.479 197.933 194.755 197.78 193.809 197.78C192.822 197.78 192.055 197.953 191.509 198.3C190.962 198.64 190.689 199.193 190.689 199.96H189.009C189.009 199.167 189.212 198.493 189.619 197.94C190.025 197.38 190.589 196.953 191.309 196.66C192.035 196.367 192.872 196.22 193.819 196.22C194.685 196.22 195.465 196.353 196.159 196.62C196.859 196.88 197.412 197.27 197.819 197.79C198.232 198.303 198.439 198.94 198.439 199.7C198.439 199.84 198.439 199.98 198.439 200.12C198.439 200.253 198.439 200.39 198.439 200.53V205C198.439 205.233 198.449 205.46 198.469 205.68C198.489 205.9 198.522 206.093 198.569 206.26C198.629 206.46 198.695 206.623 198.769 206.75C198.842 206.87 198.902 206.953 198.949 207H197.239C197.205 206.967 197.155 206.89 197.089 206.77C197.022 206.643 196.959 206.497 196.899 206.33C196.852 206.197 196.815 206.03 196.789 205.83C196.762 205.623 196.749 205.41 196.749 205.19L197.029 205.38C196.822 205.74 196.519 206.057 196.119 206.33C195.725 206.603 195.249 206.817 194.689 206.97C194.129 207.123 193.495 207.2 192.789 207.2ZM193.059 205.67C193.745 205.67 194.365 205.567 194.919 205.36C195.472 205.147 195.912 204.833 196.239 204.42C196.565 204.007 196.729 203.493 196.729 202.88V200.77L197.109 201.41C196.682 201.577 196.149 201.713 195.509 201.82C194.875 201.92 194.212 202.003 193.519 202.07C192.512 202.163 191.752 202.34 191.239 202.6C190.732 202.86 190.479 203.297 190.479 203.91C190.479 204.49 190.689 204.93 191.109 205.23C191.529 205.523 192.179 205.67 193.059 205.67ZM206.306 207.2C205.293 207.2 204.373 206.98 203.546 206.54C202.72 206.093 202.063 205.457 201.576 204.63C201.096 203.803 200.856 202.82 200.856 201.68C200.856 200.54 201.096 199.563 201.576 198.75C202.063 197.93 202.72 197.303 203.546 196.87C204.373 196.437 205.293 196.22 206.306 196.22C207.08 196.22 207.77 196.34 208.376 196.58C208.983 196.813 209.496 197.127 209.916 197.52C210.336 197.913 210.656 198.347 210.876 198.82C211.103 199.287 211.216 199.753 211.216 200.22C211.216 200.227 211.216 200.237 211.216 200.25C211.216 200.263 211.216 200.277 211.216 200.29H209.526C209.526 200.257 209.523 200.22 209.516 200.18C209.51 200.133 209.503 200.087 209.496 200.04C209.443 199.593 209.273 199.203 208.986 198.87C208.7 198.53 208.326 198.263 207.866 198.07C207.406 197.877 206.883 197.78 206.296 197.78C205.636 197.78 205.023 197.923 204.456 198.21C203.896 198.49 203.443 198.92 203.096 199.5C202.756 200.073 202.586 200.8 202.586 201.68C202.586 202.553 202.756 203.283 203.096 203.87C203.436 204.457 203.886 204.9 204.446 205.2C205.013 205.493 205.63 205.64 206.296 205.64C207.016 205.64 207.61 205.527 208.076 205.3C208.543 205.073 208.893 204.773 209.126 204.4C209.366 204.02 209.5 203.613 209.526 203.18H211.216C211.216 203.66 211.11 204.14 210.896 204.62C210.683 205.093 210.37 205.527 209.956 205.92C209.543 206.307 209.03 206.617 208.416 206.85C207.81 207.083 207.106 207.2 206.306 207.2ZM218.904 207.2C217.891 207.2 216.971 206.98 216.144 206.54C215.317 206.093 214.661 205.457 214.174 204.63C213.694 203.803 213.454 202.82 213.454 201.68C213.454 200.54 213.694 199.563 214.174 198.75C214.661 197.93 215.317 197.303 216.144 196.87C216.971 196.437 217.891 196.22 218.904 196.22C219.677 196.22 220.367 196.34 220.974 196.58C221.581 196.813 222.094 197.127 222.514 197.52C222.934 197.913 223.254 198.347 223.474 198.82C223.701 199.287 223.814 199.753 223.814 200.22C223.814 200.227 223.814 200.237 223.814 200.25C223.814 200.263 223.814 200.277 223.814 200.29H222.124C222.124 200.257 222.121 200.22 222.114 200.18C222.107 200.133 222.101 200.087 222.094 200.04C222.041 199.593 221.871 199.203 221.584 198.87C221.297 198.53 220.924 198.263 220.464 198.07C220.004 197.877 219.481 197.78 218.894 197.78C218.234 197.78 217.621 197.923 217.054 198.21C216.494 198.49 216.041 198.92 215.694 199.5C215.354 200.073 215.184 200.8 215.184 201.68C215.184 202.553 215.354 203.283 215.694 203.87C216.034 204.457 216.484 204.9 217.044 205.2C217.611 205.493 218.227 205.64 218.894 205.64C219.614 205.64 220.207 205.527 220.674 205.3C221.141 205.073 221.491 204.773 221.724 204.4C221.964 204.02 222.097 203.613 222.124 203.18H223.814C223.814 203.66 223.707 204.14 223.494 204.62C223.281 205.093 222.967 205.527 222.554 205.92C222.141 206.307 221.627 206.617 221.014 206.85C220.407 207.083 219.704 207.2 218.904 207.2ZM231.492 207.19C230.425 207.19 229.482 206.953 228.662 206.48C227.848 206 227.208 205.347 226.742 204.52C226.282 203.687 226.052 202.74 226.052 201.68C226.052 200.62 226.282 199.68 226.742 198.86C227.208 198.04 227.848 197.397 228.662 196.93C229.482 196.463 230.425 196.23 231.492 196.23C232.558 196.23 233.498 196.463 234.312 196.93C235.132 197.397 235.772 198.04 236.232 198.86C236.698 199.68 236.932 200.62 236.932 201.68C236.932 202.74 236.698 203.687 236.232 204.52C235.772 205.347 235.132 206 234.312 206.48C233.498 206.953 232.558 207.19 231.492 207.19ZM231.492 205.63C232.225 205.63 232.872 205.467 233.432 205.14C233.992 204.813 234.428 204.353 234.742 203.76C235.062 203.167 235.222 202.473 235.222 201.68C235.222 200.887 235.062 200.2 234.742 199.62C234.428 199.033 233.992 198.583 233.432 198.27C232.872 197.95 232.225 197.79 231.492 197.79C230.765 197.79 230.118 197.95 229.552 198.27C228.992 198.583 228.552 199.033 228.232 199.62C227.918 200.2 227.762 200.887 227.762 201.68C227.762 202.473 227.918 203.167 228.232 203.76C228.552 204.353 228.992 204.813 229.552 205.14C230.118 205.467 230.765 205.63 231.492 205.63ZM246.117 207V202.31C246.117 201.897 246.117 201.54 246.117 201.24C246.117 200.933 246.117 200.677 246.117 200.47C246.117 200.21 246.097 199.93 246.057 199.63C246.023 199.323 245.94 199.037 245.807 198.77C245.673 198.497 245.463 198.273 245.177 198.1C244.897 197.927 244.507 197.84 244.007 197.84C243.5 197.84 243.073 197.94 242.727 198.14C242.38 198.333 242.1 198.59 241.887 198.91C241.673 199.23 241.52 199.583 241.427 199.97C241.333 200.35 241.287 200.727 241.287 201.1L240.327 200.71C240.327 199.91 240.493 199.17 240.827 198.49C241.16 197.81 241.627 197.263 242.227 196.85C242.833 196.43 243.543 196.22 244.357 196.22C245.163 196.22 245.82 196.383 246.327 196.71C246.833 197.037 247.207 197.487 247.447 198.06C247.687 198.633 247.807 199.293 247.807 200.04C247.807 200.307 247.807 200.65 247.807 201.07C247.807 201.483 247.807 201.957 247.807 202.49V207H246.117ZM239.587 207V196.38H241.287V207H239.587ZM252.627 207V202.31C252.627 201.857 252.627 201.483 252.627 201.19C252.627 200.89 252.627 200.637 252.627 200.43C252.627 200.17 252.61 199.89 252.577 199.59C252.543 199.29 252.46 199.01 252.327 198.75C252.193 198.483 251.98 198.267 251.687 198.1C251.4 197.927 250.997 197.84 250.477 197.84C249.963 197.84 249.533 197.937 249.187 198.13C248.847 198.323 248.573 198.577 248.367 198.89C248.167 199.203 248.023 199.543 247.937 199.91C247.85 200.27 247.807 200.617 247.807 200.95L246.847 200.58C246.847 199.82 247.007 199.11 247.327 198.45C247.653 197.783 248.113 197.247 248.707 196.84C249.307 196.427 250.017 196.22 250.837 196.22C251.603 196.22 252.243 196.37 252.757 196.67C253.277 196.97 253.667 197.393 253.927 197.94C254.193 198.48 254.327 199.123 254.327 199.87C254.327 200.15 254.327 200.497 254.327 200.91C254.327 201.323 254.327 201.79 254.327 202.31V207H252.627ZM263.812 207V202.31C263.812 201.897 263.812 201.54 263.812 201.24C263.812 200.933 263.812 200.677 263.812 200.47C263.812 200.21 263.792 199.93 263.752 199.63C263.719 199.323 263.635 199.037 263.502 198.77C263.369 198.497 263.159 198.273 262.872 198.1C262.592 197.927 262.202 197.84 261.702 197.84C261.195 197.84 260.769 197.94 260.422 198.14C260.075 198.333 259.795 198.59 259.582 198.91C259.369 199.23 259.215 199.583 259.122 199.97C259.029 200.35 258.982 200.727 258.982 201.1L258.022 200.71C258.022 199.91 258.189 199.17 258.522 198.49C258.855 197.81 259.322 197.263 259.922 196.85C260.529 196.43 261.239 196.22 262.052 196.22C262.859 196.22 263.515 196.383 264.022 196.71C264.529 197.037 264.902 197.487 265.142 198.06C265.382 198.633 265.502 199.293 265.502 200.04C265.502 200.307 265.502 200.65 265.502 201.07C265.502 201.483 265.502 201.957 265.502 202.49V207H263.812ZM257.282 207V196.38H258.982V207H257.282ZM270.322 207V202.31C270.322 201.857 270.322 201.483 270.322 201.19C270.322 200.89 270.322 200.637 270.322 200.43C270.322 200.17 270.305 199.89 270.272 199.59C270.239 199.29 270.155 199.01 270.022 198.75C269.889 198.483 269.675 198.267 269.382 198.1C269.095 197.927 268.692 197.84 268.172 197.84C267.659 197.84 267.229 197.937 266.882 198.13C266.542 198.323 266.269 198.577 266.062 198.89C265.862 199.203 265.719 199.543 265.632 199.91C265.545 200.27 265.502 200.617 265.502 200.95L264.542 200.58C264.542 199.82 264.702 199.11 265.022 198.45C265.349 197.783 265.809 197.247 266.402 196.84C267.002 196.427 267.712 196.22 268.532 196.22C269.299 196.22 269.939 196.37 270.452 196.67C270.972 196.97 271.362 197.393 271.622 197.94C271.889 198.48 272.022 199.123 272.022 199.87C272.022 200.15 272.022 200.497 272.022 200.91C272.022 201.323 272.022 201.79 272.022 202.31V207H270.322ZM280.007 207.19C278.941 207.19 277.997 206.953 277.177 206.48C276.364 206 275.724 205.347 275.257 204.52C274.797 203.687 274.567 202.74 274.567 201.68C274.567 200.62 274.797 199.68 275.257 198.86C275.724 198.04 276.364 197.397 277.177 196.93C277.997 196.463 278.941 196.23 280.007 196.23C281.074 196.23 282.014 196.463 282.827 196.93C283.647 197.397 284.287 198.04 284.747 198.86C285.214 199.68 285.447 200.62 285.447 201.68C285.447 202.74 285.214 203.687 284.747 204.52C284.287 205.347 283.647 206 282.827 206.48C282.014 206.953 281.074 207.19 280.007 207.19ZM280.007 205.63C280.741 205.63 281.387 205.467 281.947 205.14C282.507 204.813 282.944 204.353 283.257 203.76C283.577 203.167 283.737 202.473 283.737 201.68C283.737 200.887 283.577 200.2 283.257 199.62C282.944 199.033 282.507 198.583 281.947 198.27C281.387 197.95 280.741 197.79 280.007 197.79C279.281 197.79 278.634 197.95 278.067 198.27C277.507 198.583 277.067 199.033 276.747 199.62C276.434 200.2 276.277 200.887 276.277 201.68C276.277 202.473 276.434 203.167 276.747 203.76C277.067 204.353 277.507 204.813 278.067 205.14C278.634 205.467 279.281 205.63 280.007 205.63ZM292.482 207.2C291.609 207.2 290.809 206.99 290.082 206.57C289.356 206.143 288.776 205.52 288.342 204.7C287.909 203.873 287.692 202.867 287.692 201.68C287.692 200.513 287.912 199.523 288.352 198.71C288.792 197.897 289.376 197.28 290.102 196.86C290.829 196.433 291.622 196.22 292.482 196.22C293.302 196.22 294.069 196.417 294.782 196.81C295.502 197.197 296.082 197.737 296.522 198.43C296.962 199.123 297.182 199.927 297.182 200.84C297.182 200.86 297.182 200.88 297.182 200.9C297.182 200.92 297.182 200.94 297.182 200.96L295.962 201.01C295.962 200.99 295.962 200.97 295.962 200.95C295.962 200.923 295.962 200.9 295.962 200.88C295.962 200.3 295.809 199.777 295.502 199.31C295.202 198.843 294.806 198.473 294.312 198.2C293.819 197.92 293.289 197.78 292.722 197.78C291.776 197.78 290.992 198.1 290.372 198.74C289.752 199.373 289.442 200.353 289.442 201.68C289.442 203 289.752 203.983 290.372 204.63C290.999 205.27 291.782 205.59 292.722 205.59C293.316 205.59 293.856 205.447 294.342 205.16C294.836 204.873 295.229 204.49 295.522 204.01C295.816 203.523 295.962 202.98 295.962 202.38L297.182 202.41C297.182 203.317 296.972 204.133 296.552 204.86C296.132 205.58 295.566 206.15 294.852 206.57C294.146 206.99 293.356 207.2 292.482 207.2ZM295.962 207V191.37H297.672V207H295.962ZM304.371 207.2C303.564 207.2 302.858 207.073 302.251 206.82C301.651 206.567 301.184 206.203 300.851 205.73C300.518 205.25 300.351 204.677 300.351 204.01C300.351 203.317 300.531 202.74 300.891 202.28C301.251 201.813 301.758 201.45 302.411 201.19C303.064 200.93 303.824 200.757 304.691 200.67C305.998 200.537 306.928 200.407 307.481 200.28C308.034 200.147 308.311 199.933 308.311 199.64C308.311 199.633 308.311 199.63 308.311 199.63C308.311 199.623 308.311 199.617 308.311 199.61C308.311 198.997 308.061 198.54 307.561 198.24C307.061 197.933 306.338 197.78 305.391 197.78C304.404 197.78 303.638 197.953 303.091 198.3C302.544 198.64 302.271 199.193 302.271 199.96H300.591C300.591 199.167 300.794 198.493 301.201 197.94C301.608 197.38 302.171 196.953 302.891 196.66C303.618 196.367 304.454 196.22 305.401 196.22C306.268 196.22 307.048 196.353 307.741 196.62C308.441 196.88 308.994 197.27 309.401 197.79C309.814 198.303 310.021 198.94 310.021 199.7C310.021 199.84 310.021 199.98 310.021 200.12C310.021 200.253 310.021 200.39 310.021 200.53V205C310.021 205.233 310.031 205.46 310.051 205.68C310.071 205.9 310.104 206.093 310.151 206.26C310.211 206.46 310.278 206.623 310.351 206.75C310.424 206.87 310.484 206.953 310.531 207H308.821C308.788 206.967 308.738 206.89 308.671 206.77C308.604 206.643 308.541 206.497 308.481 206.33C308.434 206.197 308.398 206.03 308.371 205.83C308.344 205.623 308.331 205.41 308.331 205.19L308.611 205.38C308.404 205.74 308.101 206.057 307.701 206.33C307.308 206.603 306.831 206.817 306.271 206.97C305.711 207.123 305.078 207.2 304.371 207.2ZM304.641 205.67C305.328 205.67 305.948 205.567 306.501 205.36C307.054 205.147 307.494 204.833 307.821 204.42C308.148 204.007 308.311 203.493 308.311 202.88V200.77L308.691 201.41C308.264 201.577 307.731 201.713 307.091 201.82C306.458 201.92 305.794 202.003 305.101 202.07C304.094 202.163 303.334 202.34 302.821 202.6C302.314 202.86 302.061 203.297 302.061 203.91C302.061 204.49 302.271 204.93 302.691 205.23C303.111 205.523 303.761 205.67 304.641 205.67ZM316.755 207.16C316.429 207.16 316.109 207.123 315.795 207.05C315.482 206.977 315.199 206.847 314.945 206.66C314.699 206.467 314.502 206.197 314.355 205.85C314.209 205.497 314.135 205.043 314.135 204.49C314.135 204.35 314.135 204.207 314.135 204.06C314.135 203.907 314.135 203.747 314.135 203.58V197.88H311.545V196.38H313.205C313.432 196.38 313.609 196.373 313.735 196.36C313.862 196.34 313.952 196.297 314.005 196.23C314.065 196.157 314.102 196.047 314.115 195.9C314.129 195.747 314.135 195.537 314.135 195.27V192.86H315.845V196.38H319.165V197.88H315.845V203.03C315.845 203.177 315.845 203.32 315.845 203.46C315.845 203.6 315.845 203.73 315.845 203.85C315.845 204.417 315.912 204.86 316.045 205.18C316.185 205.5 316.495 205.66 316.975 205.66C317.169 205.66 317.352 205.643 317.525 205.61C317.699 205.577 317.829 205.543 317.915 205.51V206.99C317.802 207.03 317.642 207.067 317.435 207.1C317.235 207.14 317.009 207.16 316.755 207.16ZM321.444 207V196.38H323.124V207H321.444ZM322.294 193.94C321.981 193.94 321.708 193.853 321.474 193.68C321.248 193.5 321.134 193.257 321.134 192.95C321.134 192.65 321.248 192.413 321.474 192.24C321.708 192.06 321.981 191.97 322.294 191.97C322.608 191.97 322.878 192.06 323.104 192.24C323.331 192.413 323.444 192.65 323.444 192.95C323.444 193.257 323.331 193.5 323.104 193.68C322.878 193.853 322.608 193.94 322.294 193.94ZM331.316 207.19C330.249 207.19 329.306 206.953 328.486 206.48C327.673 206 327.033 205.347 326.566 204.52C326.106 203.687 325.876 202.74 325.876 201.68C325.876 200.62 326.106 199.68 326.566 198.86C327.033 198.04 327.673 197.397 328.486 196.93C329.306 196.463 330.249 196.23 331.316 196.23C332.383 196.23 333.323 196.463 334.136 196.93C334.956 197.397 335.596 198.04 336.056 198.86C336.523 199.68 336.756 200.62 336.756 201.68C336.756 202.74 336.523 203.687 336.056 204.52C335.596 205.347 334.956 206 334.136 206.48C333.323 206.953 332.383 207.19 331.316 207.19ZM331.316 205.63C332.049 205.63 332.696 205.467 333.256 205.14C333.816 204.813 334.253 204.353 334.566 203.76C334.886 203.167 335.046 202.473 335.046 201.68C335.046 200.887 334.886 200.2 334.566 199.62C334.253 199.033 333.816 198.583 333.256 198.27C332.696 197.95 332.049 197.79 331.316 197.79C330.589 197.79 329.943 197.95 329.376 198.27C328.816 198.583 328.376 199.033 328.056 199.62C327.743 200.2 327.586 200.887 327.586 201.68C327.586 202.473 327.743 203.167 328.056 203.76C328.376 204.353 328.816 204.813 329.376 205.14C329.943 205.467 330.589 205.63 331.316 205.63ZM347.011 207V201.91C347.011 201.603 347.011 201.353 347.011 201.16C347.011 200.96 347.011 200.77 347.011 200.59C347.011 200.037 346.918 199.553 346.731 199.14C346.544 198.727 346.251 198.407 345.851 198.18C345.451 197.953 344.928 197.84 344.281 197.84C343.714 197.84 343.188 197.987 342.701 198.28C342.221 198.567 341.834 198.957 341.541 199.45C341.254 199.937 341.111 200.483 341.111 201.09L340.141 200.72C340.141 199.887 340.344 199.13 340.751 198.45C341.164 197.77 341.711 197.23 342.391 196.83C343.078 196.423 343.824 196.22 344.631 196.22C345.451 196.22 346.168 196.377 346.781 196.69C347.394 197.003 347.868 197.453 348.201 198.04C348.541 198.62 348.711 199.32 348.711 200.14C348.711 200.433 348.711 200.753 348.711 201.1C348.711 201.447 348.711 201.77 348.711 202.07V207H347.011ZM339.411 207V196.38H341.111V207H339.411ZM38.6695 239.16C38.3428 239.16 38.0228 239.123 37.7095 239.05C37.3961 238.977 37.1128 238.847 36.8595 238.66C36.6128 238.467 36.4161 238.197 36.2695 237.85C36.1228 237.497 36.0495 237.043 36.0495 236.49C36.0495 236.35 36.0495 236.207 36.0495 236.06C36.0495 235.907 36.0495 235.747 36.0495 235.58V229.88H33.4595V228.38H35.1195C35.3461 228.38 35.5228 228.373 35.6495 228.36C35.7761 228.34 35.8661 228.297 35.9195 228.23C35.9795 228.157 36.0161 228.047 36.0295 227.9C36.0428 227.747 36.0495 227.537 36.0495 227.27V224.86H37.7595V228.38H41.0795V229.88H37.7595V235.03C37.7595 235.177 37.7595 235.32 37.7595 235.46C37.7595 235.6 37.7595 235.73 37.7595 235.85C37.7595 236.417 37.8261 236.86 37.9595 237.18C38.0995 237.5 38.4095 237.66 38.8895 237.66C39.0828 237.66 39.2661 237.643 39.4395 237.61C39.6128 237.577 39.7428 237.543 39.8295 237.51V238.99C39.7161 239.03 39.5561 239.067 39.3495 239.1C39.1495 239.14 38.9228 239.16 38.6695 239.16ZM47.937 239.19C46.8703 239.19 45.927 238.953 45.107 238.48C44.2936 238 43.6536 237.347 43.187 236.52C42.727 235.687 42.497 234.74 42.497 233.68C42.497 232.62 42.727 231.68 43.187 230.86C43.6536 230.04 44.2936 229.397 45.107 228.93C45.927 228.463 46.8703 228.23 47.937 228.23C49.0036 228.23 49.9436 228.463 50.757 228.93C51.577 229.397 52.217 230.04 52.677 230.86C53.1436 231.68 53.377 232.62 53.377 233.68C53.377 234.74 53.1436 235.687 52.677 236.52C52.217 237.347 51.577 238 50.757 238.48C49.9436 238.953 49.0036 239.19 47.937 239.19ZM47.937 237.63C48.6703 237.63 49.317 237.467 49.877 237.14C50.437 236.813 50.8736 236.353 51.187 235.76C51.507 235.167 51.667 234.473 51.667 233.68C51.667 232.887 51.507 232.2 51.187 231.62C50.8736 231.033 50.437 230.583 49.877 230.27C49.317 229.95 48.6703 229.79 47.937 229.79C47.2103 229.79 46.5636 229.95 45.997 230.27C45.437 230.583 44.997 231.033 44.677 231.62C44.3636 232.2 44.207 232.887 44.207 233.68C44.207 234.473 44.3636 235.167 44.677 235.76C44.997 236.353 45.437 236.813 45.997 237.14C46.5636 237.467 47.2103 237.63 47.937 237.63ZM62.342 239V229.88H60.022V228.38H62.342V227.01C62.342 226.537 62.3953 226.103 62.502 225.71C62.6153 225.31 62.7753 224.957 62.982 224.65C63.1953 224.343 63.452 224.083 63.752 223.87C64.052 223.657 64.392 223.497 64.772 223.39C65.1586 223.277 65.5786 223.22 66.032 223.22C66.3586 223.22 66.6186 223.24 66.812 223.28C67.0053 223.32 67.1353 223.357 67.202 223.39V224.89C67.122 224.863 66.9886 224.833 66.802 224.8C66.6153 224.767 66.4153 224.75 66.202 224.75C65.7486 224.75 65.3786 224.82 65.092 224.96C64.812 225.1 64.5953 225.293 64.442 225.54C64.2886 225.78 64.182 226.053 64.122 226.36C64.0686 226.667 64.042 226.987 64.042 227.32V228.38H67.142V229.88H64.042V239H62.342ZM69.212 239V228.38H70.892V239H69.212ZM70.062 225.94C69.7486 225.94 69.4753 225.853 69.242 225.68C69.0153 225.5 68.902 225.257 68.902 224.95C68.902 224.65 69.0153 224.413 69.242 224.24C69.4753 224.06 69.7486 223.97 70.062 223.97C70.3753 223.97 70.6453 224.06 70.872 224.24C71.0986 224.413 71.212 224.65 71.212 224.95C71.212 225.257 71.0986 225.5 70.872 225.68C70.6453 225.853 70.3753 225.94 70.062 225.94ZM81.6593 239V233.91C81.6593 233.603 81.6593 233.353 81.6593 233.16C81.6593 232.96 81.6593 232.77 81.6593 232.59C81.6593 232.037 81.566 231.553 81.3793 231.14C81.1926 230.727 80.8993 230.407 80.4993 230.18C80.0993 229.953 79.576 229.84 78.9293 229.84C78.3626 229.84 77.836 229.987 77.3493 230.28C76.8693 230.567 76.4826 230.957 76.1893 231.45C75.9026 231.937 75.7593 232.483 75.7593 233.09L74.7893 232.72C74.7893 231.887 74.9926 231.13 75.3993 230.45C75.8126 229.77 76.3593 229.23 77.0393 228.83C77.726 228.423 78.4726 228.22 79.2793 228.22C80.0993 228.22 80.816 228.377 81.4293 228.69C82.0426 229.003 82.516 229.453 82.8493 230.04C83.1893 230.62 83.3593 231.32 83.3593 232.14C83.3593 232.433 83.3593 232.753 83.3593 233.1C83.3593 233.447 83.3593 233.77 83.3593 234.07V239H81.6593ZM74.0593 239V228.38H75.7593V239H74.0593ZM90.7049 239.2C89.8316 239.2 89.0316 238.99 88.3049 238.57C87.5783 238.143 86.9983 237.52 86.5649 236.7C86.1316 235.873 85.9149 234.867 85.9149 233.68C85.9149 232.513 86.1349 231.523 86.5749 230.71C87.0149 229.897 87.5983 229.28 88.3249 228.86C89.0516 228.433 89.8449 228.22 90.7049 228.22C91.5249 228.22 92.2916 228.417 93.0049 228.81C93.7249 229.197 94.3049 229.737 94.7449 230.43C95.1849 231.123 95.4049 231.927 95.4049 232.84C95.4049 232.86 95.4049 232.88 95.4049 232.9C95.4049 232.92 95.4049 232.94 95.4049 232.96L94.1849 233.01C94.1849 232.99 94.1849 232.97 94.1849 232.95C94.1849 232.923 94.1849 232.9 94.1849 232.88C94.1849 232.3 94.0316 231.777 93.7249 231.31C93.4249 230.843 93.0283 230.473 92.5349 230.2C92.0416 229.92 91.5116 229.78 90.9449 229.78C89.9983 229.78 89.2149 230.1 88.5949 230.74C87.9749 231.373 87.6649 232.353 87.6649 233.68C87.6649 235 87.9749 235.983 88.5949 236.63C89.2216 237.27 90.0049 237.59 90.9449 237.59C91.5383 237.59 92.0783 237.447 92.5649 237.16C93.0583 236.873 93.4516 236.49 93.7449 236.01C94.0383 235.523 94.1849 234.98 94.1849 234.38L95.4049 234.41C95.4049 235.317 95.1949 236.133 94.7749 236.86C94.3549 237.58 93.7883 238.15 93.0749 238.57C92.3683 238.99 91.5783 239.2 90.7049 239.2ZM94.1849 239V223.37H95.8949V239H94.1849ZM108.084 239.16C107.757 239.16 107.437 239.123 107.124 239.05C106.81 238.977 106.527 238.847 106.274 238.66C106.027 238.467 105.83 238.197 105.684 237.85C105.537 237.497 105.464 237.043 105.464 236.49C105.464 236.35 105.464 236.207 105.464 236.06C105.464 235.907 105.464 235.747 105.464 235.58V229.88H102.874V228.38H104.534C104.76 228.38 104.937 228.373 105.064 228.36C105.19 228.34 105.28 228.297 105.334 228.23C105.394 228.157 105.43 228.047 105.444 227.9C105.457 227.747 105.464 227.537 105.464 227.27V224.86H107.174V228.38H110.494V229.88H107.174V235.03C107.174 235.177 107.174 235.32 107.174 235.46C107.174 235.6 107.174 235.73 107.174 235.85C107.174 236.417 107.24 236.86 107.374 237.18C107.514 237.5 107.824 237.66 108.304 237.66C108.497 237.66 108.68 237.643 108.854 237.61C109.027 237.577 109.157 237.543 109.244 237.51V238.99C109.13 239.03 108.97 239.067 108.764 239.1C108.564 239.14 108.337 239.16 108.084 239.16ZM120.283 239V235.05C120.283 234.863 120.283 234.643 120.283 234.39C120.283 234.13 120.283 233.87 120.283 233.61C120.283 233.343 120.283 233.117 120.283 232.93C120.283 231.91 120.063 231.14 119.623 230.62C119.189 230.1 118.499 229.84 117.553 229.84C116.919 229.84 116.363 229.963 115.883 230.21C115.409 230.457 115.039 230.793 114.773 231.22C114.506 231.647 114.373 232.13 114.373 232.67L113.293 232.34C113.293 231.58 113.489 230.89 113.883 230.27C114.283 229.643 114.826 229.147 115.513 228.78C116.206 228.407 116.989 228.22 117.863 228.22C119.136 228.22 120.139 228.603 120.873 229.37C121.613 230.137 121.983 231.197 121.983 232.55C121.983 232.903 121.983 233.31 121.983 233.77C121.983 234.23 121.983 234.713 121.983 235.22V239H120.283ZM112.673 239V223.37H114.373V239H112.673ZM125.488 234.37V232.85H133.698L133.398 233.35C133.398 233.31 133.398 233.273 133.398 233.24C133.398 233.2 133.398 233.163 133.398 233.13C133.398 232.517 133.268 231.957 133.008 231.45C132.755 230.937 132.375 230.527 131.868 230.22C131.362 229.913 130.735 229.76 129.988 229.76C129.235 229.76 128.572 229.92 127.998 230.24C127.425 230.56 126.978 231.013 126.658 231.6C126.338 232.18 126.178 232.873 126.178 233.68C126.178 234.5 126.332 235.207 126.638 235.8C126.952 236.393 127.395 236.85 127.968 237.17C128.542 237.49 129.222 237.65 130.008 237.65C130.568 237.65 131.055 237.593 131.468 237.48C131.882 237.36 132.222 237.203 132.488 237.01C132.762 236.81 132.968 236.593 133.108 236.36C133.248 236.127 133.332 235.893 133.358 235.66H135.058C135.025 236.087 134.892 236.51 134.658 236.93C134.425 237.35 134.095 237.733 133.668 238.08C133.242 238.42 132.718 238.693 132.098 238.9C131.478 239.107 130.765 239.21 129.958 239.21C128.892 239.21 127.952 238.977 127.138 238.51C126.325 238.043 125.685 237.397 125.218 236.57C124.758 235.743 124.528 234.793 124.528 233.72C124.528 232.633 124.762 231.68 125.228 230.86C125.695 230.033 126.338 229.387 127.158 228.92C127.978 228.453 128.915 228.22 129.968 228.22C131.042 228.22 131.972 228.453 132.758 228.92C133.545 229.387 134.152 230.027 134.578 230.84C135.005 231.647 135.218 232.567 135.218 233.6C135.218 233.707 135.215 233.847 135.208 234.02C135.202 234.193 135.192 234.31 135.178 234.37H125.488ZM142.868 239V228.38H144.568V231.64L144.008 231.44C144.048 231.047 144.148 230.66 144.308 230.28C144.468 229.893 144.688 229.547 144.968 229.24C145.255 228.927 145.611 228.68 146.038 228.5C146.465 228.313 146.965 228.22 147.538 228.22C147.965 228.22 148.311 228.257 148.578 228.33C148.851 228.397 149.021 228.45 149.088 228.49L148.648 230.16C148.581 230.113 148.445 230.053 148.238 229.98C148.038 229.907 147.751 229.87 147.378 229.87C146.825 229.87 146.365 229.97 145.998 230.17C145.638 230.37 145.351 230.637 145.138 230.97C144.931 231.297 144.785 231.653 144.698 232.04C144.611 232.427 144.568 232.81 144.568 233.19V239H142.868ZM151.015 239V228.38H152.695V239H151.015ZM151.865 225.94C151.551 225.94 151.278 225.853 151.045 225.68C150.818 225.5 150.705 225.257 150.705 224.95C150.705 224.65 150.818 224.413 151.045 224.24C151.278 224.06 151.551 223.97 151.865 223.97C152.178 223.97 152.448 224.06 152.675 224.24C152.901 224.413 153.015 224.65 153.015 224.95C153.015 225.257 152.901 225.5 152.675 225.68C152.448 225.853 152.178 225.94 151.865 225.94ZM162.636 238.35C163.21 238.397 163.713 238.503 164.146 238.67C164.586 238.83 164.93 239.067 165.176 239.38C165.423 239.7 165.546 240.117 165.546 240.63C165.546 241.197 165.353 241.697 164.966 242.13C164.58 242.57 163.993 242.913 163.206 243.16C162.42 243.407 161.43 243.53 160.236 243.53C158.55 243.53 157.276 243.283 156.416 242.79C155.556 242.303 155.126 241.637 155.126 240.79C155.126 240.523 155.156 240.287 155.216 240.08C155.283 239.88 155.356 239.717 155.436 239.59L157.056 239.83C157.003 239.903 156.95 240.013 156.896 240.16C156.85 240.313 156.826 240.49 156.826 240.69C156.826 241.223 157.13 241.597 157.736 241.81C158.343 242.03 159.203 242.14 160.316 242.14C161.15 242.14 161.833 242.083 162.366 241.97C162.9 241.857 163.296 241.693 163.556 241.48C163.816 241.267 163.946 241.017 163.946 240.73C163.946 240.297 163.763 240.027 163.396 239.92C163.036 239.82 162.59 239.75 162.056 239.71L158.016 239.41C157.343 239.357 156.793 239.15 156.366 238.79C155.946 238.423 155.736 237.98 155.736 237.46C155.736 237.14 155.813 236.837 155.966 236.55C156.126 236.263 156.31 236.023 156.516 235.83C156.73 235.63 156.92 235.51 157.086 235.47L158.426 236.08C158.26 236.107 158.053 236.223 157.806 236.43C157.566 236.63 157.446 236.867 157.446 237.14C157.446 237.387 157.543 237.59 157.736 237.75C157.93 237.903 158.313 238.003 158.886 238.05L162.636 238.35ZM164.106 228.38H165.706L165.046 232.56C164.926 233.34 164.676 234.047 164.296 234.68C163.916 235.307 163.396 235.807 162.736 236.18C162.083 236.547 161.273 236.73 160.306 236.73C159.3 236.73 158.44 236.547 157.726 236.18C157.013 235.813 156.466 235.313 156.086 234.68C155.706 234.04 155.516 233.32 155.516 232.52C155.516 231.707 155.713 230.977 156.106 230.33C156.506 229.677 157.06 229.163 157.766 228.79C158.473 228.41 159.283 228.22 160.196 228.22C161.016 228.22 161.733 228.363 162.346 228.65C162.96 228.93 163.443 229.283 163.796 229.71C164.156 230.137 164.356 230.567 164.396 231L163.756 231.04L164.106 228.38ZM160.296 235.21C160.943 235.21 161.496 235.103 161.956 234.89C162.423 234.677 162.78 234.367 163.026 233.96C163.28 233.553 163.406 233.06 163.406 232.48C163.406 231.92 163.28 231.437 163.026 231.03C162.78 230.617 162.423 230.3 161.956 230.08C161.496 229.853 160.946 229.74 160.306 229.74C159.693 229.74 159.15 229.857 158.676 230.09C158.21 230.317 157.843 230.637 157.576 231.05C157.316 231.463 157.186 231.95 157.186 232.51C157.186 233.077 157.31 233.563 157.556 233.97C157.81 234.37 158.166 234.677 158.626 234.89C159.093 235.103 159.65 235.21 160.296 235.21ZM175.654 239V235.05C175.654 234.863 175.654 234.643 175.654 234.39C175.654 234.13 175.654 233.87 175.654 233.61C175.654 233.343 175.654 233.117 175.654 232.93C175.654 231.91 175.434 231.14 174.994 230.62C174.56 230.1 173.87 229.84 172.924 229.84C172.29 229.84 171.734 229.963 171.254 230.21C170.78 230.457 170.41 230.793 170.144 231.22C169.877 231.647 169.744 232.13 169.744 232.67L168.664 232.34C168.664 231.58 168.86 230.89 169.254 230.27C169.654 229.643 170.197 229.147 170.884 228.78C171.577 228.407 172.36 228.22 173.234 228.22C174.507 228.22 175.51 228.603 176.244 229.37C176.984 230.137 177.354 231.197 177.354 232.55C177.354 232.903 177.354 233.31 177.354 233.77C177.354 234.23 177.354 234.713 177.354 235.22V239H175.654ZM168.044 239V223.37H169.744V239H168.044ZM184.216 239.16C183.89 239.16 183.57 239.123 183.256 239.05C182.943 238.977 182.66 238.847 182.406 238.66C182.16 238.467 181.963 238.197 181.816 237.85C181.67 237.497 181.596 237.043 181.596 236.49C181.596 236.35 181.596 236.207 181.596 236.06C181.596 235.907 181.596 235.747 181.596 235.58V229.88H179.006V228.38H180.666C180.893 228.38 181.07 228.373 181.196 228.36C181.323 228.34 181.413 228.297 181.466 228.23C181.526 228.157 181.563 228.047 181.576 227.9C181.59 227.747 181.596 227.537 181.596 227.27V224.86H183.306V228.38H186.626V229.88H183.306V235.03C183.306 235.177 183.306 235.32 183.306 235.46C183.306 235.6 183.306 235.73 183.306 235.85C183.306 236.417 183.373 236.86 183.506 237.18C183.646 237.5 183.956 237.66 184.436 237.66C184.63 237.66 184.813 237.643 184.986 237.61C185.16 237.577 185.29 237.543 185.376 237.51V238.99C185.263 239.03 185.103 239.067 184.896 239.1C184.696 239.14 184.47 239.16 184.216 239.16ZM201.415 239V235.05C201.415 234.863 201.415 234.643 201.415 234.39C201.415 234.13 201.415 233.87 201.415 233.61C201.415 233.343 201.415 233.117 201.415 232.93C201.415 231.91 201.195 231.14 200.755 230.62C200.322 230.1 199.632 229.84 198.685 229.84C198.052 229.84 197.495 229.963 197.015 230.21C196.542 230.457 196.172 230.793 195.905 231.22C195.639 231.647 195.505 232.13 195.505 232.67L194.425 232.34C194.425 231.58 194.622 230.89 195.015 230.27C195.415 229.643 195.959 229.147 196.645 228.78C197.339 228.407 198.122 228.22 198.995 228.22C200.269 228.22 201.272 228.603 202.005 229.37C202.745 230.137 203.115 231.197 203.115 232.55C203.115 232.903 203.115 233.31 203.115 233.77C203.115 234.23 203.115 234.713 203.115 235.22V239H201.415ZM193.805 239V223.37H195.505V239H193.805ZM211.101 239.19C210.034 239.19 209.091 238.953 208.271 238.48C207.458 238 206.818 237.347 206.351 236.52C205.891 235.687 205.661 234.74 205.661 233.68C205.661 232.62 205.891 231.68 206.351 230.86C206.818 230.04 207.458 229.397 208.271 228.93C209.091 228.463 210.034 228.23 211.101 228.23C212.168 228.23 213.108 228.463 213.921 228.93C214.741 229.397 215.381 230.04 215.841 230.86C216.308 231.68 216.541 232.62 216.541 233.68C216.541 234.74 216.308 235.687 215.841 236.52C215.381 237.347 214.741 238 213.921 238.48C213.108 238.953 212.168 239.19 211.101 239.19ZM211.101 237.63C211.834 237.63 212.481 237.467 213.041 237.14C213.601 236.813 214.038 236.353 214.351 235.76C214.671 235.167 214.831 234.473 214.831 233.68C214.831 232.887 214.671 232.2 214.351 231.62C214.038 231.033 213.601 230.583 213.041 230.27C212.481 229.95 211.834 229.79 211.101 229.79C210.374 229.79 209.728 229.95 209.161 230.27C208.601 230.583 208.161 231.033 207.841 231.62C207.528 232.2 207.371 232.887 207.371 233.68C207.371 234.473 207.528 235.167 207.841 235.76C208.161 236.353 208.601 236.813 209.161 237.14C209.728 237.467 210.374 237.63 211.101 237.63ZM225.726 239V234.31C225.726 233.897 225.726 233.54 225.726 233.24C225.726 232.933 225.726 232.677 225.726 232.47C225.726 232.21 225.706 231.93 225.666 231.63C225.633 231.323 225.549 231.037 225.416 230.77C225.283 230.497 225.073 230.273 224.786 230.1C224.506 229.927 224.116 229.84 223.616 229.84C223.109 229.84 222.683 229.94 222.336 230.14C221.989 230.333 221.709 230.59 221.496 230.91C221.283 231.23 221.129 231.583 221.036 231.97C220.943 232.35 220.896 232.727 220.896 233.1L219.936 232.71C219.936 231.91 220.103 231.17 220.436 230.49C220.769 229.81 221.236 229.263 221.836 228.85C222.443 228.43 223.153 228.22 223.966 228.22C224.773 228.22 225.429 228.383 225.936 228.71C226.443 229.037 226.816 229.487 227.056 230.06C227.296 230.633 227.416 231.293 227.416 232.04C227.416 232.307 227.416 232.65 227.416 233.07C227.416 233.483 227.416 233.957 227.416 234.49V239H225.726ZM219.196 239V228.38H220.896V239H219.196ZM232.236 239V234.31C232.236 233.857 232.236 233.483 232.236 233.19C232.236 232.89 232.236 232.637 232.236 232.43C232.236 232.17 232.219 231.89 232.186 231.59C232.153 231.29 232.069 231.01 231.936 230.75C231.803 230.483 231.589 230.267 231.296 230.1C231.009 229.927 230.606 229.84 230.086 229.84C229.573 229.84 229.143 229.937 228.796 230.13C228.456 230.323 228.183 230.577 227.976 230.89C227.776 231.203 227.633 231.543 227.546 231.91C227.459 232.27 227.416 232.617 227.416 232.95L226.456 232.58C226.456 231.82 226.616 231.11 226.936 230.45C227.263 229.783 227.723 229.247 228.316 228.84C228.916 228.427 229.626 228.22 230.446 228.22C231.213 228.22 231.853 228.37 232.366 228.67C232.886 228.97 233.276 229.393 233.536 229.94C233.803 230.48 233.936 231.123 233.936 231.87C233.936 232.15 233.936 232.497 233.936 232.91C233.936 233.323 233.936 233.79 233.936 234.31V239H232.236ZM237.441 234.37V232.85H245.651L245.351 233.35C245.351 233.31 245.351 233.273 245.351 233.24C245.351 233.2 245.351 233.163 245.351 233.13C245.351 232.517 245.221 231.957 244.961 231.45C244.708 230.937 244.328 230.527 243.821 230.22C243.315 229.913 242.688 229.76 241.941 229.76C241.188 229.76 240.525 229.92 239.951 230.24C239.378 230.56 238.931 231.013 238.611 231.6C238.291 232.18 238.131 232.873 238.131 233.68C238.131 234.5 238.285 235.207 238.591 235.8C238.905 236.393 239.348 236.85 239.921 237.17C240.495 237.49 241.175 237.65 241.961 237.65C242.521 237.65 243.008 237.593 243.421 237.48C243.835 237.36 244.175 237.203 244.441 237.01C244.715 236.81 244.921 236.593 245.061 236.36C245.201 236.127 245.285 235.893 245.311 235.66H247.011C246.978 236.087 246.845 236.51 246.611 236.93C246.378 237.35 246.048 237.733 245.621 238.08C245.195 238.42 244.671 238.693 244.051 238.9C243.431 239.107 242.718 239.21 241.911 239.21C240.845 239.21 239.905 238.977 239.091 238.51C238.278 238.043 237.638 237.397 237.171 236.57C236.711 235.743 236.481 234.793 236.481 233.72C236.481 232.633 236.715 231.68 237.181 230.86C237.648 230.033 238.291 229.387 239.111 228.92C239.931 228.453 240.868 228.22 241.921 228.22C242.995 228.22 243.925 228.453 244.711 228.92C245.498 229.387 246.105 230.027 246.531 230.84C246.958 231.647 247.171 232.567 247.171 233.6C247.171 233.707 247.168 233.847 247.161 234.02C247.155 234.193 247.145 234.31 247.131 234.37H237.441ZM256.131 239V229.88H253.811V228.38H256.131V227.01C256.131 226.537 256.184 226.103 256.291 225.71C256.404 225.31 256.564 224.957 256.771 224.65C256.984 224.343 257.241 224.083 257.541 223.87C257.841 223.657 258.181 223.497 258.561 223.39C258.948 223.277 259.368 223.22 259.821 223.22C260.148 223.22 260.408 223.24 260.601 223.28C260.794 223.32 260.924 223.357 260.991 223.39V224.89C260.911 224.863 260.778 224.833 260.591 224.8C260.404 224.767 260.204 224.75 259.991 224.75C259.538 224.75 259.168 224.82 258.881 224.96C258.601 225.1 258.384 225.293 258.231 225.54C258.078 225.78 257.971 226.053 257.911 226.36C257.858 226.667 257.831 226.987 257.831 227.32V228.38H260.931V229.88H257.831V239H256.131ZM267.39 239.19C266.323 239.19 265.38 238.953 264.56 238.48C263.747 238 263.107 237.347 262.64 236.52C262.18 235.687 261.95 234.74 261.95 233.68C261.95 232.62 262.18 231.68 262.64 230.86C263.107 230.04 263.747 229.397 264.56 228.93C265.38 228.463 266.323 228.23 267.39 228.23C268.457 228.23 269.397 228.463 270.21 228.93C271.03 229.397 271.67 230.04 272.13 230.86C272.597 231.68 272.83 232.62 272.83 233.68C272.83 234.74 272.597 235.687 272.13 236.52C271.67 237.347 271.03 238 270.21 238.48C269.397 238.953 268.457 239.19 267.39 239.19ZM267.39 237.63C268.123 237.63 268.77 237.467 269.33 237.14C269.89 236.813 270.327 236.353 270.64 235.76C270.96 235.167 271.12 234.473 271.12 233.68C271.12 232.887 270.96 232.2 270.64 231.62C270.327 231.033 269.89 230.583 269.33 230.27C268.77 229.95 268.123 229.79 267.39 229.79C266.663 229.79 266.017 229.95 265.45 230.27C264.89 230.583 264.45 231.033 264.13 231.62C263.817 232.2 263.66 232.887 263.66 233.68C263.66 234.473 263.817 235.167 264.13 235.76C264.45 236.353 264.89 236.813 265.45 237.14C266.017 237.467 266.663 237.63 267.39 237.63ZM275.485 239V228.38H277.185V231.64L276.625 231.44C276.665 231.047 276.765 230.66 276.925 230.28C277.085 229.893 277.305 229.547 277.585 229.24C277.872 228.927 278.228 228.68 278.655 228.5C279.082 228.313 279.582 228.22 280.155 228.22C280.582 228.22 280.928 228.257 281.195 228.33C281.468 228.397 281.638 228.45 281.705 228.49L281.265 230.16C281.198 230.113 281.062 230.053 280.855 229.98C280.655 229.907 280.368 229.87 279.995 229.87C279.442 229.87 278.982 229.97 278.615 230.17C278.255 230.37 277.968 230.637 277.755 230.97C277.548 231.297 277.402 231.653 277.315 232.04C277.228 232.427 277.185 232.81 277.185 233.19V239H275.485ZM288.852 243.48C288.585 243.48 288.342 243.463 288.122 243.43C287.902 243.403 287.765 243.377 287.712 243.35V241.87C287.799 241.91 287.942 241.943 288.142 241.97C288.342 241.997 288.542 242.01 288.742 242.01C289.169 242.01 289.529 241.92 289.822 241.74C290.115 241.567 290.362 241.327 290.562 241.02C290.762 240.72 290.925 240.38 291.052 240L291.372 239.06L287.712 228.38H289.492L292.432 237.53H292.192L295.072 228.38H296.822L292.932 239.91C292.712 240.557 292.445 241.15 292.132 241.69C291.825 242.23 291.412 242.663 290.892 242.99C290.379 243.317 289.699 243.48 288.852 243.48ZM303.367 239.19C302.3 239.19 301.357 238.953 300.537 238.48C299.723 238 299.083 237.347 298.617 236.52C298.157 235.687 297.927 234.74 297.927 233.68C297.927 232.62 298.157 231.68 298.617 230.86C299.083 230.04 299.723 229.397 300.537 228.93C301.357 228.463 302.3 228.23 303.367 228.23C304.433 228.23 305.373 228.463 306.187 228.93C307.007 229.397 307.647 230.04 308.107 230.86C308.573 231.68 308.807 232.62 308.807 233.68C308.807 234.74 308.573 235.687 308.107 236.52C307.647 237.347 307.007 238 306.187 238.48C305.373 238.953 304.433 239.19 303.367 239.19ZM303.367 237.63C304.1 237.63 304.747 237.467 305.307 237.14C305.867 236.813 306.303 236.353 306.617 235.76C306.937 235.167 307.097 234.473 307.097 233.68C307.097 232.887 306.937 232.2 306.617 231.62C306.303 231.033 305.867 230.583 305.307 230.27C304.747 229.95 304.1 229.79 303.367 229.79C302.64 229.79 301.993 229.95 301.427 230.27C300.867 230.583 300.427 231.033 300.107 231.62C299.793 232.2 299.637 232.887 299.637 233.68C299.637 234.473 299.793 235.167 300.107 235.76C300.427 236.353 300.867 236.813 301.427 237.14C301.993 237.467 302.64 237.63 303.367 237.63ZM315.382 239.19C314.622 239.19 313.988 239.06 313.482 238.8C312.975 238.533 312.572 238.19 312.272 237.77C311.978 237.35 311.768 236.897 311.642 236.41C311.522 235.917 311.462 235.443 311.462 234.99C311.462 234.737 311.462 234.477 311.462 234.21C311.462 233.937 311.462 233.663 311.462 233.39V228.38H313.172V233.17C313.172 233.417 313.172 233.66 313.172 233.9C313.172 234.14 313.172 234.367 313.172 234.58C313.172 235.12 313.245 235.62 313.392 236.08C313.545 236.54 313.808 236.913 314.182 237.2C314.555 237.48 315.068 237.62 315.722 237.62C316.335 237.62 316.872 237.437 317.332 237.07C317.792 236.697 318.152 236.233 318.412 235.68C318.672 235.12 318.802 234.563 318.802 234.01L319.792 234.42C319.792 235.007 319.688 235.583 319.482 236.15C319.275 236.71 318.978 237.22 318.592 237.68C318.212 238.14 317.748 238.507 317.202 238.78C316.662 239.053 316.055 239.19 315.382 239.19ZM318.802 239V228.38H320.502V239H318.802ZM324.494 239.26C324.167 239.26 323.89 239.15 323.664 238.93C323.444 238.703 323.334 238.427 323.334 238.1C323.334 237.78 323.444 237.507 323.664 237.28C323.89 237.053 324.167 236.94 324.494 236.94C324.814 236.94 325.087 237.053 325.314 237.28C325.54 237.507 325.654 237.78 325.654 238.1C325.654 238.427 325.54 238.703 325.314 238.93C325.087 239.15 324.814 239.26 324.494 239.26Z" fill="#383838"/>
<path d="M202.625 43.875L222.5 24.125C223.083 23.5417 223.75 23.25 224.5 23.25C225.25 23.25 225.917 23.5417 226.5 24.125C227.083 24.7083 227.375 25.375 227.375 26.125C227.375 26.875 227.083 27.5417 226.5 28.125L205.25 49.375C204.583 50.125 203.75 50.5 202.75 50.5C201.75 50.5 200.917 50.125 200.25 49.375L189.25 38.5C188.75 37.9167 188.5 37.25 188.5 36.5C188.5 35.75 188.75 35.0833 189.25 34.5C189.833 34 190.5 33.75 191.25 33.75C192 33.75 192.667 34 193.25 34.5L202.625 43.875ZM134.125 42.875C133.292 42.875 132.604 42.6042 132.062 42.0625C131.521 41.5208 131.25 40.8333 131.25 40C131.25 39.1667 131.521 38.4792 132.062 37.9375C132.604 37.3958 133.292 37.125 134.125 37.125H170.875C171.708 37.125 172.396 37.3958 172.938 37.9375C173.479 38.4792 173.75 39.1667 173.75 40C173.75 40.8333 173.479 41.5208 172.938 42.0625C172.396 42.6042 171.708 42.875 170.875 42.875H134.125ZM205 84L193.25 95.625C192.667 96.125 192 96.3958 191.25 96.4375C190.5 96.4792 189.833 96.2083 189.25 95.625C188.75 95.0417 188.5 94.375 188.5 93.625C188.5 92.875 188.75 92.2083 189.25 91.625L201 80L189.25 68.375C188.75 67.7917 188.5 67.125 188.5 66.375C188.5 65.625 188.75 64.9583 189.25 64.375C189.833 63.7917 190.5 63.5208 191.25 63.5625C192 63.6042 192.667 63.875 193.25 64.375L205 76L216.625 64.375C217.208 63.7917 217.875 63.5 218.625 63.5C219.375 63.5 220.042 63.7917 220.625 64.375C221.208 64.9583 221.5 65.625 221.5 66.375C221.5 67.125 221.208 67.7917 220.625 68.375L209 80L220.625 91.625C221.208 92.2083 221.5 92.875 221.5 93.625C221.5 94.375 221.208 95.0417 220.625 95.625C220.042 96.2083 219.375 96.5 218.625 96.5C217.875 96.5 217.208 96.2083 216.625 95.625L205 84ZM134.125 82.875C133.292 82.875 132.604 82.6042 132.062 82.0625C131.521 81.5208 131.25 80.8333 131.25 80C131.25 79.1667 131.521 78.4792 132.062 77.9375C132.604 77.3958 133.292 77.125 134.125 77.125H170.875C171.708 77.125 172.396 77.3958 172.938 77.9375C173.479 78.4792 173.75 79.1667 173.75 80C173.75 80.8333 173.479 81.5208 172.938 82.0625C172.396 82.6042 171.708 82.875 170.875 82.875H134.125Z" fill="#3A5295"/>
</svg>
