<svg width="30" height="30" viewBox="0 0 30 30" fill="none" xmlns="http://www.w3.org/2000/svg">
<path fill-rule="evenodd" clip-rule="evenodd" d="M15 0.333496C6.90107 0.333496 0.333336 6.90123 0.333336 15.0002C0.333336 22.4098 5.83187 28.5184 12.9672 29.5099V19.1406H9.52787V15.1556H12.9672V12.2179C12.9672 8.80789 15.0484 6.9511 18.0903 6.9511C19.5496 6.9511 20.8007 7.05963 21.1644 7.10656V10.6706L19.0553 10.672C17.4009 10.672 17.0827 11.4582 17.0827 12.611V15.1542H21.028L20.5117 19.1391H17.0812V29.5026C24.1931 28.4891 29.6667 22.3922 29.6667 15.0002C29.6667 6.90123 23.0989 0.333496 15 0.333496Z" fill="white"/>
</svg>
