<svg width="168" height="48" viewBox="0 0 168 48" fill="none" xmlns="http://www.w3.org/2000/svg">
<path d="M82.4215 31.3783C82.4215 33.9748 81.6841 35.9085 80.2094 37.1794C78.7346 38.4411 76.6976 39.072 74.0982 39.072C71.5094 39.072 69.4777 38.4411 68.0029 37.1794C66.5388 35.9085 65.8067 33.9748 65.8067 31.3783C65.8067 30.9943 65.8067 30.5874 65.8067 30.1577C65.8067 29.7188 65.8067 29.2617 65.8067 28.7863V18.5554H69.2602V29.1154C69.2602 29.5543 69.2602 29.9611 69.2602 30.336C69.2602 30.7108 69.2602 31.0537 69.2602 31.3645C69.2602 33.1931 69.6633 34.5143 70.4697 35.328C71.276 36.1325 72.4855 36.5348 74.0982 36.5348C75.7215 36.5348 76.9363 36.1325 77.7426 35.328C78.5596 34.5143 78.968 33.1931 78.968 31.3645V18.5554H82.4215V31.3783Z" fill="white"/>
<path d="M98.8684 38.784V32.064C98.8684 31.6708 98.8684 31.3371 98.8684 31.0628C98.8684 30.7885 98.8684 30.5325 98.8684 30.2948C98.8684 29.5817 98.7411 28.9554 98.4865 28.416C98.2319 27.8674 97.8128 27.4423 97.2292 27.1405C96.6457 26.8297 95.8659 26.6743 94.8898 26.6743C94.0304 26.6743 93.2506 26.8571 92.5504 27.2228C91.8607 27.5885 91.309 28.0868 90.8952 28.7177C90.4921 29.3394 90.2905 30.048 90.2905 30.8434L88.8104 30.2125C88.8104 29.0331 89.134 27.9771 89.7812 27.0445C90.4284 26.1028 91.2931 25.3577 92.3753 24.8091C93.4681 24.2605 94.6617 23.9863 95.9561 23.9863C97.2929 23.9863 98.4334 24.2103 99.3777 24.6583C100.333 25.0971 101.059 25.728 101.558 26.5508C102.067 27.3645 102.322 28.3383 102.322 29.472C102.322 29.8925 102.322 30.3588 102.322 30.8708C102.322 31.3828 102.322 31.8765 102.322 32.352V38.784H98.8684ZM86.837 38.784V24.2194H90.2905V38.784H86.837Z" fill="white"/>
<path d="M106.716 38.784V24.2194H110.122V38.784H106.716ZM108.435 21.2023C107.84 21.2023 107.326 21.0651 106.891 20.7908C106.466 20.5074 106.254 20.1188 106.254 19.6251C106.254 19.1405 106.466 18.7611 106.891 18.4868C107.326 18.2034 107.84 18.0617 108.435 18.0617C109.018 18.0617 109.522 18.2034 109.946 18.4868C110.381 18.7611 110.599 19.1405 110.599 19.6251C110.599 20.1188 110.381 20.5074 109.946 20.7908C109.522 21.0651 109.018 21.2023 108.435 21.2023Z" fill="white"/>
<path d="M114.607 38.784V18.5554H118.061V37.8788L116.501 36.2605H127.148V38.784H114.607Z" fill="white"/>
<path d="M130.774 38.784V24.2194H134.18V38.784H130.774ZM132.493 21.2023C131.899 21.2023 131.384 21.0651 130.949 20.7908C130.525 20.5074 130.313 20.1188 130.313 19.6251C130.313 19.1405 130.525 18.7611 130.949 18.4868C131.384 18.2034 131.899 18.0617 132.493 18.0617C133.076 18.0617 133.58 18.2034 134.005 18.4868C134.44 18.7611 134.657 19.1405 134.657 19.6251C134.657 20.1188 134.44 20.5074 134.005 20.7908C133.58 21.0651 133.076 21.2023 132.493 21.2023Z" fill="white"/>
<path d="M140.862 38.784V26.688H137.217V24.2194H140.862V22.6285C140.862 21.8788 140.968 21.2068 141.18 20.6125C141.403 20.0183 141.71 19.5063 142.103 19.0765C142.496 18.6377 142.957 18.2765 143.488 17.9931C144.029 17.7097 144.618 17.4994 145.254 17.3623C145.901 17.216 146.575 17.1428 147.275 17.1428C147.848 17.1428 148.294 17.1748 148.612 17.2388C148.941 17.2937 149.158 17.344 149.265 17.3897V19.872C149.137 19.8354 148.92 19.7943 148.612 19.7485C148.304 19.7028 147.976 19.68 147.625 19.68C146.946 19.68 146.389 19.7668 145.954 19.9405C145.519 20.1143 145.18 20.3565 144.936 20.6674C144.692 20.9691 144.522 21.3211 144.427 21.7234C144.342 22.1165 144.299 22.5371 144.299 22.9851V24.2194H149.105V26.688H144.299V38.784H140.862Z" fill="white"/>
<path d="M152.436 32.544V30.2263H164.881L164.403 30.912C164.403 30.8571 164.403 30.8023 164.403 30.7474C164.403 30.6834 164.403 30.6285 164.403 30.5828C164.403 29.8423 164.218 29.1611 163.846 28.5394C163.475 27.9085 162.918 27.4057 162.175 27.0308C161.443 26.6468 160.525 26.4548 159.422 26.4548C158.319 26.4548 157.348 26.6605 156.51 27.072C155.682 27.4743 155.035 28.0503 154.568 28.8C154.112 29.5405 153.884 30.432 153.884 31.4743C153.884 32.5348 154.107 33.4491 154.552 34.2171C154.998 34.976 155.64 35.5611 156.478 35.9725C157.316 36.384 158.319 36.5897 159.486 36.5897C160.303 36.5897 161.008 36.5211 161.602 36.384C162.207 36.2377 162.7 36.0457 163.082 35.808C163.475 35.5703 163.772 35.3143 163.974 35.04C164.175 34.7565 164.292 34.4777 164.324 34.2034H167.761C167.698 34.7977 167.47 35.3874 167.077 35.9725C166.695 36.5485 166.149 37.0743 165.438 37.5497C164.738 38.016 163.878 38.3908 162.86 38.6743C161.852 38.9485 160.69 39.0857 159.374 39.0857C157.613 39.0857 156.069 38.7657 154.743 38.1257C153.417 37.4857 152.383 36.5988 151.64 35.4651C150.897 34.3223 150.526 33.0148 150.526 31.5428C150.526 30.0434 150.902 28.7268 151.656 27.5931C152.409 26.4594 153.454 25.5771 154.791 24.9463C156.128 24.3063 157.661 23.9863 159.39 23.9863C161.151 23.9863 162.674 24.3063 163.958 24.9463C165.252 25.5863 166.249 26.4685 166.95 27.5931C167.65 28.7177 168 30.0114 168 31.4743C168 31.648 167.995 31.8491 167.984 32.0777C167.973 32.3063 167.958 32.4617 167.936 32.544H152.436Z" fill="white"/>
<path d="M7.42682 38.9999V20.3999L20.1916 9.3999L32.9564 20.3999V38.9999H7.42682ZM10.0378 36.7499H18.567V31.3999H21.8162V36.7499H30.2874V21.3499L20.1916 12.6499L10.0378 21.3499V36.7499ZM18.567 25.3999V22.5999H21.8162V25.3999H18.567ZM38.0043 38.9999V18.9499L26.9802 9.3999H31.0417L40.6153 17.6999V38.9999H38.0043ZM45.6632 38.9999V16.1999L37.8302 9.3999H41.8918L48.2742 14.9499V38.9999H45.6632ZM10.0378 36.7499H30.2874H10.0378V36.7499Z" fill="white"/>
</svg>
