<svg width="360" height="251" viewBox="0 0 360 251" fill="none" xmlns="http://www.w3.org/2000/svg">
<path d="M138.476 168.294C137.02 168.294 135.765 168.065 134.71 167.608C133.665 167.151 132.853 166.46 132.274 165.536C131.705 164.603 131.42 163.45 131.42 162.078C131.42 161.901 131.42 161.747 131.42 161.616C131.42 161.485 131.42 161.336 131.42 161.168H134.458C134.458 161.327 134.458 161.467 134.458 161.588C134.458 161.7 134.458 161.845 134.458 162.022C134.458 163.291 134.799 164.225 135.48 164.822C136.161 165.41 137.155 165.704 138.462 165.704C139.797 165.704 140.814 165.48 141.514 165.032C142.214 164.575 142.564 163.842 142.564 162.834C142.564 162.115 142.345 161.513 141.906 161.028C141.477 160.533 140.879 160.109 140.114 159.754C139.358 159.399 138.485 159.068 137.496 158.76C136.385 158.415 135.382 157.976 134.486 157.444C133.59 156.903 132.876 156.231 132.344 155.428C131.821 154.616 131.56 153.627 131.56 152.46C131.56 151.312 131.849 150.337 132.428 149.534C133.007 148.731 133.809 148.125 134.836 147.714C135.863 147.294 137.039 147.084 138.364 147.084C139.773 147.084 141.001 147.303 142.046 147.742C143.101 148.171 143.917 148.825 144.496 149.702C145.084 150.57 145.378 151.667 145.378 152.992C145.378 153.179 145.378 153.342 145.378 153.482C145.378 153.613 145.378 153.776 145.378 153.972H142.326C142.326 153.813 142.326 153.669 142.326 153.538C142.326 153.407 142.326 153.267 142.326 153.118C142.326 151.905 141.995 151.027 141.332 150.486C140.679 149.945 139.708 149.674 138.42 149.674C137.169 149.674 136.203 149.893 135.522 150.332C134.85 150.771 134.514 151.48 134.514 152.46C134.514 153.188 134.729 153.795 135.158 154.28C135.597 154.765 136.194 155.181 136.95 155.526C137.715 155.871 138.583 156.207 139.554 156.534C140.786 156.945 141.845 157.407 142.732 157.92C143.628 158.433 144.319 159.073 144.804 159.838C145.289 160.603 145.532 161.569 145.532 162.736C145.532 163.912 145.243 164.915 144.664 165.746C144.085 166.577 143.269 167.211 142.214 167.65C141.159 168.079 139.913 168.294 138.476 168.294ZM149.918 161.63V159.264H160.866L160.446 159.964C160.446 159.908 160.446 159.852 160.446 159.796C160.446 159.731 160.446 159.675 160.446 159.628C160.446 158.872 160.282 158.177 159.956 157.542C159.629 156.898 159.139 156.385 158.486 156.002C157.842 155.61 157.034 155.414 156.064 155.414C155.093 155.414 154.239 155.624 153.502 156.044C152.774 156.455 152.204 157.043 151.794 157.808C151.392 158.564 151.192 159.474 151.192 160.538C151.192 161.621 151.388 162.554 151.78 163.338C152.172 164.113 152.736 164.71 153.474 165.13C154.211 165.55 155.093 165.76 156.12 165.76C156.838 165.76 157.459 165.69 157.982 165.55C158.514 165.401 158.948 165.205 159.284 164.962C159.629 164.719 159.89 164.458 160.068 164.178C160.245 163.889 160.348 163.604 160.376 163.324H163.4C163.344 163.931 163.143 164.533 162.798 165.13C162.462 165.718 161.981 166.255 161.356 166.74C160.74 167.216 159.984 167.599 159.088 167.888C158.201 168.168 157.179 168.308 156.022 168.308C154.472 168.308 153.114 167.981 151.948 167.328C150.781 166.675 149.871 165.769 149.218 164.612C148.564 163.445 148.238 162.111 148.238 160.608C148.238 159.077 148.569 157.733 149.232 156.576C149.894 155.419 150.814 154.518 151.99 153.874C153.166 153.221 154.514 152.894 156.036 152.894C157.585 152.894 158.924 153.221 160.054 153.874C161.192 154.527 162.07 155.428 162.686 156.576C163.302 157.724 163.61 159.045 163.61 160.538C163.61 160.715 163.605 160.921 163.596 161.154C163.586 161.387 163.572 161.546 163.554 161.63H149.918ZM172.148 168.294C171.028 168.294 170.043 168.117 169.194 167.762C168.354 167.407 167.7 166.899 167.234 166.236C166.767 165.573 166.534 164.775 166.534 163.842C166.534 162.843 166.795 162.017 167.318 161.364C167.85 160.711 168.578 160.207 169.502 159.852C170.435 159.488 171.494 159.25 172.68 159.138C174.444 158.961 175.685 158.788 176.404 158.62C177.132 158.452 177.496 158.177 177.496 157.794C177.496 157.785 177.496 157.775 177.496 157.766C177.496 157.01 177.174 156.436 176.53 156.044C175.886 155.652 174.966 155.456 173.772 155.456C172.512 155.456 171.536 155.68 170.846 156.128C170.164 156.567 169.824 157.267 169.824 158.228H166.842C166.842 157.089 167.136 156.123 167.724 155.33C168.321 154.537 169.142 153.935 170.188 153.524C171.233 153.104 172.432 152.894 173.786 152.894C175.027 152.894 176.156 153.085 177.174 153.468C178.2 153.841 179.017 154.401 179.624 155.148C180.23 155.895 180.534 156.823 180.534 157.934C180.534 158.13 180.534 158.326 180.534 158.522C180.534 158.709 180.534 158.9 180.534 159.096V165.032C180.534 165.377 180.548 165.713 180.576 166.04C180.604 166.357 180.655 166.642 180.73 166.894C180.814 167.183 180.912 167.421 181.024 167.608C181.145 167.795 181.243 167.925 181.318 168H178.294C178.238 167.944 178.154 167.827 178.042 167.65C177.939 167.463 177.846 167.249 177.762 167.006C177.678 166.773 177.612 166.507 177.566 166.208C177.528 165.9 177.51 165.569 177.51 165.214L178.07 165.606C177.79 166.147 177.365 166.619 176.796 167.02C176.236 167.421 175.559 167.734 174.766 167.958C173.982 168.182 173.109 168.294 172.148 168.294ZM172.778 165.774C173.646 165.774 174.434 165.639 175.144 165.368C175.862 165.088 176.436 164.668 176.866 164.108C177.295 163.539 177.51 162.825 177.51 161.966V159.502L178.224 160.44C177.626 160.673 176.894 160.865 176.026 161.014C175.167 161.154 174.28 161.271 173.366 161.364C172.106 161.476 171.158 161.695 170.524 162.022C169.889 162.339 169.572 162.871 169.572 163.618C169.572 164.337 169.833 164.878 170.356 165.242C170.888 165.597 171.695 165.774 172.778 165.774ZM184.222 168V153.132H187.26V157.878L186.448 157.514C186.514 156.907 186.668 156.329 186.91 155.778C187.153 155.227 187.475 154.737 187.876 154.308C188.287 153.869 188.791 153.524 189.388 153.272C189.986 153.02 190.676 152.894 191.46 152.894C192.058 152.894 192.538 152.941 192.902 153.034C193.276 153.127 193.504 153.202 193.588 153.258L192.944 156.114C192.851 156.049 192.66 155.965 192.37 155.862C192.09 155.759 191.698 155.708 191.194 155.708C190.429 155.708 189.794 155.843 189.29 156.114C188.786 156.385 188.385 156.744 188.086 157.192C187.788 157.64 187.573 158.13 187.442 158.662C187.321 159.185 187.26 159.712 187.26 160.244V168H184.222ZM202.971 168.294C201.478 168.294 200.139 167.981 198.953 167.356C197.777 166.721 196.849 165.821 196.167 164.654C195.495 163.487 195.159 162.115 195.159 160.538C195.159 158.961 195.495 157.603 196.167 156.464C196.849 155.316 197.777 154.434 198.953 153.818C200.139 153.202 201.478 152.894 202.971 152.894C204.101 152.894 205.104 153.067 205.981 153.412C206.859 153.748 207.601 154.196 208.207 154.756C208.814 155.316 209.276 155.932 209.593 156.604C209.911 157.276 210.069 157.948 210.069 158.62C210.069 158.629 210.069 158.643 210.069 158.662C210.069 158.681 210.069 158.699 210.069 158.718H207.059C207.059 158.671 207.055 158.62 207.045 158.564C207.036 158.499 207.027 158.438 207.017 158.382C206.943 157.831 206.728 157.341 206.373 156.912C206.019 156.483 205.552 156.142 204.973 155.89C204.395 155.638 203.718 155.512 202.943 155.512C202.094 155.512 201.31 155.699 200.591 156.072C199.882 156.436 199.313 156.991 198.883 157.738C198.454 158.485 198.239 159.418 198.239 160.538C198.239 161.658 198.449 162.601 198.869 163.366C199.299 164.122 199.868 164.696 200.577 165.088C201.296 165.48 202.085 165.676 202.943 165.676C203.867 165.676 204.623 165.536 205.211 165.256C205.799 164.967 206.243 164.584 206.541 164.108C206.84 163.623 207.013 163.1 207.059 162.54H210.069C210.069 163.212 209.915 163.893 209.607 164.584C209.299 165.265 208.847 165.886 208.249 166.446C207.652 167.006 206.91 167.454 206.023 167.79C205.146 168.126 204.129 168.294 202.971 168.294ZM224.024 168V162.554C224.024 162.311 224.024 162.017 224.024 161.672C224.024 161.327 224.024 160.977 224.024 160.622C224.024 160.258 224.024 159.955 224.024 159.712C224.024 158.377 223.748 157.365 223.198 156.674C222.656 155.983 221.765 155.638 220.524 155.638C219.693 155.638 218.974 155.801 218.368 156.128C217.761 156.455 217.29 156.903 216.954 157.472C216.627 158.041 216.464 158.69 216.464 159.418L215.035 158.83C215.035 157.701 215.306 156.693 215.848 155.806C216.398 154.91 217.15 154.201 218.102 153.678C219.063 153.155 220.16 152.894 221.392 152.894C223.184 152.894 224.574 153.431 225.564 154.504C226.562 155.568 227.062 157.052 227.062 158.956C227.062 159.441 227.062 160.015 227.062 160.678C227.062 161.331 227.062 162.045 227.062 162.82V168H224.024ZM213.426 168V146.118H216.464V168H213.426Z" fill="black"/>
<path d="M2.94547 195.75L3.71547 194.78V201.52L3.16547 200.98H9.13547V202.48H3.16547L3.71547 201.91V209H2.01547V194.25H10.0255V195.75H2.94547ZM12.6066 209V198.38H14.2866V209H12.6066ZM13.4566 195.94C13.1432 195.94 12.8699 195.853 12.6366 195.68C12.4099 195.5 12.2966 195.257 12.2966 194.95C12.2966 194.65 12.4099 194.413 12.6366 194.24C12.8699 194.06 13.1432 193.97 13.4566 193.97C13.7699 193.97 14.0399 194.06 14.2666 194.24C14.4932 194.413 14.6066 194.65 14.6066 194.95C14.6066 195.257 14.4932 195.5 14.2666 195.68C14.0399 195.853 13.7699 195.94 13.4566 195.94ZM25.048 209V203.91C25.048 203.603 25.048 203.353 25.048 203.16C25.048 202.96 25.048 202.77 25.048 202.59C25.048 202.037 24.9546 201.553 24.768 201.14C24.5813 200.727 24.288 200.407 23.888 200.18C23.488 199.953 22.9646 199.84 22.318 199.84C21.7513 199.84 21.2246 199.987 20.738 200.28C20.258 200.567 19.8713 200.957 19.578 201.45C19.2913 201.937 19.148 202.483 19.148 203.09L18.178 202.72C18.178 201.887 18.3813 201.13 18.788 200.45C19.2013 199.77 19.748 199.23 20.428 198.83C21.1146 198.423 21.8613 198.22 22.668 198.22C23.488 198.22 24.2046 198.377 24.818 198.69C25.4313 199.003 25.9046 199.453 26.238 200.04C26.578 200.62 26.748 201.32 26.748 202.14C26.748 202.433 26.748 202.753 26.748 203.1C26.748 203.447 26.748 203.77 26.748 204.07V209H25.048ZM17.448 209V198.38H19.148V209H17.448ZM34.0936 209.2C33.2203 209.2 32.4203 208.99 31.6936 208.57C30.9669 208.143 30.3869 207.52 29.9536 206.7C29.5203 205.873 29.3036 204.867 29.3036 203.68C29.3036 202.513 29.5236 201.523 29.9636 200.71C30.4036 199.897 30.9869 199.28 31.7136 198.86C32.4403 198.433 33.2336 198.22 34.0936 198.22C34.9136 198.22 35.6803 198.417 36.3936 198.81C37.1136 199.197 37.6936 199.737 38.1336 200.43C38.5736 201.123 38.7936 201.927 38.7936 202.84C38.7936 202.86 38.7936 202.88 38.7936 202.9C38.7936 202.92 38.7936 202.94 38.7936 202.96L37.5736 203.01C37.5736 202.99 37.5736 202.97 37.5736 202.95C37.5736 202.923 37.5736 202.9 37.5736 202.88C37.5736 202.3 37.4203 201.777 37.1136 201.31C36.8136 200.843 36.4169 200.473 35.9236 200.2C35.4303 199.92 34.9003 199.78 34.3336 199.78C33.3869 199.78 32.6036 200.1 31.9836 200.74C31.3636 201.373 31.0536 202.353 31.0536 203.68C31.0536 205 31.3636 205.983 31.9836 206.63C32.6103 207.27 33.3936 207.59 34.3336 207.59C34.9269 207.59 35.4669 207.447 35.9536 207.16C36.4469 206.873 36.8403 206.49 37.1336 206.01C37.4269 205.523 37.5736 204.98 37.5736 204.38L38.7936 204.41C38.7936 205.317 38.5836 206.133 38.1636 206.86C37.7436 207.58 37.1769 208.15 36.4636 208.57C35.7569 208.99 34.9669 209.2 34.0936 209.2ZM37.5736 209V193.37H39.2836V209H37.5736ZM47.5922 213.48C47.3255 213.48 47.0822 213.463 46.8622 213.43C46.6422 213.403 46.5055 213.377 46.4522 213.35V211.87C46.5389 211.91 46.6822 211.943 46.8822 211.97C47.0822 211.997 47.2822 212.01 47.4822 212.01C47.9089 212.01 48.2689 211.92 48.5622 211.74C48.8555 211.567 49.1022 211.327 49.3022 211.02C49.5022 210.72 49.6655 210.38 49.7922 210L50.1122 209.06L46.4522 198.38H48.2322L51.1722 207.53H50.9322L53.8122 198.38H55.5622L51.6722 209.91C51.4522 210.557 51.1855 211.15 50.8722 211.69C50.5655 212.23 50.1522 212.663 49.6322 212.99C49.1189 213.317 48.4389 213.48 47.5922 213.48ZM62.1069 209.19C61.0402 209.19 60.0969 208.953 59.2769 208.48C58.4635 208 57.8235 207.347 57.3569 206.52C56.8969 205.687 56.6669 204.74 56.6669 203.68C56.6669 202.62 56.8969 201.68 57.3569 200.86C57.8235 200.04 58.4635 199.397 59.2769 198.93C60.0969 198.463 61.0402 198.23 62.1069 198.23C63.1735 198.23 64.1135 198.463 64.9269 198.93C65.7469 199.397 66.3869 200.04 66.8469 200.86C67.3135 201.68 67.5469 202.62 67.5469 203.68C67.5469 204.74 67.3135 205.687 66.8469 206.52C66.3869 207.347 65.7469 208 64.9269 208.48C64.1135 208.953 63.1735 209.19 62.1069 209.19ZM62.1069 207.63C62.8402 207.63 63.4869 207.467 64.0469 207.14C64.6069 206.813 65.0435 206.353 65.3569 205.76C65.6769 205.167 65.8369 204.473 65.8369 203.68C65.8369 202.887 65.6769 202.2 65.3569 201.62C65.0435 201.033 64.6069 200.583 64.0469 200.27C63.4869 199.95 62.8402 199.79 62.1069 199.79C61.3802 199.79 60.7335 199.95 60.1669 200.27C59.6069 200.583 59.1669 201.033 58.8469 201.62C58.5335 202.2 58.3769 202.887 58.3769 203.68C58.3769 204.473 58.5335 205.167 58.8469 205.76C59.1669 206.353 59.6069 206.813 60.1669 207.14C60.7335 207.467 61.3802 207.63 62.1069 207.63ZM74.1219 209.19C73.3619 209.19 72.7285 209.06 72.2219 208.8C71.7152 208.533 71.3119 208.19 71.0119 207.77C70.7185 207.35 70.5085 206.897 70.3819 206.41C70.2619 205.917 70.2019 205.443 70.2019 204.99C70.2019 204.737 70.2019 204.477 70.2019 204.21C70.2019 203.937 70.2019 203.663 70.2019 203.39V198.38H71.9119V203.17C71.9119 203.417 71.9119 203.66 71.9119 203.9C71.9119 204.14 71.9119 204.367 71.9119 204.58C71.9119 205.12 71.9852 205.62 72.1319 206.08C72.2852 206.54 72.5485 206.913 72.9219 207.2C73.2952 207.48 73.8085 207.62 74.4619 207.62C75.0752 207.62 75.6119 207.437 76.0719 207.07C76.5319 206.697 76.8919 206.233 77.1519 205.68C77.4119 205.12 77.5419 204.563 77.5419 204.01L78.5319 204.42C78.5319 205.007 78.4285 205.583 78.2219 206.15C78.0152 206.71 77.7185 207.22 77.3319 207.68C76.9519 208.14 76.4885 208.507 75.9419 208.78C75.4019 209.053 74.7952 209.19 74.1219 209.19ZM77.5419 209V198.38H79.2419V209H77.5419ZM82.1941 209V198.38H83.8941V201.64L83.3341 201.44C83.3741 201.047 83.4741 200.66 83.6341 200.28C83.7941 199.893 84.0141 199.547 84.2941 199.24C84.5807 198.927 84.9374 198.68 85.3641 198.5C85.7907 198.313 86.2907 198.22 86.8641 198.22C87.2907 198.22 87.6374 198.257 87.9041 198.33C88.1774 198.397 88.3474 198.45 88.4141 198.49L87.9741 200.16C87.9074 200.113 87.7707 200.053 87.5641 199.98C87.3641 199.907 87.0774 199.87 86.7041 199.87C86.1507 199.87 85.6907 199.97 85.3241 200.17C84.9641 200.37 84.6774 200.637 84.4641 200.97C84.2574 201.297 84.1107 201.653 84.0241 202.04C83.9374 202.427 83.8941 202.81 83.8941 203.19V209H82.1941ZM99.6209 209.2C98.7476 209.2 97.9476 208.99 97.2209 208.57C96.4943 208.143 95.9143 207.52 95.4809 206.7C95.0476 205.873 94.8309 204.867 94.8309 203.68C94.8309 202.513 95.0509 201.523 95.4909 200.71C95.9309 199.897 96.5143 199.28 97.2409 198.86C97.9676 198.433 98.7609 198.22 99.6209 198.22C100.441 198.22 101.208 198.417 101.921 198.81C102.641 199.197 103.221 199.737 103.661 200.43C104.101 201.123 104.321 201.927 104.321 202.84C104.321 202.86 104.321 202.88 104.321 202.9C104.321 202.92 104.321 202.94 104.321 202.96L103.101 203.01C103.101 202.99 103.101 202.97 103.101 202.95C103.101 202.923 103.101 202.9 103.101 202.88C103.101 202.3 102.948 201.777 102.641 201.31C102.341 200.843 101.944 200.473 101.451 200.2C100.958 199.92 100.428 199.78 99.8609 199.78C98.9143 199.78 98.1309 200.1 97.5109 200.74C96.8909 201.373 96.5809 202.353 96.5809 203.68C96.5809 205 96.8909 205.983 97.5109 206.63C98.1376 207.27 98.9209 207.59 99.8609 207.59C100.454 207.59 100.994 207.447 101.481 207.16C101.974 206.873 102.368 206.49 102.661 206.01C102.954 205.523 103.101 204.98 103.101 204.38L104.321 204.41C104.321 205.317 104.111 206.133 103.691 206.86C103.271 207.58 102.704 208.15 101.991 208.57C101.284 208.99 100.494 209.2 99.6209 209.2ZM103.101 209V193.37H104.811V209H103.101ZM107.8 209V198.38H109.5V201.64L108.94 201.44C108.98 201.047 109.08 200.66 109.24 200.28C109.4 199.893 109.62 199.547 109.9 199.24C110.186 198.927 110.543 198.68 110.97 198.5C111.396 198.313 111.896 198.22 112.47 198.22C112.896 198.22 113.243 198.257 113.51 198.33C113.783 198.397 113.953 198.45 114.02 198.49L113.58 200.16C113.513 200.113 113.376 200.053 113.17 199.98C112.97 199.907 112.683 199.87 112.31 199.87C111.756 199.87 111.296 199.97 110.93 200.17C110.57 200.37 110.283 200.637 110.07 200.97C109.863 201.297 109.716 201.653 109.63 202.04C109.543 202.427 109.5 202.81 109.5 203.19V209H107.8ZM116.201 204.37V202.85H124.411L124.111 203.35C124.111 203.31 124.111 203.273 124.111 203.24C124.111 203.2 124.111 203.163 124.111 203.13C124.111 202.517 123.981 201.957 123.721 201.45C123.468 200.937 123.088 200.527 122.581 200.22C122.074 199.913 121.448 199.76 120.701 199.76C119.948 199.76 119.284 199.92 118.711 200.24C118.138 200.56 117.691 201.013 117.371 201.6C117.051 202.18 116.891 202.873 116.891 203.68C116.891 204.5 117.044 205.207 117.351 205.8C117.664 206.393 118.108 206.85 118.681 207.17C119.254 207.49 119.934 207.65 120.721 207.65C121.281 207.65 121.768 207.593 122.181 207.48C122.594 207.36 122.934 207.203 123.201 207.01C123.474 206.81 123.681 206.593 123.821 206.36C123.961 206.127 124.044 205.893 124.071 205.66H125.771C125.738 206.087 125.604 206.51 125.371 206.93C125.138 207.35 124.808 207.733 124.381 208.08C123.954 208.42 123.431 208.693 122.811 208.9C122.191 209.107 121.478 209.21 120.671 209.21C119.604 209.21 118.664 208.977 117.851 208.51C117.038 208.043 116.398 207.397 115.931 206.57C115.471 205.743 115.241 204.793 115.241 203.72C115.241 202.633 115.474 201.68 115.941 200.86C116.408 200.033 117.051 199.387 117.871 198.92C118.691 198.453 119.628 198.22 120.681 198.22C121.754 198.22 122.684 198.453 123.471 198.92C124.258 199.387 124.864 200.027 125.291 200.84C125.718 201.647 125.931 202.567 125.931 203.6C125.931 203.707 125.928 203.847 125.921 204.02C125.914 204.193 125.904 204.31 125.891 204.37H116.201ZM132.291 209.2C131.484 209.2 130.777 209.073 130.171 208.82C129.571 208.567 129.104 208.203 128.771 207.73C128.437 207.25 128.271 206.677 128.271 206.01C128.271 205.317 128.451 204.74 128.811 204.28C129.171 203.813 129.677 203.45 130.331 203.19C130.984 202.93 131.744 202.757 132.611 202.67C133.917 202.537 134.847 202.407 135.401 202.28C135.954 202.147 136.231 201.933 136.231 201.64C136.231 201.633 136.231 201.63 136.231 201.63C136.231 201.623 136.231 201.617 136.231 201.61C136.231 200.997 135.981 200.54 135.481 200.24C134.981 199.933 134.257 199.78 133.311 199.78C132.324 199.78 131.557 199.953 131.011 200.3C130.464 200.64 130.191 201.193 130.191 201.96H128.511C128.511 201.167 128.714 200.493 129.121 199.94C129.527 199.38 130.091 198.953 130.811 198.66C131.537 198.367 132.374 198.22 133.321 198.22C134.187 198.22 134.967 198.353 135.661 198.62C136.361 198.88 136.914 199.27 137.321 199.79C137.734 200.303 137.941 200.94 137.941 201.7C137.941 201.84 137.941 201.98 137.941 202.12C137.941 202.253 137.941 202.39 137.941 202.53V207C137.941 207.233 137.951 207.46 137.971 207.68C137.991 207.9 138.024 208.093 138.071 208.26C138.131 208.46 138.197 208.623 138.271 208.75C138.344 208.87 138.404 208.953 138.451 209H136.741C136.707 208.967 136.657 208.89 136.591 208.77C136.524 208.643 136.461 208.497 136.401 208.33C136.354 208.197 136.317 208.03 136.291 207.83C136.264 207.623 136.251 207.41 136.251 207.19L136.531 207.38C136.324 207.74 136.021 208.057 135.621 208.33C135.227 208.603 134.751 208.817 134.191 208.97C133.631 209.123 132.997 209.2 132.291 209.2ZM132.561 207.67C133.247 207.67 133.867 207.567 134.421 207.36C134.974 207.147 135.414 206.833 135.741 206.42C136.067 206.007 136.231 205.493 136.231 204.88V202.77L136.611 203.41C136.184 203.577 135.651 203.713 135.011 203.82C134.377 203.92 133.714 204.003 133.021 204.07C132.014 204.163 131.254 204.34 130.741 204.6C130.234 204.86 129.981 205.297 129.981 205.91C129.981 206.49 130.191 206.93 130.611 207.23C131.031 207.523 131.681 207.67 132.561 207.67ZM147.298 209V204.31C147.298 203.897 147.298 203.54 147.298 203.24C147.298 202.933 147.298 202.677 147.298 202.47C147.298 202.21 147.278 201.93 147.238 201.63C147.205 201.323 147.122 201.037 146.988 200.77C146.855 200.497 146.645 200.273 146.358 200.1C146.078 199.927 145.688 199.84 145.188 199.84C144.682 199.84 144.255 199.94 143.908 200.14C143.562 200.333 143.282 200.59 143.068 200.91C142.855 201.23 142.702 201.583 142.608 201.97C142.515 202.35 142.468 202.727 142.468 203.1L141.508 202.71C141.508 201.91 141.675 201.17 142.008 200.49C142.342 199.81 142.808 199.263 143.408 198.85C144.015 198.43 144.725 198.22 145.538 198.22C146.345 198.22 147.002 198.383 147.508 198.71C148.015 199.037 148.388 199.487 148.628 200.06C148.868 200.633 148.988 201.293 148.988 202.04C148.988 202.307 148.988 202.65 148.988 203.07C148.988 203.483 148.988 203.957 148.988 204.49V209H147.298ZM140.768 209V198.38H142.468V209H140.768ZM153.808 209V204.31C153.808 203.857 153.808 203.483 153.808 203.19C153.808 202.89 153.808 202.637 153.808 202.43C153.808 202.17 153.792 201.89 153.758 201.59C153.725 201.29 153.642 201.01 153.508 200.75C153.375 200.483 153.162 200.267 152.868 200.1C152.582 199.927 152.178 199.84 151.658 199.84C151.145 199.84 150.715 199.937 150.368 200.13C150.028 200.323 149.755 200.577 149.548 200.89C149.348 201.203 149.205 201.543 149.118 201.91C149.032 202.27 148.988 202.617 148.988 202.95L148.028 202.58C148.028 201.82 148.188 201.11 148.508 200.45C148.835 199.783 149.295 199.247 149.888 198.84C150.488 198.427 151.198 198.22 152.018 198.22C152.785 198.22 153.425 198.37 153.938 198.67C154.458 198.97 154.848 199.393 155.108 199.94C155.375 200.48 155.508 201.123 155.508 201.87C155.508 202.15 155.508 202.497 155.508 202.91C155.508 203.323 155.508 203.79 155.508 204.31V209H153.808ZM171.074 209V205.05C171.074 204.863 171.074 204.643 171.074 204.39C171.074 204.13 171.074 203.87 171.074 203.61C171.074 203.343 171.074 203.117 171.074 202.93C171.074 201.91 170.854 201.14 170.414 200.62C169.98 200.1 169.29 199.84 168.344 199.84C167.71 199.84 167.154 199.963 166.674 200.21C166.2 200.457 165.83 200.793 165.564 201.22C165.297 201.647 165.164 202.13 165.164 202.67L164.084 202.34C164.084 201.58 164.28 200.89 164.674 200.27C165.074 199.643 165.617 199.147 166.304 198.78C166.997 198.407 167.78 198.22 168.654 198.22C169.927 198.22 170.93 198.603 171.664 199.37C172.404 200.137 172.774 201.197 172.774 202.55C172.774 202.903 172.774 203.31 172.774 203.77C172.774 204.23 172.774 204.713 172.774 205.22V209H171.074ZM163.464 209V193.37H165.164V209H163.464ZM180.759 209.19C179.693 209.19 178.749 208.953 177.929 208.48C177.116 208 176.476 207.347 176.009 206.52C175.549 205.687 175.319 204.74 175.319 203.68C175.319 202.62 175.549 201.68 176.009 200.86C176.476 200.04 177.116 199.397 177.929 198.93C178.749 198.463 179.693 198.23 180.759 198.23C181.826 198.23 182.766 198.463 183.579 198.93C184.399 199.397 185.039 200.04 185.499 200.86C185.966 201.68 186.199 202.62 186.199 203.68C186.199 204.74 185.966 205.687 185.499 206.52C185.039 207.347 184.399 208 183.579 208.48C182.766 208.953 181.826 209.19 180.759 209.19ZM180.759 207.63C181.493 207.63 182.139 207.467 182.699 207.14C183.259 206.813 183.696 206.353 184.009 205.76C184.329 205.167 184.489 204.473 184.489 203.68C184.489 202.887 184.329 202.2 184.009 201.62C183.696 201.033 183.259 200.583 182.699 200.27C182.139 199.95 181.493 199.79 180.759 199.79C180.033 199.79 179.386 199.95 178.819 200.27C178.259 200.583 177.819 201.033 177.499 201.62C177.186 202.2 177.029 202.887 177.029 203.68C177.029 204.473 177.186 205.167 177.499 205.76C177.819 206.353 178.259 206.813 178.819 207.14C179.386 207.467 180.033 207.63 180.759 207.63ZM195.384 209V204.31C195.384 203.897 195.384 203.54 195.384 203.24C195.384 202.933 195.384 202.677 195.384 202.47C195.384 202.21 195.364 201.93 195.324 201.63C195.291 201.323 195.208 201.037 195.074 200.77C194.941 200.497 194.731 200.273 194.444 200.1C194.164 199.927 193.774 199.84 193.274 199.84C192.768 199.84 192.341 199.94 191.994 200.14C191.648 200.333 191.368 200.59 191.154 200.91C190.941 201.23 190.788 201.583 190.694 201.97C190.601 202.35 190.554 202.727 190.554 203.1L189.594 202.71C189.594 201.91 189.761 201.17 190.094 200.49C190.428 199.81 190.894 199.263 191.494 198.85C192.101 198.43 192.811 198.22 193.624 198.22C194.431 198.22 195.088 198.383 195.594 198.71C196.101 199.037 196.474 199.487 196.714 200.06C196.954 200.633 197.074 201.293 197.074 202.04C197.074 202.307 197.074 202.65 197.074 203.07C197.074 203.483 197.074 203.957 197.074 204.49V209H195.384ZM188.854 209V198.38H190.554V209H188.854ZM201.894 209V204.31C201.894 203.857 201.894 203.483 201.894 203.19C201.894 202.89 201.894 202.637 201.894 202.43C201.894 202.17 201.878 201.89 201.844 201.59C201.811 201.29 201.728 201.01 201.594 200.75C201.461 200.483 201.248 200.267 200.954 200.1C200.668 199.927 200.264 199.84 199.744 199.84C199.231 199.84 198.801 199.937 198.454 200.13C198.114 200.323 197.841 200.577 197.634 200.89C197.434 201.203 197.291 201.543 197.204 201.91C197.118 202.27 197.074 202.617 197.074 202.95L196.114 202.58C196.114 201.82 196.274 201.11 196.594 200.45C196.921 199.783 197.381 199.247 197.974 198.84C198.574 198.427 199.284 198.22 200.104 198.22C200.871 198.22 201.511 198.37 202.024 198.67C202.544 198.97 202.934 199.393 203.194 199.94C203.461 200.48 203.594 201.123 203.594 201.87C203.594 202.15 203.594 202.497 203.594 202.91C203.594 203.323 203.594 203.79 203.594 204.31V209H201.894ZM207.1 204.37V202.85H215.31L215.01 203.35C215.01 203.31 215.01 203.273 215.01 203.24C215.01 203.2 215.01 203.163 215.01 203.13C215.01 202.517 214.88 201.957 214.62 201.45C214.366 200.937 213.986 200.527 213.48 200.22C212.973 199.913 212.346 199.76 211.6 199.76C210.846 199.76 210.183 199.92 209.61 200.24C209.036 200.56 208.59 201.013 208.27 201.6C207.95 202.18 207.79 202.873 207.79 203.68C207.79 204.5 207.943 205.207 208.25 205.8C208.563 206.393 209.006 206.85 209.58 207.17C210.153 207.49 210.833 207.65 211.62 207.65C212.18 207.65 212.666 207.593 213.08 207.48C213.493 207.36 213.833 207.203 214.1 207.01C214.373 206.81 214.58 206.593 214.72 206.36C214.86 206.127 214.943 205.893 214.97 205.66H216.67C216.636 206.087 216.503 206.51 216.27 206.93C216.036 207.35 215.706 207.733 215.28 208.08C214.853 208.42 214.33 208.693 213.71 208.9C213.09 209.107 212.376 209.21 211.57 209.21C210.503 209.21 209.563 208.977 208.75 208.51C207.936 208.043 207.296 207.397 206.83 206.57C206.37 205.743 206.14 204.793 206.14 203.72C206.14 202.633 206.373 201.68 206.84 200.86C207.306 200.033 207.95 199.387 208.77 198.92C209.59 198.453 210.526 198.22 211.58 198.22C212.653 198.22 213.583 198.453 214.37 198.92C215.156 199.387 215.763 200.027 216.19 200.84C216.616 201.647 216.83 202.567 216.83 203.6C216.83 203.707 216.826 203.847 216.82 204.02C216.813 204.193 216.803 204.31 216.79 204.37H207.1ZM224.579 209V198.38H226.259V209H224.579ZM225.429 195.94C225.116 195.94 224.843 195.853 224.609 195.68C224.383 195.5 224.269 195.257 224.269 194.95C224.269 194.65 224.383 194.413 224.609 194.24C224.843 194.06 225.116 193.97 225.429 193.97C225.743 193.97 226.013 194.06 226.239 194.24C226.466 194.413 226.579 194.65 226.579 194.95C226.579 195.257 226.466 195.5 226.239 195.68C226.013 195.853 225.743 195.94 225.429 195.94ZM237.021 209V203.91C237.021 203.603 237.021 203.353 237.021 203.16C237.021 202.96 237.021 202.77 237.021 202.59C237.021 202.037 236.927 201.553 236.741 201.14C236.554 200.727 236.261 200.407 235.861 200.18C235.461 199.953 234.937 199.84 234.291 199.84C233.724 199.84 233.197 199.987 232.711 200.28C232.231 200.567 231.844 200.957 231.551 201.45C231.264 201.937 231.121 202.483 231.121 203.09L230.151 202.72C230.151 201.887 230.354 201.13 230.761 200.45C231.174 199.77 231.721 199.23 232.401 198.83C233.087 198.423 233.834 198.22 234.641 198.22C235.461 198.22 236.177 198.377 236.791 198.69C237.404 199.003 237.877 199.453 238.211 200.04C238.551 200.62 238.721 201.32 238.721 202.14C238.721 202.433 238.721 202.753 238.721 203.1C238.721 203.447 238.721 203.77 238.721 204.07V209H237.021ZM229.421 209V198.38H231.121V209H229.421ZM250.886 209.16C250.56 209.16 250.24 209.123 249.926 209.05C249.613 208.977 249.33 208.847 249.076 208.66C248.83 208.467 248.633 208.197 248.486 207.85C248.34 207.497 248.266 207.043 248.266 206.49C248.266 206.35 248.266 206.207 248.266 206.06C248.266 205.907 248.266 205.747 248.266 205.58V199.88H245.676V198.38H247.336C247.563 198.38 247.74 198.373 247.866 198.36C247.993 198.34 248.083 198.297 248.136 198.23C248.196 198.157 248.233 198.047 248.246 197.9C248.26 197.747 248.266 197.537 248.266 197.27V194.86H249.976V198.38H253.296V199.88H249.976V205.03C249.976 205.177 249.976 205.32 249.976 205.46C249.976 205.6 249.976 205.73 249.976 205.85C249.976 206.417 250.043 206.86 250.176 207.18C250.316 207.5 250.626 207.66 251.106 207.66C251.3 207.66 251.483 207.643 251.656 207.61C251.83 207.577 251.96 207.543 252.046 207.51V208.99C251.933 209.03 251.773 209.067 251.566 209.1C251.366 209.14 251.14 209.16 250.886 209.16ZM263.085 209V205.05C263.085 204.863 263.085 204.643 263.085 204.39C263.085 204.13 263.085 203.87 263.085 203.61C263.085 203.343 263.085 203.117 263.085 202.93C263.085 201.91 262.865 201.14 262.425 200.62C261.992 200.1 261.302 199.84 260.355 199.84C259.722 199.84 259.165 199.963 258.685 200.21C258.212 200.457 257.842 200.793 257.575 201.22C257.309 201.647 257.175 202.13 257.175 202.67L256.095 202.34C256.095 201.58 256.292 200.89 256.685 200.27C257.085 199.643 257.629 199.147 258.315 198.78C259.009 198.407 259.792 198.22 260.665 198.22C261.939 198.22 262.942 198.603 263.675 199.37C264.415 200.137 264.785 201.197 264.785 202.55C264.785 202.903 264.785 203.31 264.785 203.77C264.785 204.23 264.785 204.713 264.785 205.22V209H263.085ZM255.475 209V193.37H257.175V209H255.475ZM268.291 204.37V202.85H276.501L276.201 203.35C276.201 203.31 276.201 203.273 276.201 203.24C276.201 203.2 276.201 203.163 276.201 203.13C276.201 202.517 276.071 201.957 275.811 201.45C275.558 200.937 275.178 200.527 274.671 200.22C274.164 199.913 273.538 199.76 272.791 199.76C272.038 199.76 271.374 199.92 270.801 200.24C270.228 200.56 269.781 201.013 269.461 201.6C269.141 202.18 268.981 202.873 268.981 203.68C268.981 204.5 269.134 205.207 269.441 205.8C269.754 206.393 270.198 206.85 270.771 207.17C271.344 207.49 272.024 207.65 272.811 207.65C273.371 207.65 273.858 207.593 274.271 207.48C274.684 207.36 275.024 207.203 275.291 207.01C275.564 206.81 275.771 206.593 275.911 206.36C276.051 206.127 276.134 205.893 276.161 205.66H277.861C277.828 206.087 277.694 206.51 277.461 206.93C277.228 207.35 276.898 207.733 276.471 208.08C276.044 208.42 275.521 208.693 274.901 208.9C274.281 209.107 273.568 209.21 272.761 209.21C271.694 209.21 270.754 208.977 269.941 208.51C269.128 208.043 268.488 207.397 268.021 206.57C267.561 205.743 267.331 204.793 267.331 203.72C267.331 202.633 267.564 201.68 268.031 200.86C268.498 200.033 269.141 199.387 269.961 198.92C270.781 198.453 271.718 198.22 272.771 198.22C273.844 198.22 274.774 198.453 275.561 198.92C276.348 199.387 276.954 200.027 277.381 200.84C277.808 201.647 278.021 202.567 278.021 203.6C278.021 203.707 278.018 203.847 278.011 204.02C278.004 204.193 277.994 204.31 277.981 204.37H268.291ZM285.671 213.37V198.38H287.371V213.37H285.671ZM290.861 209.2C290.041 209.2 289.274 209 288.561 208.6C287.847 208.193 287.267 207.637 286.821 206.93C286.381 206.223 286.161 205.417 286.161 204.51C286.161 204.49 286.161 204.473 286.161 204.46C286.161 204.447 286.161 204.43 286.161 204.41L287.381 204.38C287.381 204.393 287.381 204.41 287.381 204.43C287.381 204.443 287.381 204.457 287.381 204.47C287.381 205.043 287.531 205.567 287.831 206.04C288.137 206.513 288.537 206.89 289.031 207.17C289.524 207.45 290.054 207.59 290.621 207.59C291.561 207.59 292.341 207.27 292.961 206.63C293.587 205.983 293.901 205 293.901 203.68C293.901 202.353 293.591 201.373 292.971 200.74C292.351 200.1 291.567 199.78 290.621 199.78C290.054 199.78 289.524 199.92 289.031 200.2C288.537 200.473 288.137 200.843 287.831 201.31C287.531 201.777 287.381 202.3 287.381 202.88L286.161 202.84C286.161 201.927 286.381 201.123 286.821 200.43C287.267 199.737 287.847 199.197 288.561 198.81C289.274 198.417 290.041 198.22 290.861 198.22C291.721 198.22 292.514 198.433 293.241 198.86C293.967 199.28 294.551 199.897 294.991 200.71C295.431 201.523 295.651 202.513 295.651 203.68C295.651 204.867 295.434 205.873 295.001 206.7C294.567 207.52 293.987 208.143 293.261 208.57C292.534 208.99 291.734 209.2 290.861 209.2ZM298.857 204.37V202.85H307.067L306.767 203.35C306.767 203.31 306.767 203.273 306.767 203.24C306.767 203.2 306.767 203.163 306.767 203.13C306.767 202.517 306.637 201.957 306.377 201.45C306.124 200.937 305.744 200.527 305.237 200.22C304.731 199.913 304.104 199.76 303.357 199.76C302.604 199.76 301.941 199.92 301.367 200.24C300.794 200.56 300.347 201.013 300.027 201.6C299.707 202.18 299.547 202.873 299.547 203.68C299.547 204.5 299.701 205.207 300.007 205.8C300.321 206.393 300.764 206.85 301.337 207.17C301.911 207.49 302.591 207.65 303.377 207.65C303.937 207.65 304.424 207.593 304.837 207.48C305.251 207.36 305.591 207.203 305.857 207.01C306.131 206.81 306.337 206.593 306.477 206.36C306.617 206.127 306.701 205.893 306.727 205.66H308.427C308.394 206.087 308.261 206.51 308.027 206.93C307.794 207.35 307.464 207.733 307.037 208.08C306.611 208.42 306.087 208.693 305.467 208.9C304.847 209.107 304.134 209.21 303.327 209.21C302.261 209.21 301.321 208.977 300.507 208.51C299.694 208.043 299.054 207.397 298.587 206.57C298.127 205.743 297.897 204.793 297.897 203.72C297.897 202.633 298.131 201.68 298.597 200.86C299.064 200.033 299.707 199.387 300.527 198.92C301.347 198.453 302.284 198.22 303.337 198.22C304.411 198.22 305.341 198.453 306.127 198.92C306.914 199.387 307.521 200.027 307.947 200.84C308.374 201.647 308.587 202.567 308.587 203.6C308.587 203.707 308.584 203.847 308.577 204.02C308.571 204.193 308.561 204.31 308.547 204.37H298.857ZM311.237 209V198.38H312.937V201.64L312.377 201.44C312.417 201.047 312.517 200.66 312.677 200.28C312.837 199.893 313.057 199.547 313.337 199.24C313.624 198.927 313.98 198.68 314.407 198.5C314.834 198.313 315.334 198.22 315.907 198.22C316.334 198.22 316.68 198.257 316.947 198.33C317.22 198.397 317.39 198.45 317.457 198.49L317.017 200.16C316.95 200.113 316.814 200.053 316.607 199.98C316.407 199.907 316.12 199.87 315.747 199.87C315.194 199.87 314.734 199.97 314.367 200.17C314.007 200.37 313.72 200.637 313.507 200.97C313.3 201.297 313.154 201.653 313.067 202.04C312.98 202.427 312.937 202.81 312.937 203.19V209H311.237ZM320.594 209V199.88H318.274V198.38H320.594V197.01C320.594 196.537 320.647 196.103 320.754 195.71C320.867 195.31 321.027 194.957 321.234 194.65C321.447 194.343 321.704 194.083 322.004 193.87C322.304 193.657 322.644 193.497 323.024 193.39C323.411 193.277 323.831 193.22 324.284 193.22C324.611 193.22 324.871 193.24 325.064 193.28C325.257 193.32 325.387 193.357 325.454 193.39V194.89C325.374 194.863 325.241 194.833 325.054 194.8C324.867 194.767 324.667 194.75 324.454 194.75C324.001 194.75 323.631 194.82 323.344 194.96C323.064 195.1 322.847 195.293 322.694 195.54C322.541 195.78 322.434 196.053 322.374 196.36C322.321 196.667 322.294 196.987 322.294 197.32V198.38H325.394V199.88H322.294V209H320.594ZM327.373 204.37V202.85H335.583L335.283 203.35C335.283 203.31 335.283 203.273 335.283 203.24C335.283 203.2 335.283 203.163 335.283 203.13C335.283 202.517 335.153 201.957 334.893 201.45C334.64 200.937 334.26 200.527 333.753 200.22C333.246 199.913 332.62 199.76 331.873 199.76C331.12 199.76 330.456 199.92 329.883 200.24C329.31 200.56 328.863 201.013 328.543 201.6C328.223 202.18 328.063 202.873 328.063 203.68C328.063 204.5 328.216 205.207 328.523 205.8C328.836 206.393 329.28 206.85 329.853 207.17C330.426 207.49 331.106 207.65 331.893 207.65C332.453 207.65 332.94 207.593 333.353 207.48C333.766 207.36 334.106 207.203 334.373 207.01C334.646 206.81 334.853 206.593 334.993 206.36C335.133 206.127 335.216 205.893 335.243 205.66H336.943C336.91 206.087 336.776 206.51 336.543 206.93C336.31 207.35 335.98 207.733 335.553 208.08C335.126 208.42 334.603 208.693 333.983 208.9C333.363 209.107 332.65 209.21 331.843 209.21C330.776 209.21 329.836 208.977 329.023 208.51C328.21 208.043 327.57 207.397 327.103 206.57C326.643 205.743 326.413 204.793 326.413 203.72C326.413 202.633 326.646 201.68 327.113 200.86C327.58 200.033 328.223 199.387 329.043 198.92C329.863 198.453 330.8 198.22 331.853 198.22C332.926 198.22 333.856 198.453 334.643 198.92C335.43 199.387 336.036 200.027 336.463 200.84C336.89 201.647 337.103 202.567 337.103 203.6C337.103 203.707 337.1 203.847 337.093 204.02C337.086 204.193 337.076 204.31 337.063 204.37H327.373ZM344.793 209.2C343.779 209.2 342.859 208.98 342.033 208.54C341.206 208.093 340.549 207.457 340.063 206.63C339.583 205.803 339.343 204.82 339.343 203.68C339.343 202.54 339.583 201.563 340.063 200.75C340.549 199.93 341.206 199.303 342.033 198.87C342.859 198.437 343.779 198.22 344.793 198.22C345.566 198.22 346.256 198.34 346.863 198.58C347.469 198.813 347.983 199.127 348.403 199.52C348.823 199.913 349.143 200.347 349.363 200.82C349.589 201.287 349.703 201.753 349.703 202.22C349.703 202.227 349.703 202.237 349.703 202.25C349.703 202.263 349.703 202.277 349.703 202.29H348.013C348.013 202.257 348.009 202.22 348.003 202.18C347.996 202.133 347.989 202.087 347.983 202.04C347.929 201.593 347.759 201.203 347.473 200.87C347.186 200.53 346.813 200.263 346.353 200.07C345.893 199.877 345.369 199.78 344.783 199.78C344.123 199.78 343.509 199.923 342.943 200.21C342.383 200.49 341.929 200.92 341.583 201.5C341.243 202.073 341.073 202.8 341.073 203.68C341.073 204.553 341.243 205.283 341.583 205.87C341.923 206.457 342.373 206.9 342.933 207.2C343.499 207.493 344.116 207.64 344.783 207.64C345.503 207.64 346.096 207.527 346.563 207.3C347.029 207.073 347.379 206.773 347.613 206.4C347.853 206.02 347.986 205.613 348.013 205.18H349.703C349.703 205.66 349.596 206.14 349.383 206.62C349.169 207.093 348.856 207.527 348.443 207.92C348.029 208.307 347.516 208.617 346.903 208.85C346.296 209.083 345.593 209.2 344.793 209.2ZM356.335 209.16C356.009 209.16 355.689 209.123 355.375 209.05C355.062 208.977 354.779 208.847 354.525 208.66C354.279 208.467 354.082 208.197 353.935 207.85C353.789 207.497 353.715 207.043 353.715 206.49C353.715 206.35 353.715 206.207 353.715 206.06C353.715 205.907 353.715 205.747 353.715 205.58V199.88H351.125V198.38H352.785C353.012 198.38 353.189 198.373 353.315 198.36C353.442 198.34 353.532 198.297 353.585 198.23C353.645 198.157 353.682 198.047 353.695 197.9C353.709 197.747 353.715 197.537 353.715 197.27V194.86H355.425V198.38H358.745V199.88H355.425V205.03C355.425 205.177 355.425 205.32 355.425 205.46C355.425 205.6 355.425 205.73 355.425 205.85C355.425 206.417 355.492 206.86 355.625 207.18C355.765 207.5 356.075 207.66 356.555 207.66C356.749 207.66 356.932 207.643 357.105 207.61C357.279 207.577 357.409 207.543 357.495 207.51V208.99C357.382 209.03 357.222 209.067 357.015 209.1C356.815 209.14 356.589 209.16 356.335 209.16ZM61.2166 241.2C60.4099 241.2 59.7032 241.073 59.0966 240.82C58.4966 240.567 58.0299 240.203 57.6966 239.73C57.3632 239.25 57.1966 238.677 57.1966 238.01C57.1966 237.317 57.3766 236.74 57.7366 236.28C58.0966 235.813 58.6032 235.45 59.2566 235.19C59.9099 234.93 60.6699 234.757 61.5366 234.67C62.8432 234.537 63.7732 234.407 64.3266 234.28C64.8799 234.147 65.1566 233.933 65.1566 233.64C65.1566 233.633 65.1566 233.63 65.1566 233.63C65.1566 233.623 65.1566 233.617 65.1566 233.61C65.1566 232.997 64.9066 232.54 64.4066 232.24C63.9066 231.933 63.1832 231.78 62.2366 231.78C61.2499 231.78 60.4832 231.953 59.9366 232.3C59.3899 232.64 59.1166 233.193 59.1166 233.96H57.4366C57.4366 233.167 57.6399 232.493 58.0466 231.94C58.4532 231.38 59.0166 230.953 59.7366 230.66C60.4632 230.367 61.2999 230.22 62.2466 230.22C63.1132 230.22 63.8932 230.353 64.5866 230.62C65.2866 230.88 65.8399 231.27 66.2466 231.79C66.6599 232.303 66.8666 232.94 66.8666 233.7C66.8666 233.84 66.8666 233.98 66.8666 234.12C66.8666 234.253 66.8666 234.39 66.8666 234.53V239C66.8666 239.233 66.8766 239.46 66.8966 239.68C66.9166 239.9 66.9499 240.093 66.9966 240.26C67.0566 240.46 67.1232 240.623 67.1966 240.75C67.2699 240.87 67.3299 240.953 67.3766 241H65.6666C65.6332 240.967 65.5832 240.89 65.5166 240.77C65.4499 240.643 65.3866 240.497 65.3266 240.33C65.2799 240.197 65.2432 240.03 65.2166 239.83C65.1899 239.623 65.1766 239.41 65.1766 239.19L65.4566 239.38C65.2499 239.74 64.9466 240.057 64.5466 240.33C64.1532 240.603 63.6766 240.817 63.1166 240.97C62.5566 241.123 61.9232 241.2 61.2166 241.2ZM61.4866 239.67C62.1732 239.67 62.7932 239.567 63.3466 239.36C63.8999 239.147 64.3399 238.833 64.6666 238.42C64.9932 238.007 65.1566 237.493 65.1566 236.88V234.77L65.5366 235.41C65.1099 235.577 64.5766 235.713 63.9366 235.82C63.3032 235.92 62.6399 236.003 61.9466 236.07C60.9399 236.163 60.1799 236.34 59.6666 236.6C59.1599 236.86 58.9066 237.297 58.9066 237.91C58.9066 238.49 59.1166 238.93 59.5366 239.23C59.9566 239.523 60.6066 239.67 61.4866 239.67ZM69.6941 241V230.38H71.3941V233.64L70.8341 233.44C70.8741 233.047 70.9741 232.66 71.1341 232.28C71.2941 231.893 71.5141 231.547 71.7941 231.24C72.0807 230.927 72.4374 230.68 72.8641 230.5C73.2907 230.313 73.7907 230.22 74.3641 230.22C74.7907 230.22 75.1374 230.257 75.4041 230.33C75.6774 230.397 75.8474 230.45 75.9141 230.49L75.4741 232.16C75.4074 232.113 75.2707 232.053 75.0641 231.98C74.8641 231.907 74.5774 231.87 74.2041 231.87C73.6507 231.87 73.1907 231.97 72.8241 232.17C72.4641 232.37 72.1774 232.637 71.9641 232.97C71.7574 233.297 71.6107 233.653 71.5241 234.04C71.4374 234.427 71.3941 234.81 71.3941 235.19V241H69.6941ZM78.0956 236.37V234.85H86.3056L86.0056 235.35C86.0056 235.31 86.0056 235.273 86.0056 235.24C86.0056 235.2 86.0056 235.163 86.0056 235.13C86.0056 234.517 85.8756 233.957 85.6156 233.45C85.3623 232.937 84.9823 232.527 84.4756 232.22C83.969 231.913 83.3423 231.76 82.5956 231.76C81.8423 231.76 81.179 231.92 80.6056 232.24C80.0323 232.56 79.5856 233.013 79.2656 233.6C78.9456 234.18 78.7856 234.873 78.7856 235.68C78.7856 236.5 78.939 237.207 79.2456 237.8C79.559 238.393 80.0023 238.85 80.5756 239.17C81.149 239.49 81.829 239.65 82.6156 239.65C83.1756 239.65 83.6623 239.593 84.0756 239.48C84.489 239.36 84.829 239.203 85.0956 239.01C85.369 238.81 85.5756 238.593 85.7156 238.36C85.8556 238.127 85.939 237.893 85.9656 237.66H87.6656C87.6323 238.087 87.499 238.51 87.2656 238.93C87.0323 239.35 86.7023 239.733 86.2756 240.08C85.849 240.42 85.3256 240.693 84.7056 240.9C84.0856 241.107 83.3723 241.21 82.5656 241.21C81.499 241.21 80.559 240.977 79.7456 240.51C78.9323 240.043 78.2923 239.397 77.8256 238.57C77.3656 237.743 77.1356 236.793 77.1356 235.72C77.1356 234.633 77.369 233.68 77.8356 232.86C78.3023 232.033 78.9456 231.387 79.7656 230.92C80.5856 230.453 81.5223 230.22 82.5756 230.22C83.649 230.22 84.579 230.453 85.3656 230.92C86.1523 231.387 86.759 232.027 87.1856 232.84C87.6123 233.647 87.8256 234.567 87.8256 235.6C87.8256 235.707 87.8223 235.847 87.8156 236.02C87.809 236.193 87.799 236.31 87.7856 236.37H78.0956ZM94.1853 241.2C93.3786 241.2 92.672 241.073 92.0653 240.82C91.4653 240.567 90.9986 240.203 90.6653 239.73C90.332 239.25 90.1653 238.677 90.1653 238.01C90.1653 237.317 90.3453 236.74 90.7053 236.28C91.0653 235.813 91.572 235.45 92.2253 235.19C92.8786 234.93 93.6386 234.757 94.5053 234.67C95.812 234.537 96.742 234.407 97.2953 234.28C97.8486 234.147 98.1253 233.933 98.1253 233.64C98.1253 233.633 98.1253 233.63 98.1253 233.63C98.1253 233.623 98.1253 233.617 98.1253 233.61C98.1253 232.997 97.8753 232.54 97.3753 232.24C96.8753 231.933 96.152 231.78 95.2053 231.78C94.2186 231.78 93.452 231.953 92.9053 232.3C92.3586 232.64 92.0853 233.193 92.0853 233.96H90.4053C90.4053 233.167 90.6086 232.493 91.0153 231.94C91.422 231.38 91.9853 230.953 92.7053 230.66C93.432 230.367 94.2686 230.22 95.2153 230.22C96.082 230.22 96.862 230.353 97.5553 230.62C98.2553 230.88 98.8086 231.27 99.2153 231.79C99.6286 232.303 99.8353 232.94 99.8353 233.7C99.8353 233.84 99.8353 233.98 99.8353 234.12C99.8353 234.253 99.8353 234.39 99.8353 234.53V239C99.8353 239.233 99.8453 239.46 99.8653 239.68C99.8853 239.9 99.9186 240.093 99.9653 240.26C100.025 240.46 100.092 240.623 100.165 240.75C100.239 240.87 100.299 240.953 100.345 241H98.6353C98.602 240.967 98.552 240.89 98.4853 240.77C98.4186 240.643 98.3553 240.497 98.2953 240.33C98.2486 240.197 98.212 240.03 98.1853 239.83C98.1586 239.623 98.1453 239.41 98.1453 239.19L98.4253 239.38C98.2186 239.74 97.9153 240.057 97.5153 240.33C97.122 240.603 96.6453 240.817 96.0853 240.97C95.5253 241.123 94.892 241.2 94.1853 241.2ZM94.4553 239.67C95.142 239.67 95.762 239.567 96.3153 239.36C96.8686 239.147 97.3086 238.833 97.6353 238.42C97.962 238.007 98.1253 237.493 98.1253 236.88V234.77L98.5053 235.41C98.0786 235.577 97.5453 235.713 96.9053 235.82C96.272 235.92 95.6086 236.003 94.9153 236.07C93.9086 236.163 93.1486 236.34 92.6353 236.6C92.1286 236.86 91.8753 237.297 91.8753 237.91C91.8753 238.49 92.0853 238.93 92.5053 239.23C92.9253 239.523 93.5753 239.67 94.4553 239.67ZM115.263 241V235.91C115.263 235.603 115.263 235.353 115.263 235.16C115.263 234.96 115.263 234.77 115.263 234.59C115.263 234.037 115.169 233.553 114.983 233.14C114.796 232.727 114.503 232.407 114.103 232.18C113.703 231.953 113.179 231.84 112.533 231.84C111.966 231.84 111.439 231.987 110.953 232.28C110.473 232.567 110.086 232.957 109.793 233.45C109.506 233.937 109.363 234.483 109.363 235.09L108.393 234.72C108.393 233.887 108.596 233.13 109.003 232.45C109.416 231.77 109.963 231.23 110.643 230.83C111.329 230.423 112.076 230.22 112.883 230.22C113.703 230.22 114.419 230.377 115.033 230.69C115.646 231.003 116.119 231.453 116.453 232.04C116.793 232.62 116.963 233.32 116.963 234.14C116.963 234.433 116.963 234.753 116.963 235.1C116.963 235.447 116.963 235.77 116.963 236.07V241H115.263ZM107.663 241V230.38H109.363V241H107.663ZM120.478 236.37V234.85H128.688L128.388 235.35C128.388 235.31 128.388 235.273 128.388 235.24C128.388 235.2 128.388 235.163 128.388 235.13C128.388 234.517 128.258 233.957 127.998 233.45C127.745 232.937 127.365 232.527 126.858 232.22C126.352 231.913 125.725 231.76 124.978 231.76C124.225 231.76 123.562 231.92 122.988 232.24C122.415 232.56 121.968 233.013 121.648 233.6C121.328 234.18 121.168 234.873 121.168 235.68C121.168 236.5 121.322 237.207 121.628 237.8C121.942 238.393 122.385 238.85 122.958 239.17C123.532 239.49 124.212 239.65 124.998 239.65C125.558 239.65 126.045 239.593 126.458 239.48C126.872 239.36 127.212 239.203 127.478 239.01C127.752 238.81 127.958 238.593 128.098 238.36C128.238 238.127 128.322 237.893 128.348 237.66H130.048C130.015 238.087 129.882 238.51 129.648 238.93C129.415 239.35 129.085 239.733 128.658 240.08C128.232 240.42 127.708 240.693 127.088 240.9C126.468 241.107 125.755 241.21 124.948 241.21C123.882 241.21 122.942 240.977 122.128 240.51C121.315 240.043 120.675 239.397 120.208 238.57C119.748 237.743 119.518 236.793 119.518 235.72C119.518 234.633 119.752 233.68 120.218 232.86C120.685 232.033 121.328 231.387 122.148 230.92C122.968 230.453 123.905 230.22 124.958 230.22C126.032 230.22 126.962 230.453 127.748 230.92C128.535 231.387 129.142 232.027 129.568 232.84C129.995 233.647 130.208 234.567 130.208 235.6C130.208 235.707 130.205 235.847 130.198 236.02C130.192 236.193 130.182 236.31 130.168 236.37H120.478ZM136.568 241.2C135.761 241.2 135.055 241.073 134.448 240.82C133.848 240.567 133.381 240.203 133.048 239.73C132.715 239.25 132.548 238.677 132.548 238.01C132.548 237.317 132.728 236.74 133.088 236.28C133.448 235.813 133.955 235.45 134.608 235.19C135.261 234.93 136.021 234.757 136.888 234.67C138.195 234.537 139.125 234.407 139.678 234.28C140.231 234.147 140.508 233.933 140.508 233.64C140.508 233.633 140.508 233.63 140.508 233.63C140.508 233.623 140.508 233.617 140.508 233.61C140.508 232.997 140.258 232.54 139.758 232.24C139.258 231.933 138.535 231.78 137.588 231.78C136.601 231.78 135.835 231.953 135.288 232.3C134.741 232.64 134.468 233.193 134.468 233.96H132.788C132.788 233.167 132.991 232.493 133.398 231.94C133.805 231.38 134.368 230.953 135.088 230.66C135.815 230.367 136.651 230.22 137.598 230.22C138.465 230.22 139.245 230.353 139.938 230.62C140.638 230.88 141.191 231.27 141.598 231.79C142.011 232.303 142.218 232.94 142.218 233.7C142.218 233.84 142.218 233.98 142.218 234.12C142.218 234.253 142.218 234.39 142.218 234.53V239C142.218 239.233 142.228 239.46 142.248 239.68C142.268 239.9 142.301 240.093 142.348 240.26C142.408 240.46 142.475 240.623 142.548 240.75C142.621 240.87 142.681 240.953 142.728 241H141.018C140.985 240.967 140.935 240.89 140.868 240.77C140.801 240.643 140.738 240.497 140.678 240.33C140.631 240.197 140.595 240.03 140.568 239.83C140.541 239.623 140.528 239.41 140.528 239.19L140.808 239.38C140.601 239.74 140.298 240.057 139.898 240.33C139.505 240.603 139.028 240.817 138.468 240.97C137.908 241.123 137.275 241.2 136.568 241.2ZM136.838 239.67C137.525 239.67 138.145 239.567 138.698 239.36C139.251 239.147 139.691 238.833 140.018 238.42C140.345 238.007 140.508 237.493 140.508 236.88V234.77L140.888 235.41C140.461 235.577 139.928 235.713 139.288 235.82C138.655 235.92 137.991 236.003 137.298 236.07C136.291 236.163 135.531 236.34 135.018 236.6C134.511 236.86 134.258 237.297 134.258 237.91C134.258 238.49 134.468 238.93 134.888 239.23C135.308 239.523 135.958 239.67 136.838 239.67ZM145.046 241V230.38H146.746V233.64L146.186 233.44C146.226 233.047 146.326 232.66 146.486 232.28C146.646 231.893 146.866 231.547 147.146 231.24C147.432 230.927 147.789 230.68 148.216 230.5C148.642 230.313 149.142 230.22 149.716 230.22C150.142 230.22 150.489 230.257 150.756 230.33C151.029 230.397 151.199 230.45 151.266 230.49L150.826 232.16C150.759 232.113 150.622 232.053 150.416 231.98C150.216 231.907 149.929 231.87 149.556 231.87C149.002 231.87 148.542 231.97 148.176 232.17C147.816 232.37 147.529 232.637 147.316 232.97C147.109 233.297 146.962 233.653 146.876 234.04C146.789 234.427 146.746 234.81 146.746 235.19V241H145.046ZM158.413 245.48C158.146 245.48 157.903 245.463 157.683 245.43C157.463 245.403 157.326 245.377 157.273 245.35V243.87C157.359 243.91 157.503 243.943 157.703 243.97C157.903 243.997 158.103 244.01 158.303 244.01C158.729 244.01 159.089 243.92 159.383 243.74C159.676 243.567 159.923 243.327 160.123 243.02C160.323 242.72 160.486 242.38 160.613 242L160.933 241.06L157.273 230.38H159.053L161.993 239.53H161.753L164.633 230.38H166.383L162.493 241.91C162.273 242.557 162.006 243.15 161.693 243.69C161.386 244.23 160.973 244.663 160.453 244.99C159.939 245.317 159.259 245.48 158.413 245.48ZM172.927 241.19C171.861 241.19 170.917 240.953 170.097 240.48C169.284 240 168.644 239.347 168.177 238.52C167.717 237.687 167.487 236.74 167.487 235.68C167.487 234.62 167.717 233.68 168.177 232.86C168.644 232.04 169.284 231.397 170.097 230.93C170.917 230.463 171.861 230.23 172.927 230.23C173.994 230.23 174.934 230.463 175.747 230.93C176.567 231.397 177.207 232.04 177.667 232.86C178.134 233.68 178.367 234.62 178.367 235.68C178.367 236.74 178.134 237.687 177.667 238.52C177.207 239.347 176.567 240 175.747 240.48C174.934 240.953 173.994 241.19 172.927 241.19ZM172.927 239.63C173.661 239.63 174.307 239.467 174.867 239.14C175.427 238.813 175.864 238.353 176.177 237.76C176.497 237.167 176.657 236.473 176.657 235.68C176.657 234.887 176.497 234.2 176.177 233.62C175.864 233.033 175.427 232.583 174.867 232.27C174.307 231.95 173.661 231.79 172.927 231.79C172.201 231.79 171.554 231.95 170.987 232.27C170.427 232.583 169.987 233.033 169.667 233.62C169.354 234.2 169.197 234.887 169.197 235.68C169.197 236.473 169.354 237.167 169.667 237.76C169.987 238.353 170.427 238.813 170.987 239.14C171.554 239.467 172.201 239.63 172.927 239.63ZM184.942 241.19C184.182 241.19 183.549 241.06 183.042 240.8C182.536 240.533 182.132 240.19 181.832 239.77C181.539 239.35 181.329 238.897 181.202 238.41C181.082 237.917 181.022 237.443 181.022 236.99C181.022 236.737 181.022 236.477 181.022 236.21C181.022 235.937 181.022 235.663 181.022 235.39V230.38H182.732V235.17C182.732 235.417 182.732 235.66 182.732 235.9C182.732 236.14 182.732 236.367 182.732 236.58C182.732 237.12 182.806 237.62 182.952 238.08C183.106 238.54 183.369 238.913 183.742 239.2C184.116 239.48 184.629 239.62 185.282 239.62C185.896 239.62 186.432 239.437 186.892 239.07C187.352 238.697 187.712 238.233 187.972 237.68C188.232 237.12 188.362 236.563 188.362 236.01L189.352 236.42C189.352 237.007 189.249 237.583 189.042 238.15C188.836 238.71 188.539 239.22 188.152 239.68C187.772 240.14 187.309 240.507 186.762 240.78C186.222 241.053 185.616 241.19 184.942 241.19ZM188.362 241V230.38H190.062V241H188.362ZM193.014 241V230.38H194.714V233.64L194.154 233.44C194.194 233.047 194.294 232.66 194.454 232.28C194.614 231.893 194.834 231.547 195.114 231.24C195.401 230.927 195.758 230.68 196.184 230.5C196.611 230.313 197.111 230.22 197.684 230.22C198.111 230.22 198.458 230.257 198.724 230.33C198.998 230.397 199.168 230.45 199.234 230.49L198.794 232.16C198.728 232.113 198.591 232.053 198.384 231.98C198.184 231.907 197.898 231.87 197.524 231.87C196.971 231.87 196.511 231.97 196.144 232.17C195.784 232.37 195.498 232.637 195.284 232.97C195.078 233.297 194.931 233.653 194.844 234.04C194.758 234.427 194.714 234.81 194.714 235.19V241H193.014ZM209.981 241.19C209.221 241.19 208.588 241.06 208.081 240.8C207.575 240.533 207.171 240.19 206.871 239.77C206.578 239.35 206.368 238.897 206.241 238.41C206.121 237.917 206.061 237.443 206.061 236.99C206.061 236.737 206.061 236.477 206.061 236.21C206.061 235.937 206.061 235.663 206.061 235.39V230.38H207.771V235.17C207.771 235.417 207.771 235.66 207.771 235.9C207.771 236.14 207.771 236.367 207.771 236.58C207.771 237.12 207.845 237.62 207.991 238.08C208.145 238.54 208.408 238.913 208.781 239.2C209.155 239.48 209.668 239.62 210.321 239.62C210.935 239.62 211.471 239.437 211.931 239.07C212.391 238.697 212.751 238.233 213.011 237.68C213.271 237.12 213.401 236.563 213.401 236.01L214.391 236.42C214.391 237.007 214.288 237.583 214.081 238.15C213.875 238.71 213.578 239.22 213.191 239.68C212.811 240.14 212.348 240.507 211.801 240.78C211.261 241.053 210.655 241.19 209.981 241.19ZM213.401 241V230.38H215.101V241H213.401ZM225.653 241V235.91C225.653 235.603 225.653 235.353 225.653 235.16C225.653 234.96 225.653 234.77 225.653 234.59C225.653 234.037 225.56 233.553 225.373 233.14C225.187 232.727 224.893 232.407 224.493 232.18C224.093 231.953 223.57 231.84 222.923 231.84C222.357 231.84 221.83 231.987 221.343 232.28C220.863 232.567 220.477 232.957 220.183 233.45C219.897 233.937 219.753 234.483 219.753 235.09L218.783 234.72C218.783 233.887 218.987 233.13 219.393 232.45C219.807 231.77 220.353 231.23 221.033 230.83C221.72 230.423 222.467 230.22 223.273 230.22C224.093 230.22 224.81 230.377 225.423 230.69C226.037 231.003 226.51 231.453 226.843 232.04C227.183 232.62 227.353 233.32 227.353 234.14C227.353 234.433 227.353 234.753 227.353 235.1C227.353 235.447 227.353 235.77 227.353 236.07V241H225.653ZM218.053 241V230.38H219.753V241H218.053ZM230.419 241V230.38H232.099V241H230.419ZM231.269 227.94C230.956 227.94 230.682 227.853 230.449 227.68C230.222 227.5 230.109 227.257 230.109 226.95C230.109 226.65 230.222 226.413 230.449 226.24C230.682 226.06 230.956 225.97 231.269 225.97C231.582 225.97 231.852 226.06 232.079 226.24C232.306 226.413 232.419 226.65 232.419 226.95C232.419 227.257 232.306 227.5 232.079 227.68C231.852 227.853 231.582 227.94 231.269 227.94ZM243.75 230.38L240.19 241H237.96L234.32 230.38H236.08L239.21 240.1H238.94L241.99 230.38H243.75ZM245.83 236.37V234.85H254.04L253.74 235.35C253.74 235.31 253.74 235.273 253.74 235.24C253.74 235.2 253.74 235.163 253.74 235.13C253.74 234.517 253.61 233.957 253.35 233.45C253.097 232.937 252.717 232.527 252.21 232.22C251.703 231.913 251.077 231.76 250.33 231.76C249.577 231.76 248.913 231.92 248.34 232.24C247.767 232.56 247.32 233.013 247 233.6C246.68 234.18 246.52 234.873 246.52 235.68C246.52 236.5 246.673 237.207 246.98 237.8C247.293 238.393 247.737 238.85 248.31 239.17C248.883 239.49 249.563 239.65 250.35 239.65C250.91 239.65 251.397 239.593 251.81 239.48C252.223 239.36 252.563 239.203 252.83 239.01C253.103 238.81 253.31 238.593 253.45 238.36C253.59 238.127 253.673 237.893 253.7 237.66H255.4C255.367 238.087 255.233 238.51 255 238.93C254.767 239.35 254.437 239.733 254.01 240.08C253.583 240.42 253.06 240.693 252.44 240.9C251.82 241.107 251.107 241.21 250.3 241.21C249.233 241.21 248.293 240.977 247.48 240.51C246.667 240.043 246.027 239.397 245.56 238.57C245.1 237.743 244.87 236.793 244.87 235.72C244.87 234.633 245.103 233.68 245.57 232.86C246.037 232.033 246.68 231.387 247.5 230.92C248.32 230.453 249.257 230.22 250.31 230.22C251.383 230.22 252.313 230.453 253.1 230.92C253.887 231.387 254.493 232.027 254.92 232.84C255.347 233.647 255.56 234.567 255.56 235.6C255.56 235.707 255.557 235.847 255.55 236.02C255.543 236.193 255.533 236.31 255.52 236.37H245.83ZM258.21 241V230.38H259.91V233.64L259.35 233.44C259.39 233.047 259.49 232.66 259.65 232.28C259.81 231.893 260.03 231.547 260.31 231.24C260.596 230.927 260.953 230.68 261.38 230.5C261.806 230.313 262.306 230.22 262.88 230.22C263.306 230.22 263.653 230.257 263.92 230.33C264.193 230.397 264.363 230.45 264.43 230.49L263.99 232.16C263.923 232.113 263.786 232.053 263.58 231.98C263.38 231.907 263.093 231.87 262.72 231.87C262.166 231.87 261.706 231.97 261.34 232.17C260.98 232.37 260.693 232.637 260.48 232.97C260.273 233.297 260.126 233.653 260.04 234.04C259.953 234.427 259.91 234.81 259.91 235.19V241H258.21ZM270.121 241.2C269.481 241.2 268.888 241.133 268.341 241C267.801 240.86 267.328 240.66 266.921 240.4C266.521 240.133 266.208 239.807 265.981 239.42C265.761 239.033 265.651 238.59 265.651 238.09C265.651 238.037 265.651 237.983 265.651 237.93C265.651 237.87 265.651 237.82 265.651 237.78H267.361C267.361 237.82 267.361 237.853 267.361 237.88C267.361 237.907 267.361 237.947 267.361 238C267.361 238.54 267.611 238.953 268.111 239.24C268.611 239.52 269.295 239.66 270.161 239.66C270.695 239.66 271.171 239.607 271.591 239.5C272.011 239.393 272.341 239.23 272.581 239.01C272.828 238.79 272.951 238.513 272.951 238.18C272.951 237.627 272.691 237.233 272.171 237C271.658 236.76 270.888 236.553 269.861 236.38C269.321 236.287 268.808 236.167 268.321 236.02C267.835 235.867 267.401 235.67 267.021 235.43C266.648 235.19 266.351 234.893 266.131 234.54C265.918 234.18 265.811 233.75 265.811 233.25C265.811 232.603 266.001 232.057 266.381 231.61C266.768 231.157 267.288 230.813 267.941 230.58C268.595 230.34 269.321 230.22 270.121 230.22C270.895 230.22 271.608 230.343 272.261 230.59C272.915 230.837 273.438 231.197 273.831 231.67C274.231 232.137 274.431 232.713 274.431 233.4C274.431 233.427 274.431 233.46 274.431 233.5C274.431 233.533 274.431 233.567 274.431 233.6H272.731C272.731 233.567 272.731 233.54 272.731 233.52C272.731 233.5 272.731 233.477 272.731 233.45C272.731 233.063 272.608 232.747 272.361 232.5C272.115 232.247 271.795 232.06 271.401 231.94C271.008 231.813 270.588 231.75 270.141 231.75C269.721 231.75 269.308 231.797 268.901 231.89C268.495 231.977 268.158 232.123 267.891 232.33C267.625 232.537 267.491 232.82 267.491 233.18C267.491 233.54 267.615 233.83 267.861 234.05C268.115 234.263 268.468 234.44 268.921 234.58C269.381 234.713 269.921 234.837 270.541 234.95C271.095 235.05 271.618 235.177 272.111 235.33C272.605 235.477 273.038 235.667 273.411 235.9C273.791 236.133 274.088 236.43 274.301 236.79C274.521 237.143 274.631 237.577 274.631 238.09C274.631 238.61 274.511 239.063 274.271 239.45C274.038 239.837 273.711 240.16 273.291 240.42C272.878 240.68 272.398 240.873 271.851 241C271.311 241.133 270.735 241.2 270.121 241.2ZM277.372 241V230.38H279.052V241H277.372ZM278.222 227.94C277.909 227.94 277.636 227.853 277.402 227.68C277.176 227.5 277.062 227.257 277.062 226.95C277.062 226.65 277.176 226.413 277.402 226.24C277.636 226.06 277.909 225.97 278.222 225.97C278.536 225.97 278.806 226.06 279.032 226.24C279.259 226.413 279.372 226.65 279.372 226.95C279.372 227.257 279.259 227.5 279.032 227.68C278.806 227.853 278.536 227.94 278.222 227.94ZM286.414 241.16C286.087 241.16 285.767 241.123 285.454 241.05C285.14 240.977 284.857 240.847 284.604 240.66C284.357 240.467 284.16 240.197 284.014 239.85C283.867 239.497 283.794 239.043 283.794 238.49C283.794 238.35 283.794 238.207 283.794 238.06C283.794 237.907 283.794 237.747 283.794 237.58V231.88H281.204V230.38H282.864C283.09 230.38 283.267 230.373 283.394 230.36C283.52 230.34 283.61 230.297 283.664 230.23C283.724 230.157 283.76 230.047 283.774 229.9C283.787 229.747 283.794 229.537 283.794 229.27V226.86H285.504V230.38H288.824V231.88H285.504V237.03C285.504 237.177 285.504 237.32 285.504 237.46C285.504 237.6 285.504 237.73 285.504 237.85C285.504 238.417 285.57 238.86 285.704 239.18C285.844 239.5 286.154 239.66 286.634 239.66C286.827 239.66 287.01 239.643 287.184 239.61C287.357 239.577 287.487 239.543 287.574 239.51V240.99C287.46 241.03 287.3 241.067 287.094 241.1C286.894 241.14 286.667 241.16 286.414 241.16ZM291.323 245.48C291.056 245.48 290.813 245.463 290.593 245.43C290.373 245.403 290.236 245.377 290.183 245.35V243.87C290.269 243.91 290.413 243.943 290.613 243.97C290.813 243.997 291.013 244.01 291.213 244.01C291.639 244.01 291.999 243.92 292.293 243.74C292.586 243.567 292.833 243.327 293.033 243.02C293.233 242.72 293.396 242.38 293.523 242L293.843 241.06L290.183 230.38H291.963L294.903 239.53H294.663L297.543 230.38H299.293L295.403 241.91C295.183 242.557 294.916 243.15 294.603 243.69C294.296 244.23 293.883 244.663 293.363 244.99C292.849 245.317 292.169 245.48 291.323 245.48ZM301.457 241.26C301.13 241.26 300.853 241.15 300.627 240.93C300.407 240.703 300.297 240.427 300.297 240.1C300.297 239.78 300.407 239.507 300.627 239.28C300.853 239.053 301.13 238.94 301.457 238.94C301.777 238.94 302.05 239.053 302.277 239.28C302.503 239.507 302.617 239.78 302.617 240.1C302.617 240.427 302.503 240.703 302.277 240.93C302.05 241.15 301.777 241.26 301.457 241.26Z" fill="#383838"/>
<path d="M178 107.375C171.667 107.125 165.729 105.708 160.188 103.125C154.646 100.542 149.833 97.125 145.75 92.875C141.667 88.625 138.438 83.6875 136.063 78.0625C133.688 72.4375 132.5 66.4167 132.5 60C132.5 53.4167 133.75 47.25 136.25 41.5C138.75 35.75 142.146 30.7292 146.438 26.4375C150.729 22.1458 155.75 18.75 161.5 16.25C167.25 13.75 173.417 12.5 180 12.5C192.083 12.5 202.542 16.3958 211.375 24.1875C220.208 31.9792 225.417 41.7083 227 53.375H221.25C220.167 46.0417 217.375 39.4792 212.875 33.6875C208.375 27.8958 202.625 23.5833 195.625 20.75V23.125C195.625 25.9583 194.625 28.4375 192.625 30.5625C190.625 32.6875 188.208 33.75 185.375 33.75H174.75V44.375C174.75 45.7917 174.208 46.9583 173.125 47.875C172.042 48.7917 170.792 49.25 169.375 49.25H159.125V60H171.5V75.375H164.375L139.25 50.375C138.917 51.9583 138.646 53.5417 138.438 55.125C138.229 56.7083 138.125 58.3333 138.125 60C138.125 71.1667 141.938 80.7917 149.562 88.875C157.188 96.9583 166.667 101.25 178 101.75V107.375ZM223.875 102.875L208.625 87.875C207.042 89.0417 205.292 89.9583 203.375 90.625C201.458 91.2917 199.5 91.625 197.5 91.625C192.167 91.625 187.646 89.7708 183.938 86.0625C180.229 82.3542 178.375 77.8333 178.375 72.5C178.375 67.1667 180.229 62.6458 183.938 58.9375C187.646 55.2292 192.167 53.375 197.5 53.375C202.833 53.375 207.354 55.2292 211.062 58.9375C214.771 62.6458 216.625 67.1667 216.625 72.5C216.625 74.5 216.271 76.4792 215.562 78.4375C214.854 80.3958 213.917 82.2083 212.75 83.875L227.875 98.875C228.458 99.4583 228.771 100.125 228.812 100.875C228.854 101.625 228.583 102.333 228 103C227.417 103.5 226.729 103.75 225.938 103.75C225.146 103.75 224.458 103.458 223.875 102.875ZM197.5 85.875C201.25 85.875 204.417 84.5833 207 82C209.583 79.4167 210.875 76.25 210.875 72.5C210.875 68.75 209.583 65.5833 207 63C204.417 60.4167 201.25 59.125 197.5 59.125C193.75 59.125 190.583 60.4167 188 63C185.417 65.5833 184.125 68.75 184.125 72.5C184.125 76.25 185.417 79.4167 188 82C190.583 84.5833 193.75 85.875 197.5 85.875Z" fill="#3A5295"/>
</svg>
